{
.appVersion = "1350";
DisplayStrings = (
"AÁ/Abreve ÂÄÀ/Amacron/Aogonek ÅÃÆBC/Cacute/Ccaron Ç/Ccircumflex/Cdotaccent DÐ/Dcaron/Dcroat EÉ/Ebreve/Ecaron ÊË/Edotaccent È/Emacron/Eogonek FG/Gbreve/Gcircumflex/Gcommaaccent/Gdotaccent H/Hbar/Hcircumflex I/IJ Í/Ibreve ÎÏ/Idotaccent Ì/Imacron/Iogonek/Itilde J/Jcircumflex K/Kcommaaccent L/Lacute/Lcaron/Lcommaaccent/Ldot/Lslash MN/Nacute/Ncaron/Ncommaaccent/Eng ÑOÓ/Obreve ÔÖÒ/Ohungarumlaut/Omacron ØÕ/OE PÞQR/Racute/Rcaron/Rcommaaccent S/Sacute/Scaron/Scedilla/Scircumflex/Scommaaccent/Germandbls T/Tbar/Tcaron/Tcedilla/Tcommaaccent UÚ/Ubreve ÛÜÙ/Uhungarumlaut/Umacron/Uogonek/Uring/Utilde VW/Wacute/Wcircumflex/Wdieresis/Wgrave XYÝ/Ycircumflex/Ydieresis/Ygrave Z/Zacute/Zcaron/Zdotaccent/A.2/Aacute.2/Abreve.2/Acircumflex.2/Adieresis.2/Agrave.2/Amacron.2/Aogonek.2/Aring.2/Atilde.2/AE.2/C.2/Cacute.2/Ccedilla.2/Ccircumflex.2/Cdotaccent.2/E.2/K.2/K.3/M.2/M.3/M.4/M.5/N.2/N.3/Q.2/R.2/S.2/S.3/Sacute.2/Scaron.2/Scedilla.2/Scircumflex.2/W.2/Wacute.2/Wcircumflex.2/Wdieresis.2/Wgrave.2/Z.2/Zacute.2/Zcaron.2/Zdotaccent.2 aá/abreve âäà/amacron/aogonek åãæbc/cacute/ccaron ç/ccircumflex/cdotaccent dð/dcaron/dcroat eé/ebreve/ecaron êë/edotaccent è/emacron/eogonek fg/gbreve/gcircumflex/gcommaaccent/gdotaccent h/hbar/hcircumflex i/idotless í/ibreve îï/idotaccent ì/ij/imacron/iogonek/itilde j/uni0237/jcircumflex k/kcommaaccent l/lacute/lcaron/lcommaaccent/ldot/lslash mn/nacute/ncaron/ncommaaccent/eng ñoó/obreve ôöò/ohungarumlaut/omacron øõ/oe pþqr/racute/rcaron/rcommaaccent s/sacute/scaron/scedilla/scircumflex/scommaaccent ßt/tbar/tcaron/tcedilla/tcommaaccent uú/ubreve ûüù/uhungarumlaut/umacron/uogonek/uring/utilde vw/wacute/wcircumflex/wdieresis/wgrave xyý/ycircumflex/ydieresis/ygrave z/zacute/zcaron/zdotaccent/i.TRK/i.dot/f.2/j.2/m.2/m.3/m.4/n.2/n.3/n.4/r.2/racute.2/s.2/sacute.2/scaron.2/scedilla.2/scircumflex.2/z.2/zacute.2/zcaron.2/zdotaccent.2"
);
classes = (
{

glyphs = (
{
glyphname = A;
layers = (
{
anchors = (
{
name = bottom_right;
position = "{288, 0}";
},
{
name = top;
position = "{137, 760}";
}
);
layerId = master01;
paths = (
{
closed = 1;
nodes = (
"204 0 LINE",
"157 370 LINE",
"138 570 LINE",
"127 570 LINE",
"111 628 LINE",
"67 730 LINE",
"166 730 LINE",
"288 0 LINE"
);
},
{
closed = 1;
nodes = (
"90 0 LINE",
"0 0 LINE",
"128 730 LINE",
"156 730 LINE",
"127 570 LINE"
);
},
{
closed = 1;
nodes = (
"86 205 LINE",
"86 225 LINE",
"180 225 LINE",
"180 205 LINE"
);
}
);
width = 288;
},
{
anchors = (
{
name = bottom_right;
position = "{288, 0}";
},
{
name = top;
position = "{137, 760}";
}
);
associatedMasterId = master01;
layerId = "7CD04CE5-C64E-4F20-8DA2-CF077FE8E352";
name = foreground;
paths = (
{
closed = 1;
nodes = (
"204 0 LINE",
"157 370 LINE",
"138 570 LINE",
"127 570 LINE",
"111 628 LINE",
"67 730 LINE",
"166 730 LINE",
"288 0 LINE"
);
},
{
closed = 1;
nodes = (
"90 0 LINE",
"0 0 LINE",
"128 730 LINE",
"156 730 LINE",
"127 570 LINE"
);
},
{
closed = 1;
nodes = (
"86 205 LINE",
"86 225 LINE",
"180 225 LINE",
"180 205 LINE"
);
}
);
width = 288;
}
);
leftKerningGroup = A;
rightKerningGroup = A;
unicode = 0041;
},
{
glyphname = AE;
layers = (
{
anchors = (
{
name = bottom_right;
position = "{501, 0}";
}
);
layerId = master01;
paths = (
{
closed = 1;
nodes = (
"204 0 LINE",
"157 370 LINE",
"138 570 LINE",
"127 570 LINE",
"111 628 LINE",
"67 730 LINE",
"166 730 LINE",
"278 0 LINE"
);
},
{
closed = 1;
nodes = (
"90 0 LINE",
"0 0 LINE",
"128 730 LINE",
"156 730 LINE",
"127 570 LINE"
);
},
{
closed = 1;
nodes = (
"86 205 LINE",
"86 225 LINE",
"180 225 LINE",
"180 205 LINE"
);
},
{
closed = 1;
nodes = (
"143 730 LINE",
"327 730 LINE",
"327 665 LINE",
"143 665 LINE"
);
},
{
closed = 1;
nodes = (
"205 374 LINE",
"205 396 LINE",
"300 396 LINE",
"300 374 LINE"
);
},
{
closed = 1;
nodes = (
"215 65 LINE",
"337 65 LINE",
"337 0 LINE",
"215 0 LINE"
);
}
);
width = 352;
},
{
anchors = (
{
name = bottom_right;
position = "{501, 0}";
}
);
associatedMasterId = master01;
layerId = "E77B83DD-E264-4476-8201-58F7A56BDC66";
name = foreground;
paths = (
{
closed = 1;
nodes = (
"204 0 LINE",
"157 370 LINE",
"138 570 LINE",
"127 570 LINE",
"111 628 LINE",
"67 730 LINE",
"166 730 LINE",
"278 0 LINE"
);
},
{
closed = 1;
nodes = (
"90 0 LINE",
"0 0 LINE",
"128 730 LINE",
"156 730 LINE",
"127 570 LINE"
);
},
{
closed = 1;
nodes = (
"86 205 LINE",
"86 225 LINE",
"180 225 LINE",
"180 205 LINE"
);
},
{
closed = 1;
nodes = (
"143 730 LINE",
"327 730 LINE",
"327 665 LINE",
"143 665 LINE"
);
},
{
closed = 1;
nodes = (
"205 374 LINE",
"205 396 LINE",
"300 396 LINE",
"300 374 LINE"
);
},
{
closed = 1;
nodes = (
"215 65 LINE",
"337 65 LINE",
"337 0 LINE",
"215 0 LINE"
);
}
);
width = 352;
}
);
leftKerningGroup = A;
rightKerningGroup = E;
unicode = 00C6;
},
{
glyphname = B;
layers = (
{
layerId = master01;
paths = (
{
closed = 1;
nodes = (
"105 730 LINE",
"105 0 LINE",
"30 0 LINE",
"30 730 LINE"
);
},
{
closed = 1;
nodes = (
"124 399 LINE",
"162 416 OFFCURVE",
"171 440 OFFCURVE",
"171 475 CURVE",
"171 579 LINE SMOOTH",
"171 644 OFFCURVE",
"156 662 OFFCURVE",
"113 662 CURVE",
"113 662 OFFCURVE",
"71 662 OFFCURVE",
"71 662 CURVE",
"71 730 LINE",
"120 730 LINE SMOOTH",
"200 730 OFFCURVE",
"246 695 OFFCURVE",
"246 604 CURVE",
"246 535 LINE SMOOTH",
"246 446 OFFCURVE",
"193 409 OFFCURVE",
"128 382 CURVE",
"78 361 LINE",
"71 376 LINE"
);
},
{
closed = 1;
nodes = (
"102 384 LINE",
"153 395 LINE",
"153 383 LINE",
"220 389 LINE",
"250 367 OFFCURVE",
"261 310 OFFCURVE",
"261 241 CURVE",
"261 126 LINE SMOOTH",
"261 35 OFFCURVE",
"209 0 OFFCURVE",
"120 0 CURVE",
"71 0 LINE",
"71 68 LINE",
"113 68 LINE SMOOTH",
"167 68 OFFCURVE",
"186 86 OFFCURVE",
"186 151 CURVE",
"186 303 LINE SMOOTH",
"186 348 OFFCURVE",
"168 369 OFFCURVE",
"133 369 CURVE",
"121 369 OFFCURVE",
"112 364 OFFCURVE",
"103 358 CURVE"
);
}
);
width = 289;
},
{
associatedMasterId = master01;
layerId = "E5FBA7E9-35B2-45E1-9955-534AD423D1D5";
name = foreground;
paths = (
{
closed = 1;
nodes = (
"105 730 LINE",
"105 0 LINE",
"30 0 LINE",
"30 730 LINE"
);
},
{
closed = 1;
nodes = (
"124 399 LINE",
"162 416 OFFCURVE",
"171 440 OFFCURVE",
"171 475 CURVE",
"171 579 LINE SMOOTH",
"171 644 OFFCURVE",
"156 662 OFFCURVE",
"113 662 CURVE",
"113 662 OFFCURVE",
"71 662 OFFCURVE",
"71 662 CURVE",
"71 730 LINE",
"120 730 LINE SMOOTH",
"200 730 OFFCURVE",
"246 695 OFFCURVE",
"246 604 CURVE",
"246 535 LINE SMOOTH",
"246 446 OFFCURVE",
"193 409 OFFCURVE",
"128 382 CURVE",
"78 361 LINE",
"71 376 LINE"
);
},
{
closed = 1;
nodes = (
"102 384 LINE",
"153 395 LINE",
"153 383 LINE",
"220 389 LINE",
"250 367 OFFCURVE",
"261 310 OFFCURVE",
"261 241 CURVE",
"261 126 LINE SMOOTH",
"261 35 OFFCURVE",
"209 0 OFFCURVE",
"120 0 CURVE",
"71 0 LINE",
"71 68 LINE",
"113 68 LINE SMOOTH",
"167 68 OFFCURVE",
"186 86 OFFCURVE",
"186 151 CURVE",
"186 303 LINE SMOOTH",
"186 348 OFFCURVE",
"168 369 OFFCURVE",
"133 369 CURVE",
"121 369 OFFCURVE",
"112 364 OFFCURVE",
"103 358 CURVE"
);
}
);
width = 289;
}
);
rightKerningGroup = B;
unicode = 0042;
},
{
glyphname = C;
layers = (
{
anchors = (
{
name = bottom;
position = "{118, 0}";
}
);
layerId = master01;
paths = (
{
closed = 1;
nodes = (
"195 664 OFFCURVE",
"179 672 OFFCURVE",
"137 672 CURVE",
"111 672 OFFCURVE",
"105 650 OFFCURVE",
"105 615 CURVE",
"105 141 LINE SMOOTH",
"105 69 OFFCURVE",
"126 58 OFFCURVE",
"146 58 CURVE",
"172 58 OFFCURVE",
"182 96 OFFCURVE",
"184 160 CURVE",
"187 278 LINE",
"201 278 LINE",
"204 157 LINE SMOOTH",
"206 62 OFFCURVE",
"177 -10 OFFCURVE",
"117 -10 CURVE",
"60 -10 OFFCURVE",
"30 21 OFFCURVE",
"30 107 CURVE",
"30 605 LINE SMOOTH",
"30 703 OFFCURVE",
"79 740 OFFCURVE",
"137 740 CURVE",
"189 740 OFFCURVE",
"214 709 OFFCURVE",
"214 647 CURVE",
"214 596 OFFCURVE",
"212 526 OFFCURVE",
"194 425 CURVE",
"118 425 LINE",
"188 575 OFFCURVE",
"195 614 OFFCURVE",
"195 642 CURVE SMOOTH"
);
}
);
width = 236;
},
{
anchors = (
{
name = bottom;
position = "{118, 0}";
}
);
associatedMasterId = master01;
layerId = "0F36F908-2D11-41CF-A362-496843E2D126";
name = foreground;
paths = (
{
closed = 1;
nodes = (
"195 664 OFFCURVE",
"179 672 OFFCURVE",
"137 672 CURVE",
"111 672 OFFCURVE",
"105 650 OFFCURVE",
"105 615 CURVE",
"105 141 LINE SMOOTH",
"105 69 OFFCURVE",
"126 58 OFFCURVE",
"146 58 CURVE",
"172 58 OFFCURVE",
"182 96 OFFCURVE",
"184 160 CURVE",
"187 278 LINE",
"201 278 LINE",
"204 157 LINE SMOOTH",
"206 62 OFFCURVE",
"177 -10 OFFCURVE",
"117 -10 CURVE",
"60 -10 OFFCURVE",
"30 21 OFFCURVE",
"30 107 CURVE",
"30 605 LINE SMOOTH",
"30 703 OFFCURVE",
"79 740 OFFCURVE",
"137 740 CURVE",
"189 740 OFFCURVE",
"214 709 OFFCURVE",
"214 647 CURVE",
"214 596 OFFCURVE",
"212 526 OFFCURVE",
"194 425 CURVE",
"118 425 LINE",
"188 575 OFFCURVE",
"195 614 OFFCURVE",
"195 642 CURVE SMOOTH"
);
}
);
width = 236;
}
);
leftKerningGroup = C;
rightKerningGroup = C;
unicode = 0043;
},
{
glyphname = D;
layers = (
{
anchors = (
{
name = top;
position = "{127, 760}";
}
);
layerId = master01;
paths = (
{
closed = 1;
nodes = (
"105 730 LINE",
"105 0 LINE",
"30 0 LINE",
"30 730 LINE"
);
},
{
closed = 1;
nodes = (
"120 68 LINE",
"169 68 OFFCURVE",
"181 90 OFFCURVE",
"181 125 CURVE",
"181 579 LINE SMOOTH",
"181 644 OFFCURVE",
"163 662 OFFCURVE",
"113 662 CURVE",
"113 662 OFFCURVE",
"71 662 OFFCURVE",
"71 662 CURVE",
"71 730 LINE",
"120 730 LINE SMOOTH",
"206 730 OFFCURVE",
"256 695 OFFCURVE",
"256 604 CURVE",
"256 135 LINE SMOOTH",
"256 37 OFFCURVE",
"188 0 OFFCURVE",
"107 0 CURVE",
"107 0 OFFCURVE",
"62 0 OFFCURVE",
"62 0 CURVE",
"62 68 LINE"
);
}
);
width = 286;
},
{
anchors = (
{
name = top;
position = "{127, 760}";
}
);
associatedMasterId = master01;
layerId = "568BE285-8A1F-485F-A8F9-B69B443FE8F7";
name = foreground;
paths = (
{
closed = 1;
nodes = (
"105 730 LINE",
"105 0 LINE",
"30 0 LINE",
"30 730 LINE"
);
},
{
closed = 1;
nodes = (
"120 68 LINE",
"169 68 OFFCURVE",
"181 90 OFFCURVE",
"181 125 CURVE",
"181 579 LINE SMOOTH",
"181 644 OFFCURVE",
"163 662 OFFCURVE",
"113 662 CURVE",
"113 662 OFFCURVE",
"71 662 OFFCURVE",
"71 662 CURVE",
"71 730 LINE",
"120 730 LINE SMOOTH",
"206 730 OFFCURVE",
"256 695 OFFCURVE",
"256 604 CURVE",
"256 135 LINE SMOOTH",
"256 37 OFFCURVE",
"188 0 OFFCURVE",
"107 0 CURVE",
"107 0 OFFCURVE",
"62 0 OFFCURVE",
"62 0 CURVE",
"62 68 LINE"
);
}
);
width = 286;
}
);
rightKerningGroup = Eth;
unicode = 0044;
},
{
glyphname = Eth;
layers = (
{
anchors = (
{
name = top;
position = "{127, 760}";
}
);
components = (
{
name = D;
}
);
layerId = master01;
paths = (
{
closed = 1;
nodes = (
"0 371 LINE",
"0 391 LINE",
"144 391 LINE",
"144 371 LINE"
);
}
);
width = 286;
},
{
anchors = (
{
name = top;
position = "{127, 760}";
}
);
associatedMasterId = master01;
components = (
{
name = D;
}
);
layerId = "2CFCF840-15C9-408A-8BC8-3DD276B06FBB";
name = foreground;
paths = (
{
closed = 1;
nodes = (
"0 371 LINE",
"0 391 LINE",
"144 391 LINE",
"144 371 LINE"
);
}
);
width = 286;
}
);
rightKerningGroup = Eth;
unicode = 00D0;
},
{
glyphname = E;
layers = (
{
anchors = (
{
name = bottom_right;
position = "{213, 0}";
},
{
name = top;
position = "{123, 760}";
}
);
layerId = master01;
paths = (
{
closed = 1;
nodes = (
"105 730 LINE",
"105 0 LINE",
"30 0 LINE",
"30 730 LINE"
);
},
{
closed = 1;
nodes = (
"41 730 LINE",
"203 730 LINE",
"203 665 LINE",
"41 665 LINE"
);
},
{
closed = 1;
nodes = (
"82 374 LINE",
"82 396 LINE",
"176 396 LINE",
"176 374 LINE"
);
},
{
closed = 1;
nodes = (
"41 65 LINE",
"213 65 LINE",
"213 0 LINE",
"41 0 LINE"
);
}
);
width = 228;
},
{
anchors = (
{
name = bottom_right;
position = "{213, 0}";
},
{
name = top;
position = "{123, 760}";
}
);
associatedMasterId = master01;
layerId = "27BD77B4-1860-4897-8836-EB18BA267830";
name = foreground;
paths = (
{
closed = 1;
nodes = (
"105 730 LINE",
"105 0 LINE",
"30 0 LINE",
"30 730 LINE"
);
},
{
closed = 1;
nodes = (
"41 730 LINE",
"203 730 LINE",
"203 665 LINE",
"41 665 LINE"
);
},
{
closed = 1;
nodes = (
"82 374 LINE",
"82 396 LINE",
"176 396 LINE",
"176 374 LINE"
);
},
{
closed = 1;
nodes = (
"41 65 LINE",
"213 65 LINE",
"213 0 LINE",
"41 0 LINE"
);
}
);
width = 228;
}
);
rightKerningGroup = E;
unicode = 0045;
},
{
glyphname = F;
layers = (
{
layerId = master01;
paths = (
{
closed = 1;
nodes = (
"105 0 LINE",
"30 0 LINE",
"30 730 LINE",
"105 730 LINE"
);
},
{
closed = 1;
nodes = (
"82 358 LINE",
"176 358 LINE",
"176 336 LINE",
"82 336 LINE"
);
},
{
closed = 1;
nodes = (
"41 665 LINE",
"41 730 LINE",
"203 730 LINE",
"203 665 LINE"
);
}
);
width = 213;
},
{
associatedMasterId = master01;
layerId = "50581093-0CE0-432A-9445-3061DB8AFE36";
name = foreground;
paths = (
{
closed = 1;
nodes = (
"105 0 LINE",
"30 0 LINE",
"30 730 LINE",
"105 730 LINE"
);
},
{
closed = 1;
nodes = (
"82 358 LINE",
"176 358 LINE",
"176 336 LINE",
"82 336 LINE"
);
},
{
closed = 1;
nodes = (
"41 665 LINE",
"41 730 LINE",
"203 730 LINE",
"203 665 LINE"
);
}
);
width = 213;
}
);
rightKerningGroup = F;
unicode = 0046;
},
{
glyphname = G;
lastChange = "2021-03-23 08:46:54 +0000";
layers = (
{
anchors = (
{
name = bottom;
position = "{132, 0}";
},
{
name = top;
position = "{137, 760}";
}
);
layerId = master01;
paths = (
{
closed = 1;
nodes = (
"200 664 OFFCURVE",
"184 672 OFFCURVE",
"142 672 CURVE",
"112 672 OFFCURVE",
"105 650 OFFCURVE",
"105 615 CURVE",
"105 141 LINE SMOOTH",
"105 69 OFFCURVE",
"119 58 OFFCURVE",
"134 58 CURVE",
"156 58 OFFCURVE",
"167 90 OFFCURVE",
"167 160 CURVE",
"167 318 LINE",
"252 298 LINE",
"231 298 OFFCURVE",
"227 294 OFFCURVE",
"227 274 CURVE",
"227 -10 LINE",
"216 -10 LINE",
"190 107 LINE",
"180 107 LINE",
"168 28 OFFCURVE",
"143 -10 OFFCURVE",
"98 -10 CURVE",
"55 -10 OFFCURVE",
"30 21 OFFCURVE",
"30 107 CURVE",
"30 605 LINE SMOOTH",
"30 703 OFFCURVE",
"81 740 OFFCURVE",
"142 740 CURVE",
"194 740 OFFCURVE",
"219 709 OFFCURVE",
"219 647 CURVE",
"219 596 OFFCURVE",
"217 526 OFFCURVE",
"199 425 CURVE",
"123 425 LINE",
"193 575 OFFCURVE",
"200 614 OFFCURVE",
"200 642 CURVE SMOOTH"
);
},
{
closed = 1;
nodes = (
"129 298 LINE",
"129 318 LINE",
"253 318 LINE",
"253 298 LINE"
);
}
);
width = 263;
},
{
associatedMasterId = master01;
layerId = "7107F6DD-9CD4-4CDE-9D10-5C523BEC04CB";
name = foreground;
paths = (
{
closed = 1;
nodes = (
"200 664 OFFCURVE",
"184 672 OFFCURVE",
"142 672 CURVE",
"112 672 OFFCURVE",
"105 650 OFFCURVE",
"105 615 CURVE",
"105 141 LINE SMOOTH",
"105 69 OFFCURVE",
"119 58 OFFCURVE",
"134 58 CURVE",
"156 58 OFFCURVE",
"167 90 OFFCURVE",
"167 160 CURVE",
"167 318 LINE",
"252 298 LINE",
"231 298 OFFCURVE",
"227 294 OFFCURVE",
"227 274 CURVE",
"227 -10 LINE",
"216 -10 LINE",
"190 107 LINE",
"180 107 LINE",
"168 28 OFFCURVE",
"143 -10 OFFCURVE",
"98 -10 CURVE",
"55 -10 OFFCURVE",
"30 21 OFFCURVE",
"30 107 CURVE",
"30 605 LINE SMOOTH",
"30 703 OFFCURVE",
"81 740 OFFCURVE",
"142 740 CURVE",
"194 740 OFFCURVE",
"219 709 OFFCURVE",
"219 647 CURVE",
"219 596 OFFCURVE",
"217 526 OFFCURVE",
"199 425 CURVE",
"123 425 LINE",
"193 575 OFFCURVE",
"200 614 OFFCURVE",
"200 642 CURVE SMOOTH"
);
},
{
closed = 1;
nodes = (
"129 298 LINE",
"129 318 LINE",
"253 318 LINE",
"253 298 LINE"
);
}
);
width = 263;
}
);
leftKerningGroup = C;
rightKerningGroup = G;
unicode = 0047;
},
{
glyphname = H;
layers = (
{
layerId = master01;
paths = (
{
closed = 1;
nodes = (
"105 730 LINE",
"105 0 LINE",
"30 0 LINE",
"30 730 LINE"
);
},
{
closed = 1;
nodes = (
"265 730 LINE",
"265 0 LINE",
"190 0 LINE",
"190 730 LINE"
);
},
{
closed = 1;
nodes = (
"82 374 LINE",
"82 394 LINE",
"206 394 LINE",
"206 374 LINE"
);
}
);
width = 295;
},
{
associatedMasterId = master01;
layerId = "3BFFAFAE-5E5F-45DB-8BAA-7D4B10ABA524";
name = foreground;
paths = (
{
closed = 1;
nodes = (
"105 730 LINE",
"105 0 LINE",
"30 0 LINE",
"30 730 LINE"
);
},
{
closed = 1;
nodes = (
"265 730 LINE",
"265 0 LINE",
"190 0 LINE",
"190 730 LINE"
);
},
{
closed = 1;
nodes = (
"82 374 LINE",
"82 394 LINE",
"206 394 LINE",
"206 374 LINE"
);
}
);
width = 295;
}
);
unicode = 0048;
},
{
glyphname = Hbar;
lastChange = "2021-03-23 08:39:18 +0000";
layers = (
{
components = (
{
name = H;
}
);
layerId = master01;
paths = (
{
closed = 1;
nodes = (
"0 520 LINE",
"0 540 LINE",
"295 540 LINE",
"295 520 LINE"
);
}
);
width = 295;
}
);
leftMetricsKey = "=H@10";
rightMetricsKey = "=H@10";
unicode = 0126;
},
{
glyphname = I;
lastChange = "2021-03-23 09:03:29 +0000";
layers = (
{
anchors = (
{
name = bottom_right;
position = "{105, 0}";
},
{
name = top;
position = "{67, 760}";
}
);
layerId = master01;
paths = (
{
closed = 1;
nodes = (
"105 730 LINE",
"105 0 LINE",
"30 0 LINE",
"30 730 LINE"
);
}
);
width = 135;
},
{
anchors = (
{
name = bottom_right;
position = "{105, 0}";
},
{
name = top;
position = "{67, 760}";
}
);
associatedMasterId = master01;
layerId = "A8ACE2FB-59E8-4DE9-9D77-1026EE4A7D04";
name = foreground;
paths = (
{
closed = 1;
nodes = (
"105 730 LINE",
"105 0 LINE",
"30 0 LINE",
"30 730 LINE"
);
}
);
width = 135;
}
);
unicode = 0049;
},
{
glyphname = J;
layers = (
{
layerId = master01;
paths = (
{
closed = 1;
nodes = (
"35 730 LINE",
"110 730 LINE",
"110 139 LINE SMOOTH",
"110 -17 OFFCURVE",
"10 -130 OFFCURVE",
"-67 -130 CURVE",
"-89 -130 LINE",
"-89 -43 LINE",
"-71 -51 OFFCURVE",
"-45 -57 OFFCURVE",
"-13 -57 CURVE",
"16 -57 OFFCURVE",
"35 -49 OFFCURVE",
"35 -19 CURVE"
);
}
);
width = 145;
},
{
associatedMasterId = master01;
layerId = "8EEBF69D-75EA-4B86-B948-454413B6DC25";
name = foreground;
paths = (
{
closed = 1;
nodes = (
"35 730 LINE",
"110 730 LINE",
"110 139 LINE SMOOTH",
"110 -17 OFFCURVE",
"10 -130 OFFCURVE",
"-67 -130 CURVE",
"-89 -130 LINE",
"-89 -43 LINE",
"-71 -51 OFFCURVE",
"-45 -57 OFFCURVE",
"-13 -57 CURVE",
"16 -57 OFFCURVE",
"35 -49 OFFCURVE",
"35 -19 CURVE"
);
}
);
width = 145;
}
);
leftKerningGroup = J;
rightKerningGroup = J;
unicode = 004A;
},
{
glyphname = K;
layers = (
{
layerId = master01;
paths = (
{
closed = 1;
nodes = (
"105 730 LINE",
"105 649 LINE",
"81 413 LINE",
"91 411 LINE",
"183 730 LINE",
"273 730 LINE",
"273 663 LINE",
"251 657 LINE SMOOTH",
"196 642 OFFCURVE",
"177 580 OFFCURVE",
"139 481 CURVE",
"115 418 OFFCURVE",
"105 380 OFFCURVE",
"105 332 CURVE",
"105 0 LINE",
"30 0 LINE",
"30 730 LINE"
);
},
{
closed = 1;
nodes = (
"108 404 LINE",
"120 393 LINE",
"207 401 LINE",
"273 0 LINE",
"192 0 LINE",
"155 283 LINE SMOOTH",
"145 361 OFFCURVE",
"135 377 OFFCURVE",
"105 372 CURVE"
);
}
);
width = 278;
},
{
associatedMasterId = master01;
layerId = "38AB788E-71F3-4886-B5A8-D17E659F17F0";
name = foreground;
paths = (
{
closed = 1;
nodes = (
"105 730 LINE",
"105 649 LINE",
"81 413 LINE",
"91 411 LINE",
"183 730 LINE",
"273 730 LINE",
"273 663 LINE",
"251 657 LINE SMOOTH",
"196 642 OFFCURVE",
"177 580 OFFCURVE",
"139 481 CURVE",
"115 418 OFFCURVE",
"105 380 OFFCURVE",
"105 332 CURVE",
"105 0 LINE",
"30 0 LINE",
"30 730 LINE"
);
},
{
closed = 1;
nodes = (
"108 404 LINE",
"120 393 LINE",
"207 401 LINE",
"273 0 LINE",
"192 0 LINE",
"155 283 LINE SMOOTH",
"145 361 OFFCURVE",
"135 377 OFFCURVE",
"105 372 CURVE"
);
}
);
width = 278;
}
);
rightKerningGroup = K;
unicode = 004B;
},
{
glyphname = L;
layers = (
{
layerId = master01;
paths = (
{
closed = 1;
nodes = (
"30 0 LINE",
"105 0 LINE",
"105 730 LINE",
"30 730 LINE"
);
},
{
closed = 1;
nodes = (
"41 0 LINE",
"213 0 LINE",
"213 65 LINE",
"41 65 LINE"
);
}
);
width = 223;
},
{
associatedMasterId = master01;
layerId = "640E8946-DD54-4A49-A85F-B6387629BA75";
name = foreground;
paths = (
{
closed = 1;
nodes = (
"30 0 LINE",
"105 0 LINE",
"105 730 LINE",
"30 730 LINE"
);
},
{
closed = 1;
nodes = (
"41 0 LINE",
"213 0 LINE",
"213 65 LINE",
"41 65 LINE"
);
}
);
width = 223;
}
);
rightKerningGroup = L;
unicode = 004C;
},
{
glyphname = Lslash;
layers = (
{
components = (
{
name = L;
}
);
layerId = master01;
paths = (
{
closed = 1;
nodes = (
"0 296 LINE",
"184 410 LINE",
"184 436 LINE",
"0 322 LINE"
);
}
);
width = 223;
},
{
associatedMasterId = master01;
components = (
{
name = L;
}
);
layerId = "F3F7E9B7-157A-4924-8CEE-6613941D89AF";
name = foreground;
paths = (
{
closed = 1;
nodes = (
"0 296 LINE",
"184 410 LINE",
"184 436 LINE",
"0 322 LINE"
);
}
);
width = 223;
}
);
rightKerningGroup = Lslash;
unicode = 0141;
},
{
glyphname = M;
layers = (
{
layerId = master01;
paths = (
{
closed = 1;
nodes = (
"105 730 LINE",
"100 522 LINE",
"77 522 LINE",
"104 0 LINE",
"25 0 LINE",
"35 730 LINE"
);
},
{
closed = 1;
nodes = (
"110 730 LINE",
"190 257 LINE",
"201 257 LINE",
"193 50 LINE",
"170 50 LINE",
"51 730 LINE"
);
},
{
closed = 1;
nodes = (
"259 730 LINE",
"285 730 LINE",
"193 50 LINE",
"170 50 LINE",
"201 257 LINE"
);
},
{
closed = 1;
nodes = (
"261 730 LINE",
"322 730 LINE",
"332 0 LINE",
"255 0 LINE",
"268 522 LINE",
"242 522 LINE"
);
}
);
width = 357;
},
{
associatedMasterId = master01;
layerId = "47DC585F-0CE5-4430-A153-601F33451A09";
name = foreground;
paths = (
{
closed = 1;
nodes = (
"105 730 LINE",
"100 522 LINE",
"77 522 LINE",
"104 0 LINE",
"25 0 LINE",
"35 730 LINE"
);
},
{
closed = 1;
nodes = (
"110 730 LINE",
"190 257 LINE",
"201 257 LINE",
"193 50 LINE",
"170 50 LINE",
"51 730 LINE"
);
},
{
closed = 1;
nodes = (
"259 730 LINE",
"285 730 LINE",
"193 50 LINE",
"170 50 LINE",
"201 257 LINE"
);
},
{
closed = 1;
nodes = (
"261 730 LINE",
"322 730 LINE",
"332 0 LINE",
"255 0 LINE",
"268 522 LINE",
"242 522 LINE"
);
}
);
width = 357;
}
);
unicode = 004D;
},
{
glyphname = N;
layers = (
{
anchors = (
{
name = top;
position = "{141, 760}";
}
);
layerId = master01;
paths = (
{
closed = 1;
nodes = (
"96 730 LINE",
"212 0 LINE",
"184 0 LINE",
"69 730 LINE"
);
},
{
closed = 1;
nodes = (
"85 730 LINE",
"93 607 LINE",
"76 607 LINE",
"90 376 LINE",
"96 0 LINE",
"25 0 LINE",
"25 730 LINE"
);
},
{
closed = 1;
nodes = (
"195 0 LINE",
"187 123 LINE",
"204 123 LINE",
"190 354 LINE",
"183 730 LINE",
"255 730 LINE",
"255 0 LINE"
);
}
);
width = 280;
},
{
anchors = (
{
name = top;
position = "{141, 760}";
}
);
associatedMasterId = master01;
layerId = "9FD7D056-2D44-45F8-8B4B-14F16796B53B";
name = foreground;
paths = (
{
closed = 1;
nodes = (
"96 730 LINE",
"212 0 LINE",
"184 0 LINE",
"69 730 LINE"
);
},
{
closed = 1;
nodes = (
"85 730 LINE",
"93 607 LINE",
"76 607 LINE",
"90 376 LINE",
"96 0 LINE",
"25 0 LINE",
"25 730 LINE"
);
},
{
closed = 1;
nodes = (
"195 0 LINE",
"187 123 LINE",
"204 123 LINE",
"190 354 LINE",
"183 730 LINE",
"255 730 LINE",
"255 0 LINE"
);
}
);
width = 280;
}
);
unicode = 004E;
},
{
glyphname = Eng;
lastChange = "2021-03-23 08:42:18 +0000";
layers = (
{
anchors = (
{
name = top;
position = "{141, 760}";
}
);
background = {
components = (
{
name = N;
},
{
name = J;
transform = "{1, 0, 0, 1, 145, 0}";
}
);
};
layerId = master01;
paths = (
{
closed = 1;
nodes = (
"85 730 LINE",
"93 607 LINE",
"76 607 LINE",
"90 376 LINE",
"96 0 LINE",
"25 0 LINE",
"25 730 LINE"
);
},
{
closed = 1;
nodes = (
"187 123 LINE",
"204 123 LINE",
"190 354 LINE",
"183 730 LINE",
"255 730 LINE",
"255 139 LINE SMOOTH",
"255 -8 OFFCURVE",
"169 -130 OFFCURVE",
"106 -130 CURVE",
"86 -130 LINE",
"86 -53 LINE",
"105 -55 OFFCURVE",
"119 -57 OFFCURVE",
"142 -57 CURVE",
"165 -57 OFFCURVE",
"180 -49 OFFCURVE",
"180 -19 CURVE SMOOTH",
"180 6 LINE SMOOTH",
"180 21 OFFCURVE",
"179 36 OFFCURVE",
"176 52 CURVE SMOOTH",
"69 730 LINE",
"96 730 LINE",
"212 0 LINE",
"192 42 LINE"
);
}
);
width = 280;
}
);
unicode = 014A;
},
{
glyphname = O;
layers = (
{
anchors = (
{
name = top;
position = "{147, 760}";
}
);
layerId = master01;
paths = (
{
closed = 1;
nodes = (
"112 672 OFFCURVE",
"105 650 OFFCURVE",
"105 615 CURVE",
"105 141 LINE SMOOTH",
"105 69 OFFCURVE",
"125 58 OFFCURVE",
"149 58 CURVE",
"175 58 OFFCURVE",
"181 80 OFFCURVE",
"181 115 CURVE",
"181 589 LINE SMOOTH",
"181 661 OFFCURVE",
"162 672 OFFCURVE",
"142 672 CURVE SMOOTH"
);
},
{
closed = 1;
nodes = (
"68 -10 OFFCURVE",
"30 21 OFFCURVE",
"30 107 CURVE",
"30 605 LINE SMOOTH",
"30 703 OFFCURVE",
"84 740 OFFCURVE",
"149 740 CURVE",
"219 740 OFFCURVE",
"256 709 OFFCURVE",
"256 623 CURVE",
"256 125 LINE SMOOTH",
"256 27 OFFCURVE",
"202 -10 OFFCURVE",
"137 -10 CURVE SMOOTH"
);
}
);
width = 286;
},
{
anchors = (
{
name = top;
position = "{147, 760}";
}
);
associatedMasterId = master01;
layerId = "EBE8AC2E-3EB9-458D-A800-E00729ADE739";
name = foreground;
paths = (
{
closed = 1;
nodes = (
"112 672 OFFCURVE",
"105 650 OFFCURVE",
"105 615 CURVE",
"105 141 LINE SMOOTH",
"105 69 OFFCURVE",
"125 58 OFFCURVE",
"149 58 CURVE",
"175 58 OFFCURVE",
"181 80 OFFCURVE",
"181 115 CURVE",
"181 589 LINE SMOOTH",
"181 661 OFFCURVE",
"162 672 OFFCURVE",
"142 672 CURVE SMOOTH"
);
},
{
closed = 1;
nodes = (
"68 -10 OFFCURVE",
"30 21 OFFCURVE",
"30 107 CURVE",
"30 605 LINE SMOOTH",
"30 703 OFFCURVE",
"84 740 OFFCURVE",
"149 740 CURVE",
"219 740 OFFCURVE",
"256 709 OFFCURVE",
"256 623 CURVE",
"256 125 LINE SMOOTH",
"256 27 OFFCURVE",
"202 -10 OFFCURVE",
"137 -10 CURVE SMOOTH"
);
}
);
width = 286;
}
);
leftKerningGroup = C;
rightKerningGroup = Eth;
unicode = 004F;
},
{
glyphname = Oslash;
layers = (
{
anchors = (
{
name = top;
position = "{147, 760}";
}
);
components = (
{
name = O;
}
);
layerId = master01;
paths = (
{
closed = 1;
nodes = (
"22 0 LINE",
"0 0 LINE",
"264 730 LINE",
"286 730 LINE"
);
}
);
width = 286;
},
{
anchors = (
{
name = top;
position = "{147, 760}";
}
);
associatedMasterId = master01;
components = (
{
name = O;
}
);
layerId = "A2D7BB23-1B85-40D4-89DF-4EDA4D807C24";
name = foreground;
paths = (
{
closed = 1;
nodes = (
"22 0 LINE",
"0 0 LINE",
"264 730 LINE",
"286 730 LINE"
);
}
);
width = 286;
}
);
leftKerningGroup = C;
rightKerningGroup = Eth;
unicode = 00D8;
},
{
glyphname = OE;
layers = (
{
anchors = (
{
name = top;
position = "{159, -30}";
}
);
components = (
{
name = D;
transform = "{-1, 0, 0, -1, 286, 730}";
}
);
layerId = master01;
paths = (
{
closed = 1;
nodes = (
"192 730 LINE",
"354 730 LINE",
"354 665 LINE",
"192 665 LINE"
);
},
{
closed = 1;
nodes = (
"233 374 LINE",
"233 394 LINE",
"327 394 LINE",
"327 374 LINE"
);
},
{
closed = 1;
nodes = (
"192 65 LINE",
"364 65 LINE",
"364 0 LINE",
"192 0 LINE"
);
}
);
width = 379;
},
{
anchors = (
{
name = top;
position = "{159, -30}";
}
);
associatedMasterId = master01;
components = (
{
name = D;
transform = "{-1, 0, 0, -1, 286, 730}";
}
);
layerId = "C269FB52-169A-432A-A9A5-5BDC52F3E8D8";
name = foreground;
paths = (
{
closed = 1;
nodes = (
"192 730 LINE",
"354 730 LINE",
"354 665 LINE",
"192 665 LINE"
);
},
{
closed = 1;
nodes = (
"233 374 LINE",
"233 394 LINE",
"327 394 LINE",
"327 374 LINE"
);
},
{
closed = 1;
nodes = (
"192 65 LINE",
"364 65 LINE",
"364 0 LINE",
"192 0 LINE"
);
}
);
width = 379;
}
);
leftKerningGroup = C;
rightKerningGroup = E;
unicode = 0152;
},
{
glyphname = P;
layers = (
{
layerId = master01;
paths = (
{
closed = 1;
nodes = (
"62 210 LINE",
"62 210 OFFCURVE",
"107 210 OFFCURVE",
"107 210 CURVE",
"188 210 OFFCURVE",
"256 247 OFFCURVE",
"256 345 CURVE",
"256 604 LINE SMOOTH",
"256 695 OFFCURVE",
"206 730 OFFCURVE",
"120 730 CURVE",
"71 730 LINE",
"71 662 LINE",
"71 662 OFFCURVE",
"113 662 OFFCURVE",
"113 662 CURVE",
"163 662 OFFCURVE",
"181 644 OFFCURVE",
"181 579 CURVE",
"181 335 LINE SMOOTH",
"181 300 OFFCURVE",
"169 278 OFFCURVE",
"120 278 CURVE",
"62 278 LINE"
);
},
{
closed = 1;
nodes = (
"30 0 LINE",
"105 0 LINE",
"105 730 LINE",
"30 730 LINE"
);
}
);
width = 286;
},
{
associatedMasterId = master01;
layerId = "D196E919-C457-424E-89BB-AAB655D047FF";
name = foreground;
paths = (
{
closed = 1;
nodes = (
"62 210 LINE",
"62 210 OFFCURVE",
"107 210 OFFCURVE",
"107 210 CURVE",
"188 210 OFFCURVE",
"256 247 OFFCURVE",
"256 345 CURVE",
"256 604 LINE SMOOTH",
"256 695 OFFCURVE",
"206 730 OFFCURVE",
"120 730 CURVE",
"71 730 LINE",
"71 662 LINE",
"71 662 OFFCURVE",
"113 662 OFFCURVE",
"113 662 CURVE",
"163 662 OFFCURVE",
"181 644 OFFCURVE",
"181 579 CURVE",
"181 335 LINE SMOOTH",
"181 300 OFFCURVE",
"169 278 OFFCURVE",
"120 278 CURVE",
"62 278 LINE"
);
},
{
closed = 1;
nodes = (
"30 0 LINE",
"105 0 LINE",
"105 730 LINE",
"30 730 LINE"
);
}
);
width = 286;
}
);
rightKerningGroup = P;
unicode = 0050;
},
{
glyphname = Thorn;
layers = (
{
layerId = master01;
paths = (
{
closed = 1;
nodes = (
"105 730 LINE",
"105 0 LINE",
"30 0 LINE",
"30 730 LINE"
);
},
{
closed = 1;
nodes = (
"120 178 LINE",
"169 178 OFFCURVE",
"181 200 OFFCURVE",
"181 235 CURVE",
"181 479 LINE SMOOTH",
"181 544 OFFCURVE",
"163 562 OFFCURVE",
"113 562 CURVE",
"113 562 OFFCURVE",
"71 562 OFFCURVE",
"71 562 CURVE",
"71 630 LINE",
"120 630 LINE SMOOTH",
"206 630 OFFCURVE",
"256 595 OFFCURVE",
"256 504 CURVE",
"256 245 LINE SMOOTH",
"256 147 OFFCURVE",
"188 110 OFFCURVE",
"107 110 CURVE",
"107 110 OFFCURVE",
"62 110 OFFCURVE",
"62 110 CURVE",
"62 178 LINE"
);
}
);
width = 286;
},
{
associatedMasterId = master01;
layerId = "773C8FB6-00E2-40D0-8C63-8EFCAD6236D0";
name = foreground;
paths = (
{
closed = 1;
nodes = (
"105 730 LINE",
"105 0 LINE",
"30 0 LINE",
"30 730 LINE"
);
},
{
closed = 1;
nodes = (
"120 178 LINE",
"169 178 OFFCURVE",
"181 200 OFFCURVE",
"181 235 CURVE",
"181 479 LINE SMOOTH",
"181 544 OFFCURVE",
"163 562 OFFCURVE",
"113 562 CURVE",
"113 562 OFFCURVE",
"71 562 OFFCURVE",
"71 562 CURVE",
"71 630 LINE",
"120 630 LINE SMOOTH",
"206 630 OFFCURVE",
"256 595 OFFCURVE",
"256 504 CURVE",
"256 245 LINE SMOOTH",
"256 147 OFFCURVE",
"188 110 OFFCURVE",
"107 110 CURVE",
"107 110 OFFCURVE",
"62 110 OFFCURVE",
"62 110 CURVE",
"62 178 LINE"
);
}
);
width = 286;
}
);
rightKerningGroup = Thorn;
unicode = 00DE;
},
{
glyphname = Q;
layers = (
{
anchors = (
{
name = top;
position = "{147, 760}";
}
);
layerId = master01;
paths = (
{
closed = 1;
nodes = (
"112 672 OFFCURVE",
"105 650 OFFCURVE",
"105 615 CURVE",
"105 151 LINE SMOOTH",
"105 79 OFFCURVE",
"125 68 OFFCURVE",
"149 68 CURVE",
"175 68 OFFCURVE",
"181 99 OFFCURVE",
"181 148 CURVE",
"181 589 LINE SMOOTH",
"181 661 OFFCURVE",
"162 672 OFFCURVE",
"142 672 CURVE SMOOTH"
);
},
{
closed = 1;
nodes = (
"137 0 LINE",
"68 0 OFFCURVE",
"30 31 OFFCURVE",
"30 117 CURVE",
"30 605 LINE SMOOTH",
"30 703 OFFCURVE",
"84 740 OFFCURVE",
"149 740 CURVE",
"219 740 OFFCURVE",
"256 709 OFFCURVE",
"256 623 CURVE",
"256 163 LINE SMOOTH",
"256 86 OFFCURVE",
"218 34 OFFCURVE",
"163 27 CURVE",
"163 17 LINE",
"207 18 OFFCURVE",
"249 36 OFFCURVE",
"293 126 CURVE",
"293 0 LINE"
);
}
);
width = 298;
},
{
anchors = (
{
name = top;
position = "{147, 760}";
}
);
associatedMasterId = master01;
layerId = "9FFE2FC1-65DD-4CC5-A306-1536933A7F01";
name = foreground;
paths = (
{
closed = 1;
nodes = (
"112 672 OFFCURVE",
"105 650 OFFCURVE",
"105 615 CURVE",
"105 151 LINE SMOOTH",
"105 79 OFFCURVE",
"125 68 OFFCURVE",
"149 68 CURVE",
"175 68 OFFCURVE",
"181 99 OFFCURVE",
"181 148 CURVE",
"181 589 LINE SMOOTH",
"181 661 OFFCURVE",
"162 672 OFFCURVE",
"142 672 CURVE SMOOTH"
);
},
{
closed = 1;
nodes = (
"137 0 LINE",
"68 0 OFFCURVE",
"30 31 OFFCURVE",
"30 117 CURVE",
"30 605 LINE SMOOTH",
"30 703 OFFCURVE",
"84 740 OFFCURVE",
"149 740 CURVE",
"219 740 OFFCURVE",
"256 709 OFFCURVE",
"256 623 CURVE",
"256 163 LINE SMOOTH",
"256 86 OFFCURVE",
"218 34 OFFCURVE",
"163 27 CURVE",
"163 17 LINE",
"207 18 OFFCURVE",
"249 36 OFFCURVE",
"293 126 CURVE",
"293 0 LINE"
);
}
);
width = 298;
}
);
leftKerningGroup = C;
rightKerningGroup = Q;
unicode = 0051;
},
{
glyphname = R;
lastChange = "2021-03-23 09:00:28 +0000";
layers = (
{
anchors = (
{
name = top;
position = "{137, 760}";
}
);
layerId = master01;
paths = (
{
closed = 1;
nodes = (
"105 730 LINE",
"105 0 LINE",
"30 0 LINE",
"30 730 LINE"
);
},
{
closed = 1;
nodes = (
"124 299 LINE",
"169 318 OFFCURVE",
"181 340 OFFCURVE",
"181 375 CURVE",
"181 579 LINE SMOOTH",
"181 644 OFFCURVE",
"163 662 OFFCURVE",
"113 662 CURVE",
"113 662 OFFCURVE",
"71 662 OFFCURVE",
"71 662 CURVE",
"71 730 LINE",
"120 730 LINE SMOOTH",
"206 730 OFFCURVE",
"256 695 OFFCURVE",
"256 604 CURVE",
"256 435 LINE SMOOTH",
"256 345 OFFCURVE",
"197 311 OFFCURVE",
"128 281 CURVE",
"78 259 LINE",
"71 276 LINE"
);
},
{
closed = 1;
nodes = (
"153 298 LINE",
"154 281 LINE",
"215 289 LINE",
"271 0 LINE",
"195 0 LINE",
"157 240 LINE SMOOTH",
"153 265 OFFCURVE",
"136 278 OFFCURVE",
"105 264 CURVE",
"102 284 LINE"
);
}
);
width = 286;
},
{
associatedMasterId = master01;
layerId = "EB130BD5-0EF8-474C-BA02-1D1FDCB344F6";
name = foreground;
paths = (
{
closed = 1;
nodes = (
"105 730 LINE",
"105 0 LINE",
"30 0 LINE",
"30 730 LINE"
);
},
{
closed = 1;
nodes = (
"124 299 LINE",
"169 318 OFFCURVE",
"181 340 OFFCURVE",
"181 375 CURVE",
"181 579 LINE SMOOTH",
"181 644 OFFCURVE",
"163 662 OFFCURVE",
"113 662 CURVE",
"113 662 OFFCURVE",
"71 662 OFFCURVE",
"71 662 CURVE",
"71 730 LINE",
"120 730 LINE SMOOTH",
"206 730 OFFCURVE",
"256 695 OFFCURVE",
"256 604 CURVE",
"256 435 LINE SMOOTH",
"256 345 OFFCURVE",
"197 311 OFFCURVE",
"128 281 CURVE",
"78 259 LINE",
"71 276 LINE"
);
},
{
closed = 1;
nodes = (
"153 298 LINE",
"154 281 LINE",
"215 289 LINE",
"271 0 LINE",
"195 0 LINE",
"157 240 LINE SMOOTH",
"153 265 OFFCURVE",
"136 278 OFFCURVE",
"105 264 CURVE",
"102 284 LINE"
);
}
);
width = 286;
}
);
rightKerningGroup = R;
unicode = 0052;
},
{
glyphname = S;
lastChange = "2021-03-23 09:00:45 +0000";
layers = (
{
anchors = (
{
name = bottom;
position = "{118, 0}";
},
{
name = top;
position = "{127, 750}";
}
);
layerId = master01;
paths = (
{
closed = 1;
nodes = (
"51 -10 OFFCURVE",
"23 21 OFFCURVE",
"23 83 CURVE",
"23 147 OFFCURVE",
"25 220 OFFCURVE",
"34 275 CURVE",
"106 275 LINE",
"61 189 OFFCURVE",
"42 127 OFFCURVE",
"42 95 CURVE",
"42 66 OFFCURVE",
"61 58 OFFCURVE",
"110 58 CURVE",
"143 58 OFFCURVE",
"151 78 OFFCURVE",
"151 104 CURVE",
"151 236 OFFCURVE",
"18 470 OFFCURVE",
"18 614 CURVE",
"18 703 OFFCURVE",
"71 740 OFFCURVE",
"134 740 CURVE",
"186 740 OFFCURVE",
"211 709 OFFCURVE",
"211 647 CURVE",
"211 609 OFFCURVE",
"211 533 OFFCURVE",
"200 465 CURVE",
"134 465 LINE",
"179 574 OFFCURVE",
"192 610 OFFCURVE",
"192 637 CURVE",
"192 664 OFFCURVE",
"176 672 OFFCURVE",
"134 672 CURVE",
"101 672 OFFCURVE",
"93 652 OFFCURVE",
"93 626 CURVE",
"93 513 OFFCURVE",
"226 229 OFFCURVE",
"226 113 CURVE",
"226 27 OFFCURVE",
"173 -10 OFFCURVE",
"110 -10 CURVE SMOOTH"
);
}
);
width = 243;
},
{
anchors = (
{
name = bottom;
position = "{118, 0}";
},
{
name = top;
position = "{127, 750}";
}
);
associatedMasterId = master01;
layerId = "B25FDF2E-2294-4839-8570-67ACDFAD9BDE";
name = foreground;
paths = (
{
closed = 1;
nodes = (
"173 -10 OFFCURVE",
"226 27 OFFCURVE",
"226 113 CURVE",
"226 229 OFFCURVE",
"93 513 OFFCURVE",
"93 626 CURVE",
"93 652 OFFCURVE",
"101 672 OFFCURVE",
"134 672 CURVE",
"176 672 OFFCURVE",
"192 664 OFFCURVE",
"192 637 CURVE",
"192 610 OFFCURVE",
"179 574 OFFCURVE",
"134 465 CURVE",
"200 465 LINE",
"211 533 OFFCURVE",
"211 609 OFFCURVE",
"211 647 CURVE",
"211 709 OFFCURVE",
"186 740 OFFCURVE",
"134 740 CURVE",
"71 740 OFFCURVE",
"18 703 OFFCURVE",
"18 614 CURVE",
"18 470 OFFCURVE",
"151 236 OFFCURVE",
"151 104 CURVE",
"151 78 OFFCURVE",
"143 58 OFFCURVE",
"110 58 CURVE",
"61 58 OFFCURVE",
"42 66 OFFCURVE",
"42 95 CURVE",
"42 127 OFFCURVE",
"61 189 OFFCURVE",
"106 275 CURVE",
"34 275 LINE",
"25 220 OFFCURVE",
"23 147 OFFCURVE",
"23 83 CURVE",
"23 21 OFFCURVE",
"51 -10 OFFCURVE",
"110 -10 CURVE SMOOTH"
);
}
);
width = 243;
}
);
leftKerningGroup = Scaron;
rightKerningGroup = Scaron;
unicode = 0053;
},
{
glyphname = T;
lastChange = "2021-03-23 08:43:14 +0000";
layers = (
{
layerId = master01;
paths = (
{
closed = 1;
nodes = (
"163 730 LINE",
"163 0 LINE",
"88 0 LINE",
"88 730 LINE"
);
},
{
closed = 1;
nodes = (
"5 730 LINE",
"246 730 LINE",
"246 665 LINE",
"5 665 LINE"
);
}
);
width = 251;
},
{
associatedMasterId = master01;
layerId = "C8CEC609-BD53-4F09-B480-E3E3CF2515D2";
name = foreground;
paths = (
{
closed = 1;
nodes = (
"158 730 LINE",
"158 0 LINE",
"83 0 LINE",
"83 730 LINE"
);
},
{
closed = 1;
nodes = (
"0 730 LINE",
"241 730 LINE",
"241 665 LINE",
"0 665 LINE"
);
}
);
width = 246;
}
);
leftKerningGroup = T;
unicode = 0054;
},
{
glyphname = Tbar;
lastChange = "2021-03-23 08:43:33 +0000";
layers = (
{
components = (
{
name = T;
}
);
layerId = master01;
paths = (
{
closed = 1;
nodes = (
"15 354 LINE",
"15 374 LINE",
"237 374 LINE",
"237 354 LINE"
);
}
);
width = 251;
}
);
leftMetricsKey = "=T@10";
rightMetricsKey = "=T@10";
unicode = 0166;
},
{
glyphname = U;
layers = (
{
anchors = (
{
name = bottom;
position = "{125, 0}";
},
{
name = top;
position = "{144, 760}";
}
);
layerId = master01;
paths = (
{
closed = 1;
nodes = (
"181 730 LINE",
"256 730 LINE",
"256 125 LINE SMOOTH",
"256 27 OFFCURVE",
"202 -10 OFFCURVE",
"137 -10 CURVE",
"68 -10 OFFCURVE",
"30 21 OFFCURVE",
"30 107 CURVE",
"30 730 LINE",
"105 730 LINE",
"105 141 LINE SMOOTH",
"105 69 OFFCURVE",
"125 58 OFFCURVE",
"149 58 CURVE",
"175 58 OFFCURVE",
"181 80 OFFCURVE",
"181 115 CURVE"
);
}
);
width = 286;
},
{
anchors = (
{
name = bottom;
position = "{125, 0}";
},
{
name = top;
position = "{144, 760}";
}
);
associatedMasterId = master01;
layerId = "17DAF94E-244D-441F-B7A5-028B40692420";
name = foreground;
paths = (
{
closed = 1;
nodes = (
"181 730 LINE",
"256 730 LINE",
"256 125 LINE SMOOTH",
"256 27 OFFCURVE",
"202 -10 OFFCURVE",
"137 -10 CURVE",
"68 -10 OFFCURVE",
"30 21 OFFCURVE",
"30 107 CURVE",
"30 730 LINE",
"105 730 LINE",
"105 141 LINE SMOOTH",
"105 69 OFFCURVE",
"125 58 OFFCURVE",
"149 58 CURVE",
"175 58 OFFCURVE",
"181 80 OFFCURVE",
"181 115 CURVE"
);
}
);
width = 286;
}
);
leftKerningGroup = U;
rightKerningGroup = J;
unicode = 0055;
},
{
glyphname = Uogonek;
layers = (
{
anchors = (
{
name = bottom;
position = "{125, 0}";
},
{
name = top;
position = "{144, 760}";
}
);
components = (
{
name = U;
},
{
name = ogonek;
transform = "{1, 0, 0, 1, 39, 0}";
}
);
layerId = master01;
paths = (
{
closed = 1;
nodes = (
"134 -21 LINE",
"128 -7 LINE",
"150 -2 LINE"
);
}
);
width = 286;
},
{
anchors = (
{
name = bottom;
position = "{125, 0}";
},
{
name = top;
position = "{144, 760}";
}
);
associatedMasterId = master01;
components = (
{
name = U;
},
{
name = ogonek;
transform = "{1, 0, 0, 1, 39, 0}";
}
);
layerId = "7D0F52F5-EB42-41E6-89BC-6BA0C1B04521";
name = foreground;
paths = (
{
closed = 1;
nodes = (
"134 -21 LINE",
"128 -7 LINE",
"150 -2 LINE"
);
}
);
width = 286;
}
);
leftKerningGroup = U;
rightKerningGroup = J;
unicode = 0172;
},
{
glyphname = V;
layers = (
{
layerId = master01;
paths = (
{
closed = 1;
nodes = (
"84 730 LINE",
"124 419 LINE",
"143 219 LINE",
"154 219 LINE",
"150 0 LINE",
"122 0 LINE",
"0 730 LINE"
);
},
{
closed = 1;
nodes = (
"188 730 LINE",
"278 730 LINE",
"150 0 LINE",
"122 0 LINE",
"154 219 LINE"
);
}
);
width = 278;
},
{
associatedMasterId = master01;
layerId = "4765A5EF-77A6-4E3A-A3E3-234710C3912B";
name = foreground;
paths = (
{
closed = 1;
nodes = (
"84 730 LINE",
"124 419 LINE",
"143 219 LINE",
"154 219 LINE",
"150 0 LINE",
"122 0 LINE",
"0 730 LINE"
);
},
{
closed = 1;
nodes = (
"188 730 LINE",
"278 730 LINE",
"150 0 LINE",
"122 0 LINE",
"154 219 LINE"
);
}
);
width = 278;
}
);
leftKerningGroup = V;
rightKerningGroup = V;
unicode = 0056;
},
{
glyphname = W;
layers = (
{
layerId = master01;
paths = (
{
closed = 1;
nodes = (
"84 730 LINE",
"124 419 LINE",
"134 219 LINE",
"145 219 LINE",
"150 0 LINE",
"122 0 LINE",
"0 730 LINE"
);
},
{
closed = 1;
nodes = (
"185 730 LINE",
"214 730 LINE",
"150 0 LINE",
"122 0 LINE",
"145 219 LINE"
);
},
{
closed = 1;
nodes = (
"234 730 LINE",
"264 419 LINE",
"283 219 LINE",
"294 219 LINE",
"290 0 LINE",
"262 0 LINE",
"200 489 LINE",
"181 489 LINE",
"197 730 LINE"
);
},
{
closed = 1;
nodes = (
"328 730 LINE",
"418 730 LINE",
"290 0 LINE",
"262 0 LINE",
"294 219 LINE"
);
}
);
width = 418;
},
{
associatedMasterId = master01;
layerId = "E1172E3B-3444-4D08-9DD2-6991EE0386BE";
name = foreground;
paths = (
{
closed = 1;
nodes = (
"84 730 LINE",
"124 419 LINE",
"134 219 LINE",
"145 219 LINE",
"150 0 LINE",
"122 0 LINE",
"0 730 LINE"
);
},
{
closed = 1;
nodes = (
"185 730 LINE",
"214 730 LINE",
"150 0 LINE",
"122 0 LINE",
"145 219 LINE"
);
},
{
closed = 1;
nodes = (
"234 730 LINE",
"264 419 LINE",
"283 219 LINE",
"294 219 LINE",
"290 0 LINE",
"262 0 LINE",
"200 489 LINE",
"181 489 LINE",
"197 730 LINE"
);
},
{
closed = 1;
nodes = (
"328 730 LINE",
"418 730 LINE",
"290 0 LINE",
"262 0 LINE",
"294 219 LINE"
);
}
);
width = 418;
}
);
leftKerningGroup = W;
rightKerningGroup = W;
unicode = 0057;
},
{
glyphname = X;
layers = (
{
layerId = master01;
paths = (
{
closed = 1;
nodes = (
"84 0 LINE",
"0 0 LINE",
"116 441 LINE",
"115 328 LINE"
);
},
{
closed = 1;
nodes = (
"124 328 LINE",
"115 328 LINE",
"4 730 LINE",
"88 730 LINE",
"121 580 LINE",
"145 451 LINE",
"156 451 LINE",
"265 0 LINE",
"181 0 LINE",
"148 169 LINE"
);
},
{
closed = 1;
nodes = (
"179 730 LINE",
"263 730 LINE",
"152 336 LINE",
"156 451 LINE"
);
}
);
width = 265;
},
{
associatedMasterId = master01;
layerId = "A971DEA2-ADC9-47F1-96F7-39FAAA9B6B3A";
name = foreground;
paths = (
{
closed = 1;
nodes = (
"84 0 LINE",
"0 0 LINE",
"116 441 LINE",
"115 328 LINE"
);
},
{
closed = 1;
nodes = (
"124 328 LINE",
"115 328 LINE",
"4 730 LINE",
"88 730 LINE",
"121 580 LINE",
"145 451 LINE",
"156 451 LINE",
"265 0 LINE",
"181 0 LINE",
"148 169 LINE"
);
},
{
closed = 1;
nodes = (
"179 730 LINE",
"263 730 LINE",
"152 336 LINE",
"156 451 LINE"
);
}
);
width = 265;
}
);
leftKerningGroup = X;
rightKerningGroup = X;
unicode = 0058;
},
{
glyphname = Y;
layers = (
{
anchors = (
{
name = top;
position = "{137, 760}";
}
);
layerId = master01;
paths = (
{
closed = 1;
nodes = (
"84 730 LINE",
"124 453 LINE",
"143 276 LINE",
"154 276 LINE",
"150 80 LINE",
"122 80 LINE",
"0 730 LINE"
);
},
{
closed = 1;
nodes = (
"188 730 LINE",
"278 730 LINE",
"150 80 LINE",
"122 80 LINE",
"154 276 LINE"
);
},
{
closed = 1;
nodes = (
"174 234 LINE",
"174 0 LINE",
"99 0 LINE",
"99 234 LINE"
);
}
);
width = 278;
},
{
anchors = (
{
name = top;
position = "{137, 760}";
}
);
associatedMasterId = master01;
layerId = "163FC985-0CDE-485F-8B49-00BD4DF86302";
name = foreground;
paths = (
{
closed = 1;
nodes = (
"84 730 LINE",
"124 453 LINE",
"143 276 LINE",
"154 276 LINE",
"150 80 LINE",
"122 80 LINE",
"0 730 LINE"
);
},
{
closed = 1;
nodes = (
"188 730 LINE",
"278 730 LINE",
"150 80 LINE",
"122 80 LINE",
"154 276 LINE"
);
},
{
closed = 1;
nodes = (
"174 234 LINE",
"174 0 LINE",
"99 0 LINE",
"99 234 LINE"
);
}
);
width = 278;
}
);
leftKerningGroup = Yacute;
rightKerningGroup = Yacute;
unicode = 0059;
},
{
glyphname = Z;
layers = (
{
anchors = (
{
name = top;
position = "{115, 760}";
}
);
layerId = master01;
paths = (
{
closed = 1;
nodes = (
"209 730 LINE",
"84 73 LINE",
"92 62 LINE",
"5 0 LINE",
"130 657 LINE",
"122 668 LINE"
);
},
{
closed = 1;
nodes = (
"28 730 LINE",
"209 730 LINE",
"179 665 LINE",
"28 665 LINE"
);
},
{
closed = 1;
nodes = (
"36 65 LINE",
"217 65 LINE",
"217 0 LINE",
"6 0 LINE"
);
}
);
width = 226;
},
{
anchors = (
{
name = top;
position = "{115, 760}";
}
);
associatedMasterId = master01;
layerId = "D9148088-4FD4-46C1-853D-8CEEACFC07EA";
name = foreground;
paths = (
{
closed = 1;
nodes = (
"209 730 LINE",
"84 73 LINE",
"92 62 LINE",
"5 0 LINE",
"130 657 LINE",
"122 668 LINE"
);
},
{
closed = 1;
nodes = (
"28 730 LINE",
"209 730 LINE",
"179 665 LINE",
"28 665 LINE"
);
},
{
closed = 1;
nodes = (
"36 65 LINE",
"217 65 LINE",
"217 0 LINE",
"6 0 LINE"
);
}
);
width = 226;
}
);
leftKerningGroup = Zcaron;
rightKerningGroup = Zcaron;
unicode = 005A;
},
{
glyphname = A.2;
layers = (
{
anchors = (
{
name = top;
position = "{137, 760}";
}
);
layerId = master01;
paths = (
{
closed = 1;
nodes = (
"204 0 LINE",
"157 370 LINE",
"138 570 LINE",
"127 570 LINE",
"111 628 LINE",
"67 730 LINE",
"166 730 LINE",
"288 0 LINE"
);
},
{
closed = 1;
nodes = (
"90 0 LINE",
"0 0 LINE",
"128 730 LINE",
"156 730 LINE",
"127 570 LINE"
);
}
);
width = 288;
},
{
anchors = (
{
name = top;
position = "{137, 760}";
}
);
associatedMasterId = master01;
layerId = "81384162-D951-4CDF-8312-90D0200D18F6";
name = foreground;
paths = (
{
closed = 1;
nodes = (
"204 0 LINE",
"157 370 LINE",
"138 570 LINE",
"127 570 LINE",
"111 628 LINE",
"67 730 LINE",
"166 730 LINE",
"288 0 LINE"
);
},
{
closed = 1;
nodes = (
"90 0 LINE",
"0 0 LINE",
"128 730 LINE",
"156 730 LINE",
"127 570 LINE"
);
}
);
width = 288;
}
);
leftKerningGroup = A;
rightKerningGroup = A;
},
{
glyphname = AE.2;
layers = (
{
anchors = (
{
name = bottom_right;
position = "{501, 0}";
}
);
layerId = master01;
paths = (
{
closed = 1;
nodes = (
"204 0 LINE",
"157 370 LINE",
"138 570 LINE",
"127 570 LINE",
"111 628 LINE",
"67 730 LINE",
"166 730 LINE",
"278 0 LINE"
);
},
{
closed = 1;
nodes = (
"90 0 LINE",
"0 0 LINE",
"128 730 LINE",
"156 730 LINE",
"127 570 LINE"
);
},
{
closed = 1;
nodes = (
"143 730 LINE",
"327 730 LINE",
"327 665 LINE",
"143 665 LINE"
);
},
{
closed = 1;
nodes = (
"205 374 LINE",
"205 396 LINE",
"300 396 LINE",
"300 374 LINE"
);
},
{
closed = 1;
nodes = (
"215 65 LINE",
"337 65 LINE",
"337 0 LINE",
"215 0 LINE"
);
}
);
width = 352;
},
{
anchors = (
{
name = bottom_right;
position = "{501, 0}";
}
);
associatedMasterId = master01;
layerId = "80F656AB-AC15-4310-A253-F70F6DD5B68A";
name = foreground;
paths = (
{
closed = 1;
nodes = (
"204 0 LINE",
"157 370 LINE",
"138 570 LINE",
"127 570 LINE",
"111 628 LINE",
"67 730 LINE",
"166 730 LINE",
"278 0 LINE"
);
},
{
closed = 1;
nodes = (
"90 0 LINE",
"0 0 LINE",
"128 730 LINE",
"156 730 LINE",
"127 570 LINE"
);
},
{
closed = 1;
nodes = (
"143 730 LINE",
"327 730 LINE",
"327 665 LINE",
"143 665 LINE"
);
},
{
closed = 1;
nodes = (
"205 374 LINE",
"205 396 LINE",
"300 396 LINE",
"300 374 LINE"
);
},
{
closed = 1;
nodes = (
"215 65 LINE",
"337 65 LINE",
"337 0 LINE",
"215 0 LINE"
);
}
);
width = 352;
}
);
leftKerningGroup = A;
rightKerningGroup = E;
},
{
glyphname = C.2;
layers = (
{
layerId = master01;
paths = (
{
closed = 1;
nodes = (
"132 730 LINE",
"228 730 LINE",
"62 365 LINE",
"9 365 LINE",
"9 368 LINE"
);
},
{
closed = 1;
nodes = (
"132 0 LINE",
"9 362 LINE",
"9 365 LINE",
"62 365 LINE",
"229 0 LINE"
);
}
);
width = 229;
},
{
associatedMasterId = master01;
layerId = "BA5B3635-FC1D-4B36-9DFB-F4E7BF1CC21C";
name = foreground;
paths = (
{
closed = 1;
nodes = (
"132 730 LINE",
"228 730 LINE",
"62 365 LINE",
"9 365 LINE",
"9 368 LINE"
);
},
{
closed = 1;
nodes = (
"132 0 LINE",
"9 362 LINE",
"9 365 LINE",
"62 365 LINE",
"229 0 LINE"
);
}
);
width = 229;
}
);
leftKerningGroup = C.2;
rightKerningGroup = C.2;
},
{
glyphname = Ccedilla.2;
layers = (
{
components = (
{
name = C.2;
}
);
layerId = master01;
paths = (
{
closed = 1;
nodes = (
"150 -132 OFFCURVE",
"134 -111 OFFCURVE",
"125 -94 CURVE",
"129 -89 LINE",
"137 -95 OFFCURVE",
"143 -99 OFFCURVE",
"159 -99 CURVE",
"175 -99 OFFCURVE",
"183 -87 OFFCURVE",
"183 -76 CURVE",
"183 -63 OFFCURVE",
"177 -55 OFFCURVE",
"167 -55 CURVE",
"159 -55 OFFCURVE",
"155 -58 OFFCURVE",
"148 -64 CURVE",
"142 -59 LINE",
"170 -4 LINE",
"150 12 LINE",
"188 2 LINE",
"168 -37 LINE",
"172 -40 LINE",
"178 -38 OFFCURVE",
"185 -37 OFFCURVE",
"191 -37 CURVE",
"214 -37 OFFCURVE",
"233 -49 OFFCURVE",
"233 -77 CURVE",
"233 -109 OFFCURVE",
"209 -132 OFFCURVE",
"181 -132 CURVE SMOOTH"
);
}
);
width = 230;
},
{
associatedMasterId = master01;
components = (
{
name = C.2;
}
);
layerId = "74E7FBD4-EC62-4ED9-85E6-86FC204DBAD8";
name = foreground;
paths = (
{
closed = 1;
nodes = (
"150 -132 OFFCURVE",
"134 -111 OFFCURVE",
"125 -94 CURVE",
"129 -89 LINE",
"137 -95 OFFCURVE",
"143 -99 OFFCURVE",
"159 -99 CURVE",
"175 -99 OFFCURVE",
"183 -87 OFFCURVE",
"183 -76 CURVE",
"183 -63 OFFCURVE",
"177 -55 OFFCURVE",
"167 -55 CURVE",
"159 -55 OFFCURVE",
"155 -58 OFFCURVE",
"148 -64 CURVE",
"142 -59 LINE",
"170 -4 LINE",
"150 12 LINE",
"188 2 LINE",
"168 -37 LINE",
"172 -40 LINE",
"178 -38 OFFCURVE",
"185 -37 OFFCURVE",
"191 -37 CURVE",
"214 -37 OFFCURVE",
"233 -49 OFFCURVE",
"233 -77 CURVE",
"233 -109 OFFCURVE",
"209 -132 OFFCURVE",
"181 -132 CURVE SMOOTH"
);
}
);
width = 230;
}
);
leftKerningGroup = C.2;
rightKerningGroup = C.2;
},
{
glyphname = E.2;
layers = (
{
layerId = master01;
paths = (
{
closed = 1;
nodes = (
"98 730 LINE",
"204 730 LINE",
"74 517 LINE",
"5 517 LINE",
"5 519 LINE"
);
},
{
closed = 1;
nodes = (
"123 365 LINE",
"5 516 LINE",
"5 517 LINE",
"74 517 LINE",
"154 365 LINE"
);
},
{
closed = 1;
nodes = (
"123 365 LINE",
"153 365 LINE",
"74 212 LINE",
"5 212 LINE",
"5 214 LINE"
);
},
{
closed = 1;
nodes = (
"98 0 LINE",
"5 211 LINE",
"5 212 LINE",
"74 212 LINE",
"205 0 LINE"
);
}
);
width = 198;
},
{
associatedMasterId = master01;
layerId = "86CD27ED-D4C5-45C1-A94E-8A4A6E945FDD";
name = foreground;
paths = (
{
closed = 1;
nodes = (
"98 730 LINE",
"204 730 LINE",
"74 517 LINE",
"5 517 LINE",
"5 519 LINE"
);
},
{
closed = 1;
nodes = (
"123 365 LINE",
"5 516 LINE",
"5 517 LINE",
"74 517 LINE",
"154 365 LINE"
);
},
{
closed = 1;
nodes = (
"123 365 LINE",
"153 365 LINE",
"74 212 LINE",
"5 212 LINE",
"5 214 LINE"
);
},
{
closed = 1;
nodes = (
"98 0 LINE",
"5 211 LINE",
"5 212 LINE",
"74 212 LINE",
"205 0 LINE"
);
}
);
width = 198;
}
);
},
{
glyphname = K.2;
layers = (
{
layerId = master01;
paths = (
{
closed = 1;
nodes = (
"106 290 LINE",
"118 279 LINE",
"226 292 LINE",
"273 0 LINE",
"192 0 LINE",
"172 174 LINE SMOOTH",
"163 248 OFFCURVE",
"145 265 OFFCURVE",
"103 258 CURVE"
);
},
{
closed = 1;
nodes = (
"105 730 LINE",
"105 649 LINE",
"81 297 LINE",
"91 295 LINE",
"185 730 LINE",
"275 730 LINE",
"275 663 LINE",
"253 657 LINE SMOOTH",
"197 642 OFFCURVE",
"178 563 OFFCURVE",
"141 412 CURVE",
"120 325 OFFCURVE",
"105 277 OFFCURVE",
"105 214 CURVE",
"105 0 LINE",
"30 0 LINE",
"30 730 LINE"
);
}
);
width = 280;
},
{
associatedMasterId = master01;
layerId = "2D770C87-738E-46F8-A426-5CA35E7AA956";
name = foreground;
paths = (
{
closed = 1;
nodes = (
"106 290 LINE",
"118 279 LINE",
"226 292 LINE",
"273 0 LINE",
"192 0 LINE",
"172 174 LINE SMOOTH",
"163 248 OFFCURVE",
"145 265 OFFCURVE",
"103 258 CURVE"
);
},
{
closed = 1;
nodes = (
"105 730 LINE",
"105 649 LINE",
"81 297 LINE",
"91 295 LINE",
"185 730 LINE",
"275 730 LINE",
"275 663 LINE",
"253 657 LINE SMOOTH",
"197 642 OFFCURVE",
"178 563 OFFCURVE",
"141 412 CURVE",
"120 325 OFFCURVE",
"105 277 OFFCURVE",
"105 214 CURVE",
"105 0 LINE",
"30 0 LINE",
"30 730 LINE"
);
}
);
width = 280;
}
);
rightKerningGroup = K.2;
},
{
glyphname = K.3;
layers = (
{
layerId = master01;
paths = (
{
closed = 1;
nodes = (
"106 290 LINE",
"118 279 LINE",
"231 292 LINE",
"278 0 LINE",
"197 0 LINE",
"177 174 LINE SMOOTH",
"168 248 OFFCURVE",
"148 265 OFFCURVE",
"103 258 CURVE"
);
},
{
closed = 1;
nodes = (
"105 730 LINE",
"105 649 LINE",
"81 297 LINE",
"91 295 LINE",
"175 730 LINE",
"275 730 LINE",
"275 663 LINE",
"243 657 LINE SMOOTH",
"191 647 OFFCURVE",
"177 564 OFFCURVE",
"141 415 CURVE",
"120 327 OFFCURVE",
"105 278 OFFCURVE",
"105 214 CURVE",
"105 0 LINE",
"30 0 LINE",
"30 730 LINE"
);
},
{
closed = 1;
nodes = (
"104 293 LINE",
"122 287 LINE",
"193 506 LINE",
"275 506 LINE",
"275 454 LINE",
"253 448 LINE SMOOTH",
"207 435 OFFCURVE",
"194 417 OFFCURVE",
"169 357 CURVE",
"155 323 OFFCURVE",
"148 304 OFFCURVE",
"144 287 CURVE",
"158 279 LINE",
"100 276 LINE"
);
}
);
width = 288;
},
{
associatedMasterId = master01;
layerId = "5611C906-85FA-48BA-A111-30459DD2C019";
name = foreground;
paths = (
{
closed = 1;
nodes = (
"106 290 LINE",
"118 279 LINE",
"231 292 LINE",
"278 0 LINE",
"197 0 LINE",
"177 174 LINE SMOOTH",
"168 248 OFFCURVE",
"148 265 OFFCURVE",
"103 258 CURVE"
);
},
{
closed = 1;
nodes = (
"105 730 LINE",
"105 649 LINE",
"81 297 LINE",
"91 295 LINE",
"175 730 LINE",
"275 730 LINE",
"275 663 LINE",
"243 657 LINE SMOOTH",
"191 647 OFFCURVE",
"177 564 OFFCURVE",
"141 415 CURVE",
"120 327 OFFCURVE",
"105 278 OFFCURVE",
"105 214 CURVE",
"105 0 LINE",
"30 0 LINE",
"30 730 LINE"
);
},
{
closed = 1;
nodes = (
"104 293 LINE",
"122 287 LINE",
"193 506 LINE",
"275 506 LINE",
"275 454 LINE",
"253 448 LINE SMOOTH",
"207 435 OFFCURVE",
"194 417 OFFCURVE",
"169 357 CURVE",
"155 323 OFFCURVE",
"148 304 OFFCURVE",
"144 287 CURVE",
"158 279 LINE",
"100 276 LINE"
);
}
);
width = 288;
}
);
},
{
glyphname = M.2;
layers = (
{
layerId = master01;
paths = (
{
closed = 1;
nodes = (
"105 730 LINE",
"100 522 LINE",
"77 522 LINE",
"104 0 LINE",
"25 0 LINE",
"35 730 LINE"
);
},
{
closed = 1;
nodes = (
"411 730 LINE",
"472 730 LINE",
"482 0 LINE",
"405 0 LINE",
"418 522 LINE",
"392 522 LINE"
);
},
{
closed = 1;
nodes = (
"110 730 LINE",
"190 257 LINE",
"201 257 LINE",
"191 50 LINE",
"170 50 LINE",
"51 730 LINE"
);
},
{
closed = 1;
nodes = (
"239 730 LINE",
"280 730 LINE",
"246 545 LINE",
"201 50 LINE",
"170 50 LINE",
"201 257 LINE"
);
},
{
closed = 1;
nodes = (
"280 730 LINE",
"340 257 LINE",
"351 257 LINE",
"343 50 LINE",
"312 50 LINE",
"250 497 LINE",
"237 497 LINE"
);
},
{
closed = 1;
nodes = (
"411 730 LINE",
"435 730 LINE",
"343 50 LINE",
"312 50 LINE",
"351 257 LINE"
);
}
);
width = 507;
},
{
associatedMasterId = master01;
layerId = "AB53D2AD-D48F-4EC3-969E-77669BC4C107";
name = foreground;
paths = (
{
closed = 1;
nodes = (
"105 730 LINE",
"100 522 LINE",
"77 522 LINE",
"104 0 LINE",
"25 0 LINE",
"35 730 LINE"
);
},
{
closed = 1;
nodes = (
"411 730 LINE",
"472 730 LINE",
"482 0 LINE",
"405 0 LINE",
"418 522 LINE",
"392 522 LINE"
);
},
{
closed = 1;
nodes = (
"110 730 LINE",
"190 257 LINE",
"201 257 LINE",
"191 50 LINE",
"170 50 LINE",
"51 730 LINE"
);
},
{
closed = 1;
nodes = (
"239 730 LINE",
"280 730 LINE",
"246 545 LINE",
"201 50 LINE",
"170 50 LINE",
"201 257 LINE"
);
},
{
closed = 1;
nodes = (
"280 730 LINE",
"340 257 LINE",
"351 257 LINE",
"343 50 LINE",
"312 50 LINE",
"250 497 LINE",
"237 497 LINE"
);
},
{
closed = 1;
nodes = (
"411 730 LINE",
"435 730 LINE",
"343 50 LINE",
"312 50 LINE",
"351 257 LINE"
);
}
);
width = 507;
}
);
},
{
glyphname = M.3;
layers = (
{
layerId = master01;
paths = (
{
closed = 1;
nodes = (
"110 730 LINE",
"190 257 LINE",
"201 257 LINE",
"191 50 LINE",
"170 50 LINE",
"51 730 LINE"
);
},
{
closed = 1;
nodes = (
"239 730 LINE",
"280 730 LINE",
"246 545 LINE",
"201 50 LINE",
"170 50 LINE",
"201 257 LINE"
);
},
{
closed = 1;
nodes = (
"280 730 LINE",
"340 257 LINE",
"351 257 LINE",
"343 50 LINE",
"312 50 LINE",
"250 497 LINE",
"237 497 LINE"
);
},
{
closed = 1;
nodes = (
"389 730 LINE",
"430 730 LINE",
"396 545 LINE",
"351 50 LINE",
"320 50 LINE",
"351 257 LINE"
);
},
{
closed = 1;
nodes = (
"430 730 LINE",
"490 257 LINE",
"501 257 LINE",
"493 50 LINE",
"462 50 LINE",
"400 497 LINE",
"387 497 LINE"
);
},
{
closed = 1;
nodes = (
"561 730 LINE",
"585 730 LINE",
"493 50 LINE",
"462 50 LINE",
"501 257 LINE"
);
},
{
closed = 1;
nodes = (
"105 730 LINE",
"100 522 LINE",
"77 522 LINE",
"104 0 LINE",
"25 0 LINE",
"35 730 LINE"
);
},
{
closed = 1;
nodes = (
"561 730 LINE",
"622 730 LINE",
"632 0 LINE",
"555 0 LINE",
"568 522 LINE",
"542 522 LINE"
);
}
);
width = 657;
},
{
associatedMasterId = master01;
layerId = "3721B7CE-6535-4ED7-A504-1C84AD9EA1D1";
name = foreground;
paths = (
{
closed = 1;
nodes = (
"110 730 LINE",
"190 257 LINE",
"201 257 LINE",
"191 50 LINE",
"170 50 LINE",
"51 730 LINE"
);
},
{
closed = 1;
nodes = (
"239 730 LINE",
"280 730 LINE",
"246 545 LINE",
"201 50 LINE",
"170 50 LINE",
"201 257 LINE"
);
},
{
closed = 1;
nodes = (
"280 730 LINE",
"340 257 LINE",
"351 257 LINE",
"343 50 LINE",
"312 50 LINE",
"250 497 LINE",
"237 497 LINE"
);
},
{
closed = 1;
nodes = (
"389 730 LINE",
"430 730 LINE",
"396 545 LINE",
"351 50 LINE",
"320 50 LINE",
"351 257 LINE"
);
},
{
closed = 1;
nodes = (
"430 730 LINE",
"490 257 LINE",
"501 257 LINE",
"493 50 LINE",
"462 50 LINE",
"400 497 LINE",
"387 497 LINE"
);
},
{
closed = 1;
nodes = (
"561 730 LINE",
"585 730 LINE",
"493 50 LINE",
"462 50 LINE",
"501 257 LINE"
);
},
{
closed = 1;
nodes = (
"105 730 LINE",
"100 522 LINE",
"77 522 LINE",
"104 0 LINE",
"25 0 LINE",
"35 730 LINE"
);
},
{
closed = 1;
nodes = (
"561 730 LINE",
"622 730 LINE",
"632 0 LINE",
"555 0 LINE",
"568 522 LINE",
"542 522 LINE"
);
}
);
width = 657;
}
);
},
{
glyphname = M.4;
layers = (
{
layerId = master01;
paths = (
{
closed = 1;
nodes = (
"110 730 LINE",
"190 257 LINE",
"201 257 LINE",
"191 50 LINE",
"170 50 LINE",
"51 730 LINE"
);
},
{
closed = 1;
nodes = (
"239 730 LINE",
"280 730 LINE",
"246 545 LINE",
"201 50 LINE",
"170 50 LINE",
"201 257 LINE"
);
},
{
closed = 1;
nodes = (
"280 730 LINE",
"340 257 LINE",
"351 257 LINE",
"343 50 LINE",
"312 50 LINE",
"250 497 LINE",
"237 497 LINE"
);
},
{
closed = 1;
nodes = (
"389 730 LINE",
"430 730 LINE",
"396 545 LINE",
"351 50 LINE",
"320 50 LINE",
"351 257 LINE"
);
},
{
closed = 1;
nodes = (
"430 730 LINE",
"490 257 LINE",
"501 257 LINE",
"493 50 LINE",
"462 50 LINE",
"400 497 LINE",
"387 497 LINE"
);
},
{
closed = 1;
nodes = (
"539 730 LINE",
"580 730 LINE",
"546 545 LINE",
"501 50 LINE",
"470 50 LINE",
"501 257 LINE"
);
},
{
closed = 1;
nodes = (
"580 730 LINE",
"640 257 LINE",
"651 257 LINE",
"643 50 LINE",
"612 50 LINE",
"550 497 LINE",
"537 497 LINE"
);
},
{
closed = 1;
nodes = (
"689 730 LINE",
"730 730 LINE",
"696 545 LINE",
"651 50 LINE",
"620 50 LINE",
"651 257 LINE"
);
},
{
closed = 1;
nodes = (
"730 730 LINE",
"790 257 LINE",
"801 257 LINE",
"793 50 LINE",
"762 50 LINE",
"700 497 LINE",
"687 497 LINE"
);
},
{
closed = 1;
nodes = (
"861 730 LINE",
"885 730 LINE",
"793 50 LINE",
"762 50 LINE",
"801 257 LINE"
);
},
{
closed = 1;
nodes = (
"105 730 LINE",
"100 522 LINE",
"77 522 LINE",
"104 0 LINE",
"25 0 LINE",
"35 730 LINE"
);
},
{
closed = 1;
nodes = (
"861 730 LINE",
"922 730 LINE",
"932 0 LINE",
"855 0 LINE",
"868 522 LINE",
"842 522 LINE"
);
}
);
width = 957;
},
{
associatedMasterId = master01;
layerId = "9CD618B9-E396-44E5-9148-6F45C87CDCC7";
name = foreground;
paths = (
{
closed = 1;
nodes = (
"110 730 LINE",
"190 257 LINE",
"201 257 LINE",
"191 50 LINE",
"170 50 LINE",
"51 730 LINE"
);
},
{
closed = 1;
nodes = (
"239 730 LINE",
"280 730 LINE",
"246 545 LINE",
"201 50 LINE",
"170 50 LINE",
"201 257 LINE"
);
},
{
closed = 1;
nodes = (
"280 730 LINE",
"340 257 LINE",
"351 257 LINE",
"343 50 LINE",
"312 50 LINE",
"250 497 LINE",
"237 497 LINE"
);
},
{
closed = 1;
nodes = (
"389 730 LINE",
"430 730 LINE",
"396 545 LINE",
"351 50 LINE",
"320 50 LINE",
"351 257 LINE"
);
},
{
closed = 1;
nodes = (
"430 730 LINE",
"490 257 LINE",
"501 257 LINE",
"493 50 LINE",
"462 50 LINE",
"400 497 LINE",
"387 497 LINE"
);
},
{
closed = 1;
nodes = (
"539 730 LINE",
"580 730 LINE",
"546 545 LINE",
"501 50 LINE",
"470 50 LINE",
"501 257 LINE"
);
},
{
closed = 1;
nodes = (
"580 730 LINE",
"640 257 LINE",
"651 257 LINE",
"643 50 LINE",
"612 50 LINE",
"550 497 LINE",
"537 497 LINE"
);
},
{
closed = 1;
nodes = (
"689 730 LINE",
"730 730 LINE",
"696 545 LINE",
"651 50 LINE",
"620 50 LINE",
"651 257 LINE"
);
},
{
closed = 1;
nodes = (
"730 730 LINE",
"790 257 LINE",
"801 257 LINE",
"793 50 LINE",
"762 50 LINE",
"700 497 LINE",
"687 497 LINE"
);
},
{
closed = 1;
nodes = (
"861 730 LINE",
"885 730 LINE",
"793 50 LINE",
"762 50 LINE",
"801 257 LINE"
);
},
{
closed = 1;
nodes = (
"105 730 LINE",
"100 522 LINE",
"77 522 LINE",
"104 0 LINE",
"25 0 LINE",
"35 730 LINE"
);
},
{
closed = 1;
nodes = (
"861 730 LINE",
"922 730 LINE",
"932 0 LINE",
"855 0 LINE",
"868 522 LINE",
"842 522 LINE"
);
}
);
width = 957;
}
);
},
{
glyphname = N.2;
layers = (
{
anchors = (
{
name = top;
position = "{141, 760}";
}
);
layerId = master01;
paths = (
{
closed = 1;
nodes = (
"96 730 LINE",
"212 0 LINE",
"184 0 LINE",
"69 730 LINE"
);
},
{
closed = 1;
nodes = (
"85 730 LINE",
"93 607 LINE",
"76 607 LINE",
"90 376 LINE",
"96 0 LINE",
"25 0 LINE",
"25 730 LINE"
);
},
{
closed = 1;
nodes = (
"161 730 LINE",
"204 730 LINE",
"212 607 LINE",
"195 607 LINE",
"237 0 LINE",
"195 0 LINE",
"187 123 LINE",
"204 123 LINE"
);
},
{
closed = 1;
nodes = (
"215 730 LINE",
"331 0 LINE",
"303 0 LINE",
"188 730 LINE"
);
},
{
closed = 1;
nodes = (
"314 0 LINE",
"306 123 LINE",
"323 123 LINE",
"319 354 LINE",
"302 730 LINE",
"374 730 LINE",
"374 0 LINE"
);
}
);
width = 399;
},
{
anchors = (
{
name = top;
position = "{141, 760}";
}
);
associatedMasterId = master01;
layerId = "5E20F3AE-39FE-4AD5-B453-AF9ED5F16BE8";
name = foreground;
paths = (
{
closed = 1;
nodes = (
"96 730 LINE",
"212 0 LINE",
"184 0 LINE",
"69 730 LINE"
);
},
{
closed = 1;
nodes = (
"85 730 LINE",
"93 607 LINE",
"76 607 LINE",
"90 376 LINE",
"96 0 LINE",
"25 0 LINE",
"25 730 LINE"
);
},
{
closed = 1;
nodes = (
"161 730 LINE",
"204 730 LINE",
"212 607 LINE",
"195 607 LINE",
"237 0 LINE",
"195 0 LINE",
"187 123 LINE",
"204 123 LINE"
);
},
{
closed = 1;
nodes = (
"215 730 LINE",
"331 0 LINE",
"303 0 LINE",
"188 730 LINE"
);
},
{
closed = 1;
nodes = (
"314 0 LINE",
"306 123 LINE",
"323 123 LINE",
"319 354 LINE",
"302 730 LINE",
"374 730 LINE",
"374 0 LINE"
);
}
);
width = 399;
}
);
},
{
glyphname = N.3;
layers = (
{
anchors = (
{
name = top;
position = "{141, 760}";
}
);
layerId = master01;
paths = (
{
closed = 1;
nodes = (
"96 730 LINE",
"212 0 LINE",
"184 0 LINE",
"69 730 LINE"
);
},
{
closed = 1;
nodes = (
"85 730 LINE",
"93 607 LINE",
"76 607 LINE",
"90 376 LINE",
"96 0 LINE",
"25 0 LINE",
"25 730 LINE"
);
},
{
closed = 1;
nodes = (
"161 730 LINE",
"204 730 LINE",
"212 607 LINE",
"195 607 LINE",
"237 0 LINE",
"195 0 LINE",
"187 123 LINE",
"204 123 LINE"
);
},
{
closed = 1;
nodes = (
"215 730 LINE",
"331 0 LINE",
"303 0 LINE",
"188 730 LINE"
);
},
{
closed = 1;
nodes = (
"280 730 LINE",
"323 730 LINE",
"331 607 LINE",
"314 607 LINE",
"356 0 LINE",
"314 0 LINE",
"306 123 LINE",
"323 123 LINE"
);
},
{
closed = 1;
nodes = (
"334 730 LINE",
"450 0 LINE",
"422 0 LINE",
"307 730 LINE"
);
},
{
closed = 1;
nodes = (
"433 0 LINE",
"425 123 LINE",
"442 123 LINE",
"438 354 LINE",
"421 730 LINE",
"493 730 LINE",
"493 0 LINE"
);
}
);
width = 518;
},
{
anchors = (
{
name = top;
position = "{141, 760}";
}
);
associatedMasterId = master01;
layerId = "5FD271C5-B473-4A01-AC61-D098DD0A3FA0";
name = foreground;
paths = (
{
closed = 1;
nodes = (
"96 730 LINE",
"212 0 LINE",
"184 0 LINE",
"69 730 LINE"
);
},
{
closed = 1;
nodes = (
"85 730 LINE",
"93 607 LINE",
"76 607 LINE",
"90 376 LINE",
"96 0 LINE",
"25 0 LINE",
"25 730 LINE"
);
},
{
closed = 1;
nodes = (
"161 730 LINE",
"204 730 LINE",
"212 607 LINE",
"195 607 LINE",
"237 0 LINE",
"195 0 LINE",
"187 123 LINE",
"204 123 LINE"
);
},
{
closed = 1;
nodes = (
"215 730 LINE",
"331 0 LINE",
"303 0 LINE",
"188 730 LINE"
);
},
{
closed = 1;
nodes = (
"280 730 LINE",
"323 730 LINE",
"331 607 LINE",
"314 607 LINE",
"356 0 LINE",
"314 0 LINE",
"306 123 LINE",
"323 123 LINE"
);
},
{
closed = 1;
nodes = (
"334 730 LINE",
"450 0 LINE",
"422 0 LINE",
"307 730 LINE"
);
},
{
closed = 1;
nodes = (
"433 0 LINE",
"425 123 LINE",
"442 123 LINE",
"438 354 LINE",
"421 730 LINE",
"493 730 LINE",
"493 0 LINE"
);
}
);
width = 518;
}
);
},
{
glyphname = Q.2;
layers = (
{
anchors = (
{
name = top;
position = "{147, 760}";
}
);
layerId = master01;
paths = (
{
closed = 1;
nodes = (
"112 672 OFFCURVE",
"105 650 OFFCURVE",
"105 615 CURVE",
"105 151 LINE SMOOTH",
"105 79 OFFCURVE",
"125 68 OFFCURVE",
"149 68 CURVE",
"175 68 OFFCURVE",
"181 99 OFFCURVE",
"181 148 CURVE",
"181 589 LINE SMOOTH",
"181 661 OFFCURVE",
"162 672 OFFCURVE",
"142 672 CURVE SMOOTH"
);
},
{
closed = 1;
nodes = (
"67 0 OFFCURVE",
"30 32 OFFCURVE",
"30 117 CURVE",
"30 605 LINE SMOOTH",
"30 703 OFFCURVE",
"84 740 OFFCURVE",
"149 740 CURVE",
"219 740 OFFCURVE",
"256 709 OFFCURVE",
"256 623 CURVE",
"256 163 LINE SMOOTH",
"256 86 OFFCURVE",
"218 34 OFFCURVE",
"163 27 CURVE",
"163 17 LINE",
"220 18 LINE",
"280 -44 OFFCURVE",
"317 -67 OFFCURVE",
"371 -67 CURVE",
"414 -67 OFFCURVE",
"431 -57 OFFCURVE",
"432 -31 CURVE",
"435 24 LINE",
"449 24 LINE",
"452 -27 LINE SMOOTH",
"455 -85 OFFCURVE",
"436 -130 OFFCURVE",
"353 -130 CURVE",
"293 -130 OFFCURVE",
"242 -100 OFFCURVE",
"184 -33 CURVE",
"164 -9 OFFCURVE",
"154 0 OFFCURVE",
"135 0 CURVE SMOOTH"
);
}
);
width = 298;
},
{
anchors = (
{
name = top;
position = "{147, 760}";
}
);
associatedMasterId = master01;
layerId = "FFFC0604-C8D9-4E58-A776-FB6112590122";
name = foreground;
paths = (
{
closed = 1;
nodes = (
"112 672 OFFCURVE",
"105 650 OFFCURVE",
"105 615 CURVE",
"105 151 LINE SMOOTH",
"105 79 OFFCURVE",
"125 68 OFFCURVE",
"149 68 CURVE",
"175 68 OFFCURVE",
"181 99 OFFCURVE",
"181 148 CURVE",
"181 589 LINE SMOOTH",
"181 661 OFFCURVE",
"162 672 OFFCURVE",
"142 672 CURVE SMOOTH"
);
},
{
closed = 1;
nodes = (
"67 0 OFFCURVE",
"30 32 OFFCURVE",
"30 117 CURVE",
"30 605 LINE SMOOTH",
"30 703 OFFCURVE",
"84 740 OFFCURVE",
"149 740 CURVE",
"219 740 OFFCURVE",
"256 709 OFFCURVE",
"256 623 CURVE",
"256 163 LINE SMOOTH",
"256 86 OFFCURVE",
"218 34 OFFCURVE",
"163 27 CURVE",
"163 17 LINE",
"220 18 LINE",
"280 -44 OFFCURVE",
"317 -67 OFFCURVE",
"371 -67 CURVE",
"414 -67 OFFCURVE",
"431 -57 OFFCURVE",
"432 -31 CURVE",
"435 24 LINE",
"449 24 LINE",
"452 -27 LINE SMOOTH",
"455 -85 OFFCURVE",
"436 -130 OFFCURVE",
"353 -130 CURVE",
"293 -130 OFFCURVE",
"242 -100 OFFCURVE",
"184 -33 CURVE",
"164 -9 OFFCURVE",
"154 0 OFFCURVE",
"135 0 CURVE SMOOTH"
);
}
);
width = 298;
}
);
leftKerningGroup = C;
},
{
glyphname = R.2;
layers = (
{
layerId = master01;
paths = (
{
closed = 1;
nodes = (
"105 730 LINE",
"105 0 LINE",
"30 0 LINE",
"30 730 LINE"
);
},
{
closed = 1;
nodes = (
"124 119 LINE",
"169 138 OFFCURVE",
"181 160 OFFCURVE",
"181 195 CURVE",
"181 579 LINE SMOOTH",
"181 644 OFFCURVE",
"163 662 OFFCURVE",
"113 662 CURVE",
"113 662 OFFCURVE",
"71 662 OFFCURVE",
"71 662 CURVE",
"71 730 LINE",
"120 730 LINE SMOOTH",
"206 730 OFFCURVE",
"256 695 OFFCURVE",
"256 604 CURVE",
"256 255 LINE SMOOTH",
"256 165 OFFCURVE",
"197 131 OFFCURVE",
"128 101 CURVE",
"78 79 LINE",
"71 96 LINE"
);
},
{
closed = 1;
nodes = (
"491 -67 OFFCURVE",
"511 -57 OFFCURVE",
"512 -31 CURVE",
"515 24 LINE",
"529 24 LINE",
"532 -27 LINE SMOOTH",
"535 -85 OFFCURVE",
"514 -130 OFFCURVE",
"423 -130 CURVE",
"341 -130 OFFCURVE",
"263 -80 OFFCURVE",
"181 66 CURVE",
"165 94 OFFCURVE",
"147 103 OFFCURVE",
"105 84 CURVE",
"102 104 LINE",
"165 124 LINE",
"169 107 LINE",
"220 118 LINE",
"299 -21 OFFCURVE",
"361 -67 OFFCURVE",
"441 -67 CURVE SMOOTH"
);
}
);
width = 286;
},
{
associatedMasterId = master01;
layerId = "419CE9C7-71E7-45B6-9316-4D47EE0AC72C";
name = foreground;
paths = (
{
closed = 1;
nodes = (
"105 730 LINE",
"105 0 LINE",
"30 0 LINE",
"30 730 LINE"
);
},
{
closed = 1;
nodes = (
"124 119 LINE",
"169 138 OFFCURVE",
"181 160 OFFCURVE",
"181 195 CURVE",
"181 579 LINE SMOOTH",
"181 644 OFFCURVE",
"163 662 OFFCURVE",
"113 662 CURVE",
"113 662 OFFCURVE",
"71 662 OFFCURVE",
"71 662 CURVE",
"71 730 LINE",
"120 730 LINE SMOOTH",
"206 730 OFFCURVE",
"256 695 OFFCURVE",
"256 604 CURVE",
"256 255 LINE SMOOTH",
"256 165 OFFCURVE",
"197 131 OFFCURVE",
"128 101 CURVE",
"78 79 LINE",
"71 96 LINE"
);
},
{
closed = 1;
nodes = (
"491 -67 OFFCURVE",
"511 -57 OFFCURVE",
"512 -31 CURVE",
"515 24 LINE",
"529 24 LINE",
"532 -27 LINE SMOOTH",
"535 -85 OFFCURVE",
"514 -130 OFFCURVE",
"423 -130 CURVE",
"341 -130 OFFCURVE",
"263 -80 OFFCURVE",
"181 66 CURVE",
"165 94 OFFCURVE",
"147 103 OFFCURVE",
"105 84 CURVE",
"102 104 LINE",
"165 124 LINE",
"169 107 LINE",
"220 118 LINE",
"299 -21 OFFCURVE",
"361 -67 OFFCURVE",
"441 -67 CURVE SMOOTH"
);
}
);
width = 286;
}
);
},
{
glyphname = S.2;
layers = (
{
anchors = (
{
name = top;
position = "{127, 750}";
}
);
layerId = master01;
paths = (
{
closed = 1;
nodes = (
"6 703 OFFCURVE",
"64 740 OFFCURVE",
"132 740 CURVE",
"198 740 OFFCURVE",
"229 709 OFFCURVE",
"229 647 CURVE",
"229 580 OFFCURVE",
"221 504 OFFCURVE",
"212 445 CURVE",
"136 445 LINE",
"184 537 OFFCURVE",
"205 602 OFFCURVE",
"205 636 CURVE",
"205 664 OFFCURVE",
"184 672 OFFCURVE",
"132 672 CURVE",
"91 672 OFFCURVE",
"81 652 OFFCURVE",
"81 626 CURVE",
"81 494 OFFCURVE",
"224 259 OFFCURVE",
"224 115 CURVE",
"224 26 OFFCURVE",
"171 -11 OFFCURVE",
"108 -11 CURVE",
"56 -11 OFFCURVE",
"31 20 OFFCURVE",
"31 82 CURVE",
"31 120 OFFCURVE",
"31 196 OFFCURVE",
"42 264 CURVE",
"108 264 LINE",
"64 157 OFFCURVE",
"55 119 OFFCURVE",
"55 92 CURVE",
"55 65 OFFCURVE",
"70 57 OFFCURVE",
"108 57 CURVE",
"141 57 OFFCURVE",
"149 77 OFFCURVE",
"149 103 CURVE",
"149 216 OFFCURVE",
"6 501 OFFCURVE",
"6 617 CURVE SMOOTH"
);
}
);
width = 243;
},
{
anchors = (
{
name = top;
position = "{127, 750}";
}
);
associatedMasterId = master01;
layerId = "17636C09-5B40-415C-9833-E24F4D6C913D";
name = foreground;
paths = (
{
closed = 1;
nodes = (
"6 703 OFFCURVE",
"64 740 OFFCURVE",
"132 740 CURVE",
"198 740 OFFCURVE",
"229 709 OFFCURVE",
"229 647 CURVE",
"229 580 OFFCURVE",
"221 504 OFFCURVE",
"212 445 CURVE",
"136 445 LINE",
"184 537 OFFCURVE",
"205 602 OFFCURVE",
"205 636 CURVE",
"205 664 OFFCURVE",
"184 672 OFFCURVE",
"132 672 CURVE",
"91 672 OFFCURVE",
"81 652 OFFCURVE",
"81 626 CURVE",
"81 494 OFFCURVE",
"224 259 OFFCURVE",
"224 115 CURVE",
"224 26 OFFCURVE",
"171 -11 OFFCURVE",
"108 -11 CURVE",
"56 -11 OFFCURVE",
"31 20 OFFCURVE",
"31 82 CURVE",
"31 120 OFFCURVE",
"31 196 OFFCURVE",
"42 264 CURVE",
"108 264 LINE",
"64 157 OFFCURVE",
"55 119 OFFCURVE",
"55 92 CURVE",
"55 65 OFFCURVE",
"70 57 OFFCURVE",
"108 57 CURVE",
"141 57 OFFCURVE",
"149 77 OFFCURVE",
"149 103 CURVE",
"149 216 OFFCURVE",
"6 501 OFFCURVE",
"6 617 CURVE SMOOTH"
);
}
);
width = 243;
}
);
leftKerningGroup = S.2;
rightKerningGroup = S.2;
},
{
glyphname = S.3;
layers = (
{
layerId = master01;
paths = (
{
closed = 1;
nodes = (
"75 730 LINE",
"181 730 LINE",
"71 467 LINE",
"2 467 LINE",
"2 469 LINE"
);
},
{
closed = 1;
nodes = (
"133 262 LINE",
"2 466 LINE",
"2 467 LINE",
"71 467 LINE",
"202 262 LINE"
);
},
{
closed = 1;
nodes = (
"129 0 LINE",
"22 0 LINE",
"133 262 LINE",
"202 262 LINE",
"202 261 LINE"
);
}
);
width = 198;
},
{
associatedMasterId = master01;
layerId = "F29C396B-2C8B-41FE-83E3-E2DC3A131F79";
name = foreground;
paths = (
{
closed = 1;
nodes = (
"75 730 LINE",
"181 730 LINE",
"71 467 LINE",
"2 467 LINE",
"2 469 LINE"
);
},
{
closed = 1;
nodes = (
"133 262 LINE",
"2 466 LINE",
"2 467 LINE",
"71 467 LINE",
"202 262 LINE"
);
},
{
closed = 1;
nodes = (
"129 0 LINE",
"22 0 LINE",
"133 262 LINE",
"202 262 LINE",
"202 261 LINE"
);
}
);
width = 198;
}
);
},
{
glyphname = W.2;
layers = (
{
layerId = master01;
paths = (
{
closed = 1;
nodes = (
"287 730 LINE",
"375 730 LINE",
"251 0 LINE",
"123 0 LINE",
"140 70 LINE",
"229 70 LINE",
"243 319 LINE"
);
},
{
closed = 1;
nodes = (
"90 730 LINE",
"143 70 LINE",
"251 0 LINE",
"123 0 LINE",
"0 730 LINE"
);
},
{
closed = 1;
nodes = (
"144 730 LINE",
"229 730 LINE",
"201 69 LINE",
"173 69 LINE"
);
}
);
width = 375;
},
{
associatedMasterId = master01;
layerId = "B074FCAC-B790-4A21-9407-BD3FC4F61CED";
name = foreground;
paths = (
{
closed = 1;
nodes = (
"287 730 LINE",
"375 730 LINE",
"251 0 LINE",
"123 0 LINE",
"140 70 LINE",
"229 70 LINE",
"243 319 LINE"
);
},
{
closed = 1;
nodes = (
"90 730 LINE",
"143 70 LINE",
"251 0 LINE",
"123 0 LINE",
"0 730 LINE"
);
},
{
closed = 1;
nodes = (
"144 730 LINE",
"229 730 LINE",
"201 69 LINE",
"173 69 LINE"
);
}
);
width = 375;
}
);
leftKerningGroup = W;
rightKerningGroup = W;
},
{
glyphname = Z.2;
layers = (
{
layerId = master01;
paths = (
{
closed = 1;
nodes = (
"25 346 LINE",
"158 657 LINE",
"150 668 LINE",
"226 730 LINE",
"121 414 LINE",
"133 399 LINE",
"72 346 LINE"
);
},
{
closed = 1;
nodes = (
"45 730 LINE",
"226 730 LINE",
"186 665 LINE",
"45 665 LINE"
);
},
{
closed = 1;
nodes = (
"80 65 LINE",
"228 65 LINE",
"228 0 LINE",
"30 0 LINE"
);
},
{
closed = 1;
nodes = (
"12 0 LINE",
"127 338 LINE",
"119 349 LINE",
"223 405 LINE",
"80 74 LINE",
"92 59 LINE",
"59 0 LINE"
);
},
{
closed = 1;
nodes = (
"62 405 LINE",
"223 405 LINE",
"183 346 LINE",
"62 346 LINE"
);
}
);
width = 243;
},
{
associatedMasterId = master01;
layerId = "AB8218E4-9A01-4788-98B1-2B649C814045";
name = foreground;
paths = (
{
closed = 1;
nodes = (
"25 346 LINE",
"158 657 LINE",
"150 668 LINE",
"226 730 LINE",
"121 414 LINE",
"133 399 LINE",
"72 346 LINE"
);
},
{
closed = 1;
nodes = (
"45 730 LINE",
"226 730 LINE",
"186 665 LINE",
"45 665 LINE"
);
},
{
closed = 1;
nodes = (
"80 65 LINE",
"228 65 LINE",
"228 0 LINE",
"30 0 LINE"
);
},
{
closed = 1;
nodes = (
"12 0 LINE",
"127 338 LINE",
"119 349 LINE",
"223 405 LINE",
"80 74 LINE",
"92 59 LINE",
"59 0 LINE"
);
},
{
closed = 1;
nodes = (
"62 405 LINE",
"223 405 LINE",
"183 346 LINE",
"62 346 LINE"
);
}
);
width = 243;
}
);
leftKerningGroup = Zcaron;
rightKerningGroup = Zcaron;
},
{
glyphname = a;
layers = (
{
anchors = (
{
name = bottom_right;
position = "{238, 0}";
},
{
name = top;
position = "{136, 640}";
}
);
layerId = master01;
paths = (
{
closed = 1;
nodes = (
"53 -10 OFFCURVE",
"33 13 OFFCURVE",
"33 61 CURVE SMOOTH",
"33 130 LINE",
"33 211 OFFCURVE",
"75 243 OFFCURVE",
"154 317 CURVE",
"154 502 LINE",
"154 534 OFFCURVE",
"146 542 OFFCURVE",
"113 542 CURVE",
"61 542 OFFCURVE",
"48 520 OFFCURVE",
"48 485 CURVE",
"48 443 OFFCURVE",
"65 406 OFFCURVE",
"147 323 CURVE",
"51 323 LINE",
"31 371 OFFCURVE",
"25 428 OFFCURVE",
"25 474 CURVE",
"25 537 OFFCURVE",
"74 610 OFFCURVE",
"137 610 CURVE",
"195 610 OFFCURVE",
"224 579 OFFCURVE",
"224 528 CURVE SMOOTH",
"224 118 LINE",
"224 64 OFFCURVE",
"234 58 OFFCURVE",
"245 58 CURVE",
"254 58 OFFCURVE",
"261 64 OFFCURVE",
"262 97 CURVE SMOOTH",
"265 272 LINE",
"279 272 LINE",
"282 101 LINE",
"283 38 OFFCURVE",
"273 -10 OFFCURVE",
"226 -10 CURVE",
"185 -10 OFFCURVE",
"167 19 OFFCURVE",
"179 161 CURVE",
"169 163 LINE",
"154 14 OFFCURVE",
"129 -10 OFFCURVE",
"91 -10 CURVE SMOOTH"
);
},
{
closed = 1;
nodes = (
"142 63 OFFCURVE",
"154 124 OFFCURVE",
"154 216 CURVE SMOOTH",
"154 317 LINE",
"161 303 LINE",
"111 256 OFFCURVE",
"103 231 OFFCURVE",
"103 187 CURVE SMOOTH",
"103 87 LINE",
"103 69 OFFCURVE",
"110 63 OFFCURVE",
"120 63 CURVE SMOOTH"
);
}
);
width = 297;
},
{
anchors = (
{
name = bottom_right;
position = "{238, 0}";
},
{
name = top;
position = "{136, 640}";
}
);
associatedMasterId = master01;
layerId = "13753896-4D4F-4329-BE51-D4C904C9B074";
name = foreground;
paths = (
{
closed = 1;
nodes = (
"53 -10 OFFCURVE",
"33 13 OFFCURVE",
"33 61 CURVE SMOOTH",
"33 130 LINE",
"33 211 OFFCURVE",
"75 243 OFFCURVE",
"154 317 CURVE",
"154 502 LINE",
"154 534 OFFCURVE",
"146 542 OFFCURVE",
"113 542 CURVE",
"61 542 OFFCURVE",
"48 520 OFFCURVE",
"48 485 CURVE",
"48 443 OFFCURVE",
"65 406 OFFCURVE",
"147 323 CURVE",
"51 323 LINE",
"31 371 OFFCURVE",
"25 428 OFFCURVE",
"25 474 CURVE",
"25 537 OFFCURVE",
"74 610 OFFCURVE",
"137 610 CURVE",
"195 610 OFFCURVE",
"224 579 OFFCURVE",
"224 528 CURVE SMOOTH",
"224 118 LINE",
"224 64 OFFCURVE",
"234 58 OFFCURVE",
"245 58 CURVE",
"254 58 OFFCURVE",
"261 64 OFFCURVE",
"262 97 CURVE SMOOTH",
"265 272 LINE",
"279 272 LINE",
"282 101 LINE",
"283 38 OFFCURVE",
"273 -10 OFFCURVE",
"226 -10 CURVE",
"185 -10 OFFCURVE",
"167 19 OFFCURVE",
"179 161 CURVE",
"169 163 LINE",
"154 14 OFFCURVE",
"129 -10 OFFCURVE",
"91 -10 CURVE SMOOTH"
);
},
{
closed = 1;
nodes = (
"142 63 OFFCURVE",
"154 124 OFFCURVE",
"154 216 CURVE SMOOTH",
"154 317 LINE",
"161 303 LINE",
"111 256 OFFCURVE",
"103 231 OFFCURVE",
"103 187 CURVE SMOOTH",
"103 87 LINE",
"103 69 OFFCURVE",
"110 63 OFFCURVE",
"120 63 CURVE SMOOTH"
);
}
);
width = 297;
}
);
leftKerningGroup = a;
rightKerningGroup = a;
unicode = 0061;
},
{
glyphname = aogonek;
layers = (
{
anchors = (
{
name = bottom_right;
position = "{238, 0}";
},
{
name = top;
position = "{136, 640}";
}
);
components = (
{
name = a;
},
{
name = ogonek;
transform = "{1, 0, 0, 1, 131, 0}";
}
);
layerId = master01;
paths = (
{
closed = 1;
nodes = (
"226 -19 LINE",
"220 -5 LINE",
"242 0 LINE"
);
}
);
width = 297;
},
{
anchors = (
{
name = bottom_right;
position = "{238, 0}";
},
{
name = top;
position = "{136, 640}";
}
);
associatedMasterId = master01;
components = (
{
name = a;
},
{
name = ogonek;
transform = "{1, 0, 0, 1, 131, 0}";
}
);
layerId = "BD393CA5-466E-49BB-BA5E-37EA92DA698C";
name = foreground;
paths = (
{
closed = 1;
nodes = (
"226 -19 LINE",
"220 -5 LINE",
"242 0 LINE"
);
}
);
width = 297;
}
);
leftKerningGroup = a;
rightKerningGroup = a;
unicode = 0105;
},
{
glyphname = ae;
layers = (
{
anchors = (
{
name = bottom_right;
position = "{238, 0}";
},
{
name = top;
position = "{136, 640}";
}
);
layerId = master01;
paths = (
{
closed = 1;
nodes = (
"202 332 LINE",
"202 346 LINE",
"326 346 LINE",
"326 332 LINE"
);
},
{
closed = 1;
nodes = (
"142 63 OFFCURVE",
"154 124 OFFCURVE",
"154 216 CURVE",
"154 296 LINE",
"110 254 OFFCURVE",
"103 229 OFFCURVE",
"103 187 CURVE",
"103 87 LINE SMOOTH",
"103 69 OFFCURVE",
"110 63 OFFCURVE",
"120 63 CURVE SMOOTH"
);
},
{
closed = 1;
nodes = (
"209 475 LINE",
"209 573 OFFCURVE",
"231 610 OFFCURVE",
"273 610 CURVE",
"315 610 OFFCURVE",
"344 579 OFFCURVE",
"344 493 CURVE",
"344 332 LINE",
"284 332 LINE",
"284 460 LINE SMOOTH",
"284 532 OFFCURVE",
"273 542 OFFCURVE",
"253 542 CURVE",
"229 542 OFFCURVE",
"224 520 OFFCURVE",
"224 485 CURVE",
"224 141 LINE SMOOTH",
"224 69 OFFCURVE",
"250 58 OFFCURVE",
"278 58 CURVE",
"308 58 OFFCURVE",
"321 96 OFFCURVE",
"323 160 CURVE",
"326 277 LINE",
"340 277 LINE",
"343 157 LINE SMOOTH",
"345 62 OFFCURVE",
"313 -10 OFFCURVE",
"246 -10 CURVE",
"192 -10 OFFCURVE",
"170 19 OFFCURVE",
"179 161 CURVE",
"169 161 LINE",
"154 14 OFFCURVE",
"129 -10 OFFCURVE",
"91 -10 CURVE",
"53 -10 OFFCURVE",
"33 13 OFFCURVE",
"33 61 CURVE",
"33 130 LINE SMOOTH",
"33 211 OFFCURVE",
"75 243 OFFCURVE",
"154 317 CURVE",
"154 502 LINE SMOOTH",
"154 534 OFFCURVE",
"146 542 OFFCURVE",
"113 542 CURVE",
"67 542 OFFCURVE",
"55 520 OFFCURVE",
"55 485 CURVE",
"55 443 OFFCURVE",
"68 404 OFFCURVE",
"147 324 CURVE",
"51 324 LINE",
"31 372 OFFCURVE",
"25 428 OFFCURVE",
"25 474 CURVE",
"25 537 OFFCURVE",
"74 610 OFFCURVE",
"137 610 CURVE",
"179 610 OFFCURVE",
"200 579 OFFCURVE",
"200 528 CURVE",
"200 475 LINE"
);
}
);
width = 379;
},
{
anchors = (
{
name = bottom_right;
position = "{238, 0}";
},
{
name = top;
position = "{136, 640}";
}
);
associatedMasterId = master01;
layerId = "4AC77B78-DE19-4800-902D-14E7E21F6B21";
name = foreground;
paths = (
{
closed = 1;
nodes = (
"202 332 LINE",
"202 346 LINE",
"326 346 LINE",
"326 332 LINE"
);
},
{
closed = 1;
nodes = (
"142 63 OFFCURVE",
"154 124 OFFCURVE",
"154 216 CURVE",
"154 296 LINE",
"110 254 OFFCURVE",
"103 229 OFFCURVE",
"103 187 CURVE",
"103 87 LINE SMOOTH",
"103 69 OFFCURVE",
"110 63 OFFCURVE",
"120 63 CURVE SMOOTH"
);
},
{
closed = 1;
nodes = (
"209 475 LINE",
"209 573 OFFCURVE",
"231 610 OFFCURVE",
"273 610 CURVE",
"315 610 OFFCURVE",
"344 579 OFFCURVE",
"344 493 CURVE",
"344 332 LINE",
"284 332 LINE",
"284 460 LINE SMOOTH",
"284 532 OFFCURVE",
"273 542 OFFCURVE",
"253 542 CURVE",
"229 542 OFFCURVE",
"224 520 OFFCURVE",
"224 485 CURVE",
"224 141 LINE SMOOTH",
"224 69 OFFCURVE",
"250 58 OFFCURVE",
"278 58 CURVE",
"308 58 OFFCURVE",
"321 96 OFFCURVE",
"323 160 CURVE",
"326 277 LINE",
"340 277 LINE",
"343 157 LINE SMOOTH",
"345 62 OFFCURVE",
"313 -10 OFFCURVE",
"246 -10 CURVE",
"192 -10 OFFCURVE",
"170 19 OFFCURVE",
"179 161 CURVE",
"169 161 LINE",
"154 14 OFFCURVE",
"129 -10 OFFCURVE",
"91 -10 CURVE",
"53 -10 OFFCURVE",
"33 13 OFFCURVE",
"33 61 CURVE",
"33 130 LINE SMOOTH",
"33 211 OFFCURVE",
"75 243 OFFCURVE",
"154 317 CURVE",
"154 502 LINE SMOOTH",
"154 534 OFFCURVE",
"146 542 OFFCURVE",
"113 542 CURVE",
"67 542 OFFCURVE",
"55 520 OFFCURVE",
"55 485 CURVE",
"55 443 OFFCURVE",
"68 404 OFFCURVE",
"147 324 CURVE",
"51 324 LINE",
"31 372 OFFCURVE",
"25 428 OFFCURVE",
"25 474 CURVE",
"25 537 OFFCURVE",
"74 610 OFFCURVE",
"137 610 CURVE",
"179 610 OFFCURVE",
"200 579 OFFCURVE",
"200 528 CURVE",
"200 475 LINE"
);
}
);
width = 379;
}
);
leftKerningGroup = a;
rightKerningGroup = b;
unicode = 00E6;
},
{
glyphname = b;
layers = (
{
layerId = master01;
paths = (
{
closed = 1;
nodes = (
"186 490 LINE SMOOTH",
"186 526 OFFCURVE",
"177 542 OFFCURVE",
"160 542 CURVE",
"138 542 OFFCURVE",
"115 474 OFFCURVE",
"115 382 CURVE",
"115 74 LINE",
"128 61 OFFCURVE",
"142 54 OFFCURVE",
"158 54 CURVE",
"177 54 OFFCURVE",
"186 68 OFFCURVE",
"186 154 CURVE"
);
},
{
closed = 1;
nodes = (
"258 160 LINE",
"258 40 OFFCURVE",
"229 -10 OFFCURVE",
"165 -10 CURVE",
"125 -10 OFFCURVE",
"86 13 OFFCURVE",
"58 49 CURVE",
"49 47 LINE",
"43 0 LINE",
"25 0 LINE",
"45 164 LINE",
"45 730 LINE",
"114 730 LINE",
"114 589 LINE",
"91 437 LINE",
"101 435 LINE",
"122 585 OFFCURVE",
"156 610 OFFCURVE",
"194 610 CURVE",
"231 610 OFFCURVE",
"258 579 OFFCURVE",
"258 529 CURVE"
);
}
);
width = 293;
},
{
associatedMasterId = master01;
layerId = "04BE0878-1360-4C36-9E24-24EBBC476ADD";
name = foreground;
paths = (
{
closed = 1;
nodes = (
"186 490 LINE SMOOTH",
"186 526 OFFCURVE",
"177 542 OFFCURVE",
"160 542 CURVE",
"138 542 OFFCURVE",
"115 474 OFFCURVE",
"115 382 CURVE",
"115 74 LINE",
"128 61 OFFCURVE",
"142 54 OFFCURVE",
"158 54 CURVE",
"177 54 OFFCURVE",
"186 68 OFFCURVE",
"186 154 CURVE"
);
},
{
closed = 1;
nodes = (
"258 160 LINE",
"258 40 OFFCURVE",
"229 -10 OFFCURVE",
"165 -10 CURVE",
"125 -10 OFFCURVE",
"86 13 OFFCURVE",
"58 49 CURVE",
"49 47 LINE",
"43 0 LINE",
"25 0 LINE",
"45 164 LINE",
"45 730 LINE",
"114 730 LINE",
"114 589 LINE",
"91 437 LINE",
"101 435 LINE",
"122 585 OFFCURVE",
"156 610 OFFCURVE",
"194 610 CURVE",
"231 610 OFFCURVE",
"258 579 OFFCURVE",
"258 529 CURVE"
);
}
);
width = 293;
}
);
leftKerningGroup = b;
rightKerningGroup = b;
unicode = 0062;
},
{
glyphname = c;
layers = (
{
anchors = (
{
name = bottom;
position = "{125, 0}";
},
{
name = top;
position = "{136, 640}";
}
);
layerId = master01;
paths = (
{
closed = 1;
nodes = (
"195 534 OFFCURVE",
"179 542 OFFCURVE",
"141 542 CURVE",
"111 542 OFFCURVE",
"105 520 OFFCURVE",
"105 484 CURVE",
"105 141 LINE SMOOTH",
"105 69 OFFCURVE",
"126 58 OFFCURVE",
"149 58 CURVE",
"172 58 OFFCURVE",
"182 96 OFFCURVE",
"184 160 CURVE",
"187 278 LINE",
"201 278 LINE",
"204 157 LINE SMOOTH",
"206 62 OFFCURVE",
"177 -10 OFFCURVE",
"117 -10 CURVE",
"63 -10 OFFCURVE",
"35 21 OFFCURVE",
"35 107 CURVE",
"35 474 LINE SMOOTH",
"35 573 OFFCURVE",
"82 610 OFFCURVE",
"137 610 CURVE",
"189 610 OFFCURVE",
"214 579 OFFCURVE",
"214 516 CURVE",
"214 490 OFFCURVE",
"211 423 OFFCURVE",
"194 334 CURVE",
"118 334 LINE",
"178 451 OFFCURVE",
"195 489 OFFCURVE",
"195 515 CURVE SMOOTH"
);
}
);
width = 244;
},
{
anchors = (
{
name = bottom;
position = "{125, 0}";
},
{
name = top;
position = "{136, 640}";
}
);
associatedMasterId = master01;
layerId = "1F214B1F-D697-4FB7-BC4E-27E6C3324526";
name = foreground;
paths = (
{
closed = 1;
nodes = (
"195 534 OFFCURVE",
"179 542 OFFCURVE",
"141 542 CURVE",
"111 542 OFFCURVE",
"105 520 OFFCURVE",
"105 484 CURVE",
"105 141 LINE SMOOTH",
"105 69 OFFCURVE",
"126 58 OFFCURVE",
"149 58 CURVE",
"172 58 OFFCURVE",
"182 96 OFFCURVE",
"184 160 CURVE",
"187 278 LINE",
"201 278 LINE",
"204 157 LINE SMOOTH",
"206 62 OFFCURVE",
"177 -10 OFFCURVE",
"117 -10 CURVE",
"63 -10 OFFCURVE",
"35 21 OFFCURVE",
"35 107 CURVE",
"35 474 LINE SMOOTH",
"35 573 OFFCURVE",
"82 610 OFFCURVE",
"137 610 CURVE",
"189 610 OFFCURVE",
"214 579 OFFCURVE",
"214 516 CURVE",
"214 490 OFFCURVE",
"211 423 OFFCURVE",
"194 334 CURVE",
"118 334 LINE",
"178 451 OFFCURVE",
"195 489 OFFCURVE",
"195 515 CURVE SMOOTH"
);
}
);
width = 244;
}
);
leftKerningGroup = c;
rightKerningGroup = c;
unicode = 0063;
},
{
glyphname = d;
layers = (
{
layerId = master01;
paths = (
{
closed = 1;
nodes = (
"107 110 LINE SMOOTH",
"107 74 OFFCURVE",
"116 58 OFFCURVE",
"133 58 CURVE",
"155 58 OFFCURVE",
"178 126 OFFCURVE",
"178 218 CURVE",
"178 526 LINE",
"165 539 OFFCURVE",
"151 546 OFFCURVE",
"135 546 CURVE",
"116 546 OFFCURVE",
"107 532 OFFCURVE",
"107 446 CURVE"
);
},
{
closed = 1;
nodes = (
"35 440 LINE",
"35 560 OFFCURVE",
"64 610 OFFCURVE",
"128 610 CURVE",
"153 610 OFFCURVE",
"175 597 OFFCURVE",
"197 577 CURVE",
"203 583 LINE",
"178 609 LINE",
"178 730 LINE",
"248 730 LINE",
"248 0 LINE",
"179 0 LINE",
"179 11 LINE",
"202 163 LINE",
"192 165 LINE",
"171 15 OFFCURVE",
"137 -10 OFFCURVE",
"99 -10 CURVE",
"62 -10 OFFCURVE",
"35 21 OFFCURVE",
"35 71 CURVE"
);
}
);
width = 283;
},
{
associatedMasterId = master01;
layerId = "BB1C2BCA-79F5-4269-8143-5C547EE86271";
name = foreground;
paths = (
{
closed = 1;
nodes = (
"107 110 LINE SMOOTH",
"107 74 OFFCURVE",
"116 58 OFFCURVE",
"133 58 CURVE",
"155 58 OFFCURVE",
"178 126 OFFCURVE",
"178 218 CURVE",
"178 526 LINE",
"165 539 OFFCURVE",
"151 546 OFFCURVE",
"135 546 CURVE",
"116 546 OFFCURVE",
"107 532 OFFCURVE",
"107 446 CURVE"
);
},
{
closed = 1;
nodes = (
"35 440 LINE",
"35 560 OFFCURVE",
"64 610 OFFCURVE",
"128 610 CURVE",
"153 610 OFFCURVE",
"175 597 OFFCURVE",
"197 577 CURVE",
"203 583 LINE",
"178 609 LINE",
"178 730 LINE",
"248 730 LINE",
"248 0 LINE",
"179 0 LINE",
"179 11 LINE",
"202 163 LINE",
"192 165 LINE",
"171 15 OFFCURVE",
"137 -10 OFFCURVE",
"99 -10 CURVE",
"62 -10 OFFCURVE",
"35 21 OFFCURVE",
"35 71 CURVE"
);
}
);
width = 283;
}
);
leftKerningGroup = c;
unicode = 0064;
},
{
glyphname = eth;
layers = (
{
anchors = (
{
name = bottom;
position = "{125, 0}";
}
);
layerId = master01;
paths = (
{
closed = 1;
nodes = (
"107 141 LINE SMOOTH",
"107 69 OFFCURVE",
"126 58 OFFCURVE",
"148 58 CURVE",
"172 58 OFFCURVE",
"178 80 OFFCURVE",
"178 115 CURVE",
"178 526 LINE",
"165 539 OFFCURVE",
"151 546 OFFCURVE",
"135 546 CURVE",
"116 546 OFFCURVE",
"107 532 OFFCURVE",
"107 446 CURVE"
);
},
{
closed = 1;
nodes = (
"35 440 LINE",
"35 560 OFFCURVE",
"64 610 OFFCURVE",
"128 610 CURVE",
"153 610 OFFCURVE",
"175 597 OFFCURVE",
"197 577 CURVE",
"203 583 LINE",
"178 609 LINE",
"178 651 OFFCURVE",
"132 701 OFFCURVE",
"68 723 CURVE",
"68 730 LINE",
"156 730 LINE",
"212 710 OFFCURVE",
"248 641 OFFCURVE",
"248 561 CURVE",
"248 125 LINE SMOOTH",
"248 27 OFFCURVE",
"197 -10 OFFCURVE",
"136 -10 CURVE",
"71 -10 OFFCURVE",
"35 21 OFFCURVE",
"35 107 CURVE"
);
},
{
closed = 1;
nodes = (
"72 627 LINE",
"72 646 LINE",
"260 725 LINE",
"260 706 LINE"
);
}
);
width = 283;
},
{
anchors = (
{
name = bottom;
position = "{125, 0}";
}
);
associatedMasterId = master01;
layerId = "FCFF32DC-1550-47F4-B38C-5E55DC9B6AF4";
name = foreground;
paths = (
{
closed = 1;
nodes = (
"107 141 LINE SMOOTH",
"107 69 OFFCURVE",
"126 58 OFFCURVE",
"148 58 CURVE",
"172 58 OFFCURVE",
"178 80 OFFCURVE",
"178 115 CURVE",
"178 526 LINE",
"165 539 OFFCURVE",
"151 546 OFFCURVE",
"135 546 CURVE",
"116 546 OFFCURVE",
"107 532 OFFCURVE",
"107 446 CURVE"
);
},
{
closed = 1;
nodes = (
"35 440 LINE",
"35 560 OFFCURVE",
"64 610 OFFCURVE",
"128 610 CURVE",
"153 610 OFFCURVE",
"175 597 OFFCURVE",
"197 577 CURVE",
"203 583 LINE",
"178 609 LINE",
"178 651 OFFCURVE",
"132 701 OFFCURVE",
"68 723 CURVE",
"68 730 LINE",
"156 730 LINE",
"212 710 OFFCURVE",
"248 641 OFFCURVE",
"248 561 CURVE",
"248 125 LINE SMOOTH",
"248 27 OFFCURVE",
"197 -10 OFFCURVE",
"136 -10 CURVE",
"71 -10 OFFCURVE",
"35 21 OFFCURVE",
"35 107 CURVE"
);
},
{
closed = 1;
nodes = (
"72 627 LINE",
"72 646 LINE",
"260 725 LINE",
"260 706 LINE"
);
}
);
width = 283;
}
);
unicode = 00F0;
},
{
glyphname = dcroat;
lastChange = "2021-03-23 08:43:56 +0000";
layers = (
{
components = (
{
name = d;
}
);
layerId = master01;
paths = (
{
closed = 1;
nodes = (
"129 670 LINE",
"129 690 LINE",
"283 690 LINE",
"283 670 LINE"
);
}
);
width = 283;
}
);
unicode = 0111;
},
{
glyphname = e;
lastChange = "2021-03-23 09:02:42 +0000";
layers = (
{
anchors = (
{
name = bottom_right;
position = "{165, 0}";
},
{
name = top;
position = "{133, 640}";
}
);
layerId = master01;
paths = (
{
closed = 1;
nodes = (
"165 459 LINE",
"165 532 OFFCURVE",
"154 542 OFFCURVE",
"134 542 CURVE",
"110 542 OFFCURVE",
"105 520 OFFCURVE",
"105 484 CURVE",
"105 141 LINE SMOOTH",
"105 69 OFFCURVE",
"131 58 OFFCURVE",
"159 58 CURVE",
"189 58 OFFCURVE",
"202 96 OFFCURVE",
"204 160 CURVE",
"207 277 LINE",
"221 277 LINE",
"224 157 LINE SMOOTH",
"226 62 OFFCURVE",
"194 -10 OFFCURVE",
"127 -10 CURVE",
"66 -10 OFFCURVE",
"35 21 OFFCURVE",
"35 107 CURVE",
"35 474 LINE SMOOTH",
"35 573 OFFCURVE",
"81 610 OFFCURVE",
"141 610 CURVE",
"196 610 OFFCURVE",
"225 579 OFFCURVE",
"225 492 CURVE",
"225 332 LINE",
"165 332 LINE"
);
},
{
closed = 1;
nodes = (
"81 332 LINE",
"81 346 LINE",
"205 346 LINE",
"205 332 LINE"
);
}
);
width = 260;
},
{
anchors = (
{
name = bottom_right;
position = "{165, 0}";
},
{
name = top;
position = "{143, 640}";
}
);
associatedMasterId = master01;
layerId = "81B8E79F-FE98-43C9-9FE3-90BFD9F2BE53";
name = foreground;
paths = (
{
closed = 1;
nodes = (
"165 459 LINE",
"165 532 OFFCURVE",
"154 542 OFFCURVE",
"134 542 CURVE",
"110 542 OFFCURVE",
"105 520 OFFCURVE",
"105 484 CURVE",
"105 141 LINE SMOOTH",
"105 69 OFFCURVE",
"131 58 OFFCURVE",
"159 58 CURVE",
"189 58 OFFCURVE",
"202 96 OFFCURVE",
"204 160 CURVE",
"207 277 LINE",
"221 277 LINE",
"224 157 LINE SMOOTH",
"226 62 OFFCURVE",
"194 -10 OFFCURVE",
"127 -10 CURVE",
"66 -10 OFFCURVE",
"35 21 OFFCURVE",
"35 107 CURVE",
"35 474 LINE SMOOTH",
"35 573 OFFCURVE",
"81 610 OFFCURVE",
"141 610 CURVE",
"196 610 OFFCURVE",
"225 579 OFFCURVE",
"225 492 CURVE",
"225 332 LINE",
"165 332 LINE"
);
},
{
closed = 1;
nodes = (
"81 332 LINE",
"81 346 LINE",
"205 346 LINE",
"205 332 LINE"
);
}
);
width = 260;
}
);
leftKerningGroup = c;
rightKerningGroup = b;
unicode = 0065;
},
{
glyphname = eogonek;
layers = (
{
anchors = (
{
name = _bottom;
position = "{159, 0}";
},
{
name = _bottom_right;
position = "{166, 0}";
},
{
name = bottom_right;
position = "{165, 0}";
},
{
name = top;
position = "{143, 640}";
}
);
components = (
{
name = ogonek;
transform = "{1, 0, 0, 1, 41, 0}";
},
{
name = e;
}
);
layerId = master01;
paths = (
{
closed = 1;
nodes = (
"134 -21 LINE",
"128 -7 LINE",
"150 -2 LINE"
);
}
);
width = 260;
},
{
anchors = (
{
name = _bottom;
position = "{159, 0}";
},
{
name = _bottom_right;
position = "{166, 0}";
},
{
name = bottom_right;
position = "{165, 0}";
},
{
name = top;
position = "{143, 640}";
}
);
associatedMasterId = master01;
components = (
{
name = ogonek;
transform = "{1, 0, 0, 1, 41, 0}";
},
{
name = e;
}
);
layerId = "7EA9C24F-F6E5-42D5-8178-305D691AE3D0";
name = foreground;
paths = (
{
closed = 1;
nodes = (
"134 -21 LINE",
"128 -7 LINE",
"150 -2 LINE"
);
}
);
width = 260;
}
);
leftKerningGroup = c;
rightKerningGroup = b;
unicode = 0119;
},
{
glyphname = f;
layers = (
{
layerId = master01;
paths = (
{
closed = 1;
nodes = (
"121 0 LINE",
"51 0 LINE",
"51 509 LINE SMOOTH",
"51 622 OFFCURVE",
"143 730 OFFCURVE",
"232 730 CURVE",
"245 730 LINE",
"245 643 LINE",
"227 651 OFFCURVE",
"201 657 OFFCURVE",
"169 657 CURVE",
"140 657 OFFCURVE",
"121 651 OFFCURVE",
"121 629 CURVE"
);
},
{
closed = 1;
nodes = (
"209 549 LINE",
"8 549 LINE",
"8 600 LINE",
"209 600 LINE"
);
}
);
width = 199;
},
{
associatedMasterId = master01;
layerId = "30ED925C-8E5C-44C5-930F-72A5E05C8DEA";
name = foreground;
paths = (
{
closed = 1;
nodes = (
"121 0 LINE",
"51 0 LINE",
"51 509 LINE SMOOTH",
"51 622 OFFCURVE",
"143 730 OFFCURVE",
"232 730 CURVE",
"245 730 LINE",
"245 643 LINE",
"227 651 OFFCURVE",
"201 657 OFFCURVE",
"169 657 CURVE",
"140 657 OFFCURVE",
"121 651 OFFCURVE",
"121 629 CURVE"
);
},
{
closed = 1;
nodes = (
"209 549 LINE",
"8 549 LINE",
"8 600 LINE",
"209 600 LINE"
);
}
);
width = 199;
}
);
leftKerningGroup = f;
rightKerningGroup = f;
unicode = 0066;
},
{
glyphname = g;
lastChange = "2021-03-23 09:02:16 +0000";
layers = (
{
anchors = (
{
name = top;
position = "{136, 640}";
}
);
layerId = master01;
paths = (
{
closed = 1;
nodes = (
"103 532 OFFCURVE",
"98 510 OFFCURVE",
"98 475 CURVE",
"98 260 LINE SMOOTH",
"98 188 OFFCURVE",
"116 177 OFFCURVE",
"137 177 CURVE",
"159 177 OFFCURVE",
"164 199 OFFCURVE",
"164 234 CURVE",
"164 449 LINE SMOOTH",
"164 521 OFFCURVE",
"145 532 OFFCURVE",
"125 532 CURVE SMOOTH"
);
},
{
closed = 1;
nodes = (
"234 247 LINE SMOOTH",
"234 153 OFFCURVE",
"184 117 OFFCURVE",
"125 117 CURVE",
"62 117 OFFCURVE",
"28 151 OFFCURVE",
"28 234 CURVE",
"28 465 LINE SMOOTH",
"28 563 OFFCURVE",
"78 600 OFFCURVE",
"137 600 CURVE",
"281 600 LINE",
"281 485 LINE",
"223 568 OFFCURVE",
"188 582 OFFCURVE",
"141 583 CURVE",
"141 571 LINE",
"196 564 OFFCURVE",
"234 527 OFFCURVE",
"234 463 CURVE"
);
},
{
closed = 1;
nodes = (
"82 126 LINE",
"65 110 OFFCURVE",
"50 92 OFFCURVE",
"50 82 CURVE",
"50 73 OFFCURVE",
"56 68 OFFCURVE",
"75 68 CURVE",
"100 68 OFFCURVE",
"147 68 OFFCURVE",
"181 68 CURVE",
"243 68 OFFCURVE",
"272 47 OFFCURVE",
"272 6 CURVE",
"272 -47 OFFCURVE",
"176 -130 OFFCURVE",
"93 -130 CURVE",
"33 -130 OFFCURVE",
"9 -99 OFFCURVE",
"9 -69 CURVE",
"9 -33 OFFCURVE",
"31 -10 OFFCURVE",
"58 2 CURVE",
"92 3 LINE",
"72 -5 OFFCURVE",
"65 -17 OFFCURVE",
"65 -29 CURVE",
"65 -49 OFFCURVE",
"80 -66 OFFCURVE",
"158 -66 CURVE",
"204 -66 OFFCURVE",
"223 -58 OFFCURVE",
"223 -38 CURVE",
"223 -14 OFFCURVE",
"215 0 OFFCURVE",
"181 0 CURVE",
"154 0 OFFCURVE",
"119 0 OFFCURVE",
"86 0 CURVE",
"58 2 LINE",
"58 8 LINE",
"35 14 OFFCURVE",
"19 27 OFFCURVE",
"19 53 CURVE",
"19 88 OFFCURVE",
"51 114 OFFCURVE",
"67 136 CURVE"
);
}
);
width = 281;
},
{
anchors = (
{
name = top;
position = "{137, 600}";
}
);
associatedMasterId = master01;
layerId = "3C63109D-9923-42E3-B8C4-5E54257F08B3";
name = foreground;
paths = (
{
closed = 1;
nodes = (
"103 532 OFFCURVE",
"98 510 OFFCURVE",
"98 475 CURVE",
"98 260 LINE SMOOTH",
"98 188 OFFCURVE",
"116 177 OFFCURVE",
"137 177 CURVE",
"159 177 OFFCURVE",
"164 199 OFFCURVE",
"164 234 CURVE",
"164 449 LINE SMOOTH",
"164 521 OFFCURVE",
"145 532 OFFCURVE",
"125 532 CURVE SMOOTH"
);
},
{
closed = 1;
nodes = (
"234 247 LINE SMOOTH",
"234 153 OFFCURVE",
"184 117 OFFCURVE",
"125 117 CURVE",
"62 117 OFFCURVE",
"28 151 OFFCURVE",
"28 234 CURVE",
"28 465 LINE SMOOTH",
"28 563 OFFCURVE",
"78 600 OFFCURVE",
"137 600 CURVE",
"281 600 LINE",
"281 485 LINE",
"223 568 OFFCURVE",
"188 582 OFFCURVE",
"141 583 CURVE",
"141 571 LINE",
"196 564 OFFCURVE",
"234 527 OFFCURVE",
"234 463 CURVE"
);
},
{
closed = 1;
nodes = (
"82 126 LINE",
"65 110 OFFCURVE",
"50 92 OFFCURVE",
"50 82 CURVE",
"50 73 OFFCURVE",
"56 68 OFFCURVE",
"75 68 CURVE",
"100 68 OFFCURVE",
"147 68 OFFCURVE",
"181 68 CURVE",
"243 68 OFFCURVE",
"272 47 OFFCURVE",
"272 6 CURVE",
"272 -47 OFFCURVE",
"176 -130 OFFCURVE",
"93 -130 CURVE",
"33 -130 OFFCURVE",
"9 -99 OFFCURVE",
"9 -69 CURVE",
"9 -33 OFFCURVE",
"31 -10 OFFCURVE",
"58 2 CURVE",
"92 3 LINE",
"72 -5 OFFCURVE",
"65 -17 OFFCURVE",
"65 -29 CURVE",
"65 -49 OFFCURVE",
"80 -66 OFFCURVE",
"158 -66 CURVE",
"204 -66 OFFCURVE",
"223 -58 OFFCURVE",
"223 -38 CURVE",
"223 -14 OFFCURVE",
"215 0 OFFCURVE",
"181 0 CURVE",
"154 0 OFFCURVE",
"119 0 OFFCURVE",
"86 0 CURVE",
"58 2 LINE",
"58 8 LINE",
"35 14 OFFCURVE",
"19 27 OFFCURVE",
"19 53 CURVE",
"19 88 OFFCURVE",
"51 114 OFFCURVE",
"67 136 CURVE"
);
}
);
width = 281;
}
);
leftKerningGroup = g;
rightKerningGroup = g;
unicode = 0067;
},
{
glyphname = h;
layers = (
{
layerId = master01;
paths = (
{
closed = 1;
nodes = (
"105 730 LINE",
"105 589 LINE",
"81 437 LINE",
"91 435 LINE",
"112 585 OFFCURVE",
"146 610 OFFCURVE",
"184 610 CURVE",
"221 610 OFFCURVE",
"248 579 OFFCURVE",
"248 529 CURVE",
"248 0 LINE",
"178 0 LINE",
"178 490 LINE SMOOTH",
"178 526 OFFCURVE",
"173 542 OFFCURVE",
"154 542 CURVE",
"126 542 OFFCURVE",
"105 473 OFFCURVE",
"105 379 CURVE",
"105 0 LINE",
"35 0 LINE",
"35 730 LINE"
);
}
);
width = 283;
},
{
associatedMasterId = master01;
layerId = "F7B5B478-17E5-475C-AF48-CEFCDA5797F7";
name = foreground;
paths = (
{
closed = 1;
nodes = (
"105 730 LINE",
"105 589 LINE",
"81 437 LINE",
"91 435 LINE",
"112 585 OFFCURVE",
"146 610 OFFCURVE",
"184 610 CURVE",
"221 610 OFFCURVE",
"248 579 OFFCURVE",
"248 529 CURVE",
"248 0 LINE",
"178 0 LINE",
"178 490 LINE SMOOTH",
"178 526 OFFCURVE",
"173 542 OFFCURVE",
"154 542 CURVE",
"126 542 OFFCURVE",
"105 473 OFFCURVE",
"105 379 CURVE",
"105 0 LINE",
"35 0 LINE",
"35 730 LINE"
);
}
);
width = 283;
}
);
rightKerningGroup = h;
unicode = 0068;
},
{
glyphname = hbar;
lastChange = "2021-03-23 08:44:13 +0000";
layers = (
{
components = (
{
name = h;
}
);
layerId = master01;
paths = (
{
closed = 1;
nodes = (
"0 670 LINE",
"0 690 LINE",
"154 690 LINE",
"154 670 LINE"
);
}
);
width = 283;
}
);
unicode = 0127;
},
{
glyphname = i;
layers = (
{
anchors = (
{
name = bottom;
position = "{70, 0}";
},
{
name = top;
position = "{75, 637}";
}
);
components = (
{
name = idotless;
}
);
layerId = master01;
paths = (
{
closed = 1;
nodes = (
"17 679 LINE",
"123 679 LINE",
"123 730 LINE",
"17 730 LINE"
);
}
);
width = 140;
},
{
anchors = (
{
name = bottom;
position = "{70, 0}";
},
{
name = top;
position = "{75, 637}";
}
);
associatedMasterId = master01;
components = (
{
name = idotless;
}
);
layerId = "396DB831-FB10-4A34-ADD6-B0BC654A37C1";
name = foreground;
paths = (
{
closed = 1;
nodes = (
"17 679 LINE",
"123 679 LINE",
"123 730 LINE",
"17 730 LINE"
);
}
);
width = 140;
}
);
unicode = 0069;
},
{
glyphname = idotless;
lastChange = "2021-03-23 08:37:28 +0000";
layers = (
{
anchors = (
{
name = top;
position = "{75, 637}";
}
);
layerId = master01;
paths = (
{
closed = 1;
nodes = (
"105 600 LINE",
"105 0 LINE",
"35 0 LINE",
"35 600 LINE"
);
}
);
width = 140;
},
{
anchors = (
{
name = top;
position = "{75, 637}";
}
);
associatedMasterId = master01;
layerId = "1ECF8BCC-CFA1-4791-8FAA-8C5A88D5099D";
name = foreground;
paths = (
{
closed = 1;
nodes = (
"105 600 LINE",
"105 0 LINE",
"35 0 LINE",
"35 600 LINE"
);
}
);
width = 140;
}
);
leftKerningGroup = m;
unicode = 0131;
},
{
glyphname = iogonek;
layers = (
{
layerId = master01;
paths = (
{
closed = 1;
nodes = (
"17 679 LINE",
"123 679 LINE",
"123 730 LINE",
"17 730 LINE"
);
},
{
closed = 1;
nodes = (
"105 600 LINE",
"105 0 LINE",
"35 0 LINE",
"35 600 LINE"
);
},
{
closed = 1;
nodes = (
"47 -130 OFFCURVE",
"22 -109 OFFCURVE",
"22 -71 CURVE",
"22 -46 OFFCURVE",
"34 -27 OFFCURVE",
"56 0 CURVE",
"70 0 LINE",
"54 -23 OFFCURVE",
"46 -39 OFFCURVE",
"46 -52 CURVE",
"46 -67 OFFCURVE",
"53 -72 OFFCURVE",
"65 -72 CURVE",
"81 -72 OFFCURVE",
"104 -60 OFFCURVE",
"119 -49 CURVE",
"122 -124 LINE",
"110 -128 OFFCURVE",
"95 -130 OFFCURVE",
"79 -130 CURVE SMOOTH"
);
}
);
width = 140;
},
{
associatedMasterId = master01;
layerId = "E0E5FE85-18EC-4A19-B7D1-63078BA630B5";
name = foreground;
paths = (
{
closed = 1;
nodes = (
"17 679 LINE",
"123 679 LINE",
"123 730 LINE",
"17 730 LINE"
);
},
{
closed = 1;
nodes = (
"105 600 LINE",
"105 0 LINE",
"35 0 LINE",
"35 600 LINE"
);
},
{
closed = 1;
nodes = (
"47 -130 OFFCURVE",
"22 -109 OFFCURVE",
"22 -71 CURVE",
"22 -46 OFFCURVE",
"34 -27 OFFCURVE",
"56 0 CURVE",
"70 0 LINE",
"54 -23 OFFCURVE",
"46 -39 OFFCURVE",
"46 -52 CURVE",
"46 -67 OFFCURVE",
"53 -72 OFFCURVE",
"65 -72 CURVE",
"81 -72 OFFCURVE",
"104 -60 OFFCURVE",
"119 -49 CURVE",
"122 -124 LINE",
"110 -128 OFFCURVE",
"95 -130 OFFCURVE",
"79 -130 CURVE SMOOTH"
);
}
);
width = 140;
}
);
unicode = 012F;
},
{
glyphname = j;
layers = (
{
components = (
{
name = uni0237;
}
);
layerId = master01;
paths = (
{
closed = 1;
nodes = (
"17 679 LINE",
"123 679 LINE",
"123 730 LINE",
"17 730 LINE"
);
}
);
width = 140;
},
{
associatedMasterId = master01;
components = (
{
name = uni0237;
}
);
layerId = "D8A8032C-F569-4218-ACA7-550081D8058D";
name = foreground;
paths = (
{
closed = 1;
nodes = (
"17 679 LINE",
"123 679 LINE",
"123 730 LINE",
"17 730 LINE"
);
}
);
width = 140;
}
);
leftKerningGroup = j;
rightKerningGroup = j;
unicode = 006A;
},
{
glyphname = uni0237;
layers = (
{
layerId = master01;
paths = (
{
closed = 1;
nodes = (
"35 600 LINE",
"105 600 LINE",
"105 137 LINE SMOOTH",
"105 -22 OFFCURVE",
"13 -130 OFFCURVE",
"-76 -130 CURVE",
"-89 -130 LINE",
"-89 -43 LINE",
"-71 -51 OFFCURVE",
"-45 -57 OFFCURVE",
"-13 -57 CURVE",
"16 -57 OFFCURVE",
"35 -51 OFFCURVE",
"35 -29 CURVE"
);
}
);
width = 140;
},
{
associatedMasterId = master01;
layerId = "97E22B41-B64E-4C58-8689-24F0404D3B35";
name = foreground;
paths = (
{
closed = 1;
nodes = (
"35 600 LINE",
"105 600 LINE",
"105 137 LINE SMOOTH",
"105 -22 OFFCURVE",
"13 -130 OFFCURVE",
"-76 -130 CURVE",
"-89 -130 LINE",
"-89 -43 LINE",
"-71 -51 OFFCURVE",
"-45 -57 OFFCURVE",
"-13 -57 CURVE",
"16 -57 OFFCURVE",
"35 -51 OFFCURVE",
"35 -29 CURVE"
);
}
);
width = 140;
}
);
unicode = 0237;
},
{
glyphname = k;
layers = (
{
anchors = (
{
name = bottom;
position = "{150, 0}";
}
);
layerId = master01;
paths = (
{
closed = 1;
nodes = (
"107 349 LINE",
"119 338 LINE",
"218 351 LINE",
"264 0 LINE",
"188 0 LINE",
"168 231 LINE SMOOTH",
"162 305 OFFCURVE",
"143 322 OFFCURVE",
"104 315 CURVE"
);
},
{
closed = 1;
nodes = (
"106 730 LINE",
"106 649 LINE",
"82 354 LINE",
"92 352 LINE",
"165 600 LINE",
"255 600 LINE",
"255 538 LINE",
"233 532 LINE SMOOTH",
"190 520 OFFCURVE",
"168 491 OFFCURVE",
"136 412 CURVE",
"112 352 OFFCURVE",
"106 317 OFFCURVE",
"106 264 CURVE",
"106 0 LINE",
"36 0 LINE",
"36 730 LINE"
);
}
);
width = 274;
},
{
anchors = (
{
name = bottom;
position = "{150, 0}";
}
);
associatedMasterId = master01;
layerId = "AE7B2DAE-0739-46E8-8274-2AD264879463";
name = foreground;
paths = (
{
closed = 1;
nodes = (
"107 349 LINE",
"119 338 LINE",
"218 351 LINE",
"264 0 LINE",
"188 0 LINE",
"168 231 LINE SMOOTH",
"162 305 OFFCURVE",
"143 322 OFFCURVE",
"104 315 CURVE"
);
},
{
closed = 1;
nodes = (
"106 730 LINE",
"106 649 LINE",
"82 354 LINE",
"92 352 LINE",
"165 600 LINE",
"255 600 LINE",
"255 538 LINE",
"233 532 LINE SMOOTH",
"190 520 OFFCURVE",
"168 491 OFFCURVE",
"136 412 CURVE",
"112 352 OFFCURVE",
"106 317 OFFCURVE",
"106 264 CURVE",
"106 0 LINE",
"36 0 LINE",
"36 730 LINE"
);
}
);
width = 274;
}
);
rightKerningGroup = k;
unicode = 006B;
},
{
glyphname = l;
layers = (
{
anchors = (
{
name = bottom;
position = "{70, 0}";
}
);
layerId = master01;
paths = (
{
closed = 1;
nodes = (
"105 730 LINE",
"105 0 LINE",
"35 0 LINE",
"35 730 LINE"
);
}
);
width = 140;
},
{
anchors = (
{
name = bottom;
position = "{70, 0}";
}
);
associatedMasterId = master01;
layerId = "277B0C07-614E-418A-BFF0-1A62940C5BE9";
name = foreground;
paths = (
{
closed = 1;
nodes = (
"105 730 LINE",
"105 0 LINE",
"35 0 LINE",
"35 730 LINE"
);
}
);
width = 140;
}
);
unicode = 006C;
},
{
glyphname = lslash;
layers = (
{
components = (
{
name = l;
}
);
layerId = master01;
paths = (
{
closed = 1;
nodes = (
"0 306 LINE",
"0 332 LINE",
"140 419 LINE",
"140 393 LINE"
);
}
);
width = 140;
},
{
associatedMasterId = master01;
components = (
{
name = l;
}
);
layerId = "6E66189A-A333-417F-B428-BCDC730E0306";
name = foreground;
paths = (
{
closed = 1;
nodes = (
"0 306 LINE",
"0 332 LINE",
"140 419 LINE",
"140 393 LINE"
);
}
);
width = 140;
}
);
unicode = 0142;
},
{
glyphname = m;
layers = (
{
layerId = master01;
paths = (
{
closed = 1;
nodes = (
"214 435 LINE",
"224 433 LINE",
"245 585 OFFCURVE",
"276 610 OFFCURVE",
"312 610 CURVE",
"346 610 OFFCURVE",
"371 579 OFFCURVE",
"371 529 CURVE",
"371 0 LINE",
"301 0 LINE",
"301 490 LINE SMOOTH",
"301 526 OFFCURVE",
"297 542 OFFCURVE",
"282 542 CURVE",
"259 542 OFFCURVE",
"238 471 OFFCURVE",
"238 380 CURVE",
"238 0 LINE",
"168 0 LINE",
"168 490 LINE SMOOTH",
"168 526 OFFCURVE",
"164 542 OFFCURVE",
"149 542 CURVE",
"126 542 OFFCURVE",
"105 471 OFFCURVE",
"105 380 CURVE",
"105 0 LINE",
"35 0 LINE",
"35 600 LINE",
"105 600 LINE",
"105 589 LINE",
"81 437 LINE",
"91 435 LINE",
"112 585 OFFCURVE",
"143 610 OFFCURVE",
"179 610 CURVE",
"211 610 OFFCURVE",
"235 583 OFFCURVE",
"228 533 CURVE"
);
}
);
width = 406;
},
{
associatedMasterId = master01;
layerId = "179BB5A3-B455-4090-9367-EE208CCCD62C";
name = foreground;
paths = (
{
closed = 1;
nodes = (
"214 435 LINE",
"224 433 LINE",
"245 585 OFFCURVE",
"276 610 OFFCURVE",
"312 610 CURVE",
"346 610 OFFCURVE",
"371 579 OFFCURVE",
"371 529 CURVE",
"371 0 LINE",
"301 0 LINE",
"301 490 LINE SMOOTH",
"301 526 OFFCURVE",
"297 542 OFFCURVE",
"282 542 CURVE",
"259 542 OFFCURVE",
"238 471 OFFCURVE",
"238 380 CURVE",
"238 0 LINE",
"168 0 LINE",
"168 490 LINE SMOOTH",
"168 526 OFFCURVE",
"164 542 OFFCURVE",
"149 542 CURVE",
"126 542 OFFCURVE",
"105 471 OFFCURVE",
"105 380 CURVE",
"105 0 LINE",
"35 0 LINE",
"35 600 LINE",
"105 600 LINE",
"105 589 LINE",
"81 437 LINE",
"91 435 LINE",
"112 585 OFFCURVE",
"143 610 OFFCURVE",
"179 610 CURVE",
"211 610 OFFCURVE",
"235 583 OFFCURVE",
"228 533 CURVE"
);
}
);
width = 406;
}
);
leftKerningGroup = m;
rightKerningGroup = h;
unicode = 006D;
},
{
glyphname = n;
layers = (
{
anchors = (
{
name = bottom;
position = "{142, 0}";
},
{
name = top;
position = "{146, 640}";
}
);
layerId = master01;
paths = (
{
closed = 1;
nodes = (
"105 600 LINE",
"105 589 LINE",
"81 437 LINE",
"91 435 LINE",
"112 585 OFFCURVE",
"146 610 OFFCURVE",
"184 610 CURVE",
"221 610 OFFCURVE",
"248 579 OFFCURVE",
"248 529 CURVE",
"248 0 LINE",
"178 0 LINE",
"178 490 LINE SMOOTH",
"178 526 OFFCURVE",
"173 542 OFFCURVE",
"154 542 CURVE",
"126 542 OFFCURVE",
"105 473 OFFCURVE",
"105 380 CURVE",
"105 0 LINE",
"35 0 LINE",
"35 600 LINE"
);
}
);
width = 283;
},
{
anchors = (
{
name = bottom;
position = "{142, 0}";
},
{
name = top;
position = "{146, 640}";
}
);
associatedMasterId = master01;
layerId = "897A60D6-939A-401F-A338-440E1CCF59E3";
name = foreground;
paths = (
{
closed = 1;
nodes = (
"105 600 LINE",
"105 589 LINE",
"81 437 LINE",
"91 435 LINE",
"112 585 OFFCURVE",
"146 610 OFFCURVE",
"184 610 CURVE",
"221 610 OFFCURVE",
"248 579 OFFCURVE",
"248 529 CURVE",
"248 0 LINE",
"178 0 LINE",
"178 490 LINE SMOOTH",
"178 526 OFFCURVE",
"173 542 OFFCURVE",
"154 542 CURVE",
"126 542 OFFCURVE",
"105 473 OFFCURVE",
"105 380 CURVE",
"105 0 LINE",
"35 0 LINE",
"35 600 LINE"
);
}
);
width = 283;
}
);
leftKerningGroup = m;
rightKerningGroup = h;
unicode = 006E;
},
{
glyphname = eng;
lastChange = "2021-03-23 08:45:02 +0000";
layers = (
{
anchors = (
{
name = bottom;
position = "{142, 0}";
},
{
name = top;
position = "{146, 640}";
}
);
background = {
components = (
{
name = n;
}
);
};
layerId = master01;
paths = (
{
closed = 1;
nodes = (
"248 -8 OFFCURVE",
"165 -130 OFFCURVE",
"104 -130 CURVE SMOOTH",
"84 -130 LINE",
"84 -53 LINE",
"103 -55 OFFCURVE",
"117 -57 OFFCURVE",
"140 -57 CURVE",
"163 -57 OFFCURVE",
"178 -49 OFFCURVE",
"178 -19 CURVE SMOOTH",
"178 490 LINE SMOOTH",
"178 526 OFFCURVE",
"173 542 OFFCURVE",
"154 542 CURVE",
"126 542 OFFCURVE",
"105 473 OFFCURVE",
"105 380 CURVE",
"105 0 LINE",
"35 0 LINE",
"35 600 LINE",
"105 600 LINE",
"105 589 LINE",
"81 437 LINE",
"91 435 LINE",
"112 585 OFFCURVE",
"146 610 OFFCURVE",
"184 610 CURVE",
"221 610 OFFCURVE",
"248 579 OFFCURVE",
"248 529 CURVE",
"248 139 LINE SMOOTH"
);
}
);
width = 283;
}
);
unicode = 014B;
},
{
glyphname = o;
layers = (
{
anchors = (
{
name = top;
position = "{143, 640}";
}
);
layerId = master01;
paths = (
{
closed = 1;
nodes = (
"110 542 OFFCURVE",
"105 520 OFFCURVE",
"105 485 CURVE",
"105 141 LINE SMOOTH",
"105 69 OFFCURVE",
"123 58 OFFCURVE",
"144 58 CURVE",
"166 58 OFFCURVE",
"171 80 OFFCURVE",
"171 115 CURVE",
"171 459 LINE SMOOTH",
"171 531 OFFCURVE",
"152 542 OFFCURVE",
"132 542 CURVE SMOOTH"
);
},
{
closed = 1;
nodes = (
"69 -10 OFFCURVE",
"35 21 OFFCURVE",
"35 107 CURVE",
"35 475 LINE SMOOTH",
"35 573 OFFCURVE",
"85 610 OFFCURVE",
"144 610 CURVE",
"208 610 OFFCURVE",
"241 579 OFFCURVE",
"241 493 CURVE",
"241 125 LINE SMOOTH",
"241 27 OFFCURVE",
"191 -10 OFFCURVE",
"132 -10 CURVE SMOOTH"
);
}
);
width = 276;
},
{
anchors = (
{
name = top;
position = "{143, 640}";
}
);
associatedMasterId = master01;
layerId = "0F440B6B-E1BE-458B-A081-EB59AC445769";
name = foreground;
paths = (
{
closed = 1;
nodes = (
"110 542 OFFCURVE",
"105 520 OFFCURVE",
"105 485 CURVE",
"105 141 LINE SMOOTH",
"105 69 OFFCURVE",
"123 58 OFFCURVE",
"144 58 CURVE",
"166 58 OFFCURVE",
"171 80 OFFCURVE",
"171 115 CURVE",
"171 459 LINE SMOOTH",
"171 531 OFFCURVE",
"152 542 OFFCURVE",
"132 542 CURVE SMOOTH"
);
},
{
closed = 1;
nodes = (
"69 -10 OFFCURVE",
"35 21 OFFCURVE",
"35 107 CURVE",
"35 475 LINE SMOOTH",
"35 573 OFFCURVE",
"85 610 OFFCURVE",
"144 610 CURVE",
"208 610 OFFCURVE",
"241 579 OFFCURVE",
"241 493 CURVE",
"241 125 LINE SMOOTH",
"241 27 OFFCURVE",
"191 -10 OFFCURVE",
"132 -10 CURVE SMOOTH"
);
}
);
width = 276;
}
);
leftKerningGroup = c;
rightKerningGroup = b;
unicode = 006F;
},
{
glyphname = oslash;
layers = (
{
anchors = (
{
name = top;
position = "{143, 640}";
}
);
components = (
{
name = o;
}
);
layerId = master01;
paths = (
{
closed = 1;
nodes = (
"22 0 LINE",
"0 0 LINE",
"254 600 LINE",
"276 600 LINE"
);
}
);
width = 276;
},
{
anchors = (
{
name = top;
position = "{143, 640}";
}
);
associatedMasterId = master01;
components = (
{
name = o;
}
);
layerId = "259DC7D4-2CD4-4133-8335-7F7251915268";
name = foreground;
paths = (
{
closed = 1;
nodes = (
"22 0 LINE",
"0 0 LINE",
"254 600 LINE",
"276 600 LINE"
);
}
);
width = 276;
}
);
leftKerningGroup = c;
rightKerningGroup = b;
unicode = 00F8;
},
{
glyphname = oe;
layers = (
{
layerId = master01;
paths = (
{
closed = 1;
nodes = (
"110 542 OFFCURVE",
"105 520 OFFCURVE",
"105 485 CURVE",
"105 141 LINE SMOOTH",
"105 69 OFFCURVE",
"123 58 OFFCURVE",
"144 58 CURVE",
"166 58 OFFCURVE",
"171 80 OFFCURVE",
"171 115 CURVE",
"171 459 LINE SMOOTH",
"171 531 OFFCURVE",
"152 542 OFFCURVE",
"132 542 CURVE SMOOTH"
);
},
{
closed = 1;
nodes = (
"69 -10 OFFCURVE",
"35 21 OFFCURVE",
"35 107 CURVE",
"35 475 LINE SMOOTH",
"35 573 OFFCURVE",
"85 610 OFFCURVE",
"144 610 CURVE",
"192 610 OFFCURVE",
"217 580 OFFCURVE",
"217 493 CURVE",
"217 475 LINE",
"226 475 LINE",
"186 125 LINE",
"186 27 OFFCURVE",
"161 -10 OFFCURVE",
"119 -10 CURVE SMOOTH"
);
},
{
closed = 1;
nodes = (
"301 460 LINE",
"301 532 OFFCURVE",
"290 542 OFFCURVE",
"270 542 CURVE",
"246 542 OFFCURVE",
"241 520 OFFCURVE",
"241 485 CURVE",
"241 141 LINE SMOOTH",
"241 69 OFFCURVE",
"267 58 OFFCURVE",
"295 58 CURVE",
"325 58 OFFCURVE",
"338 96 OFFCURVE",
"340 160 CURVE",
"343 277 LINE",
"357 277 LINE",
"360 157 LINE SMOOTH",
"362 62 OFFCURVE",
"330 -10 OFFCURVE",
"263 -10 CURVE",
"218 -10 OFFCURVE",
"195 19 OFFCURVE",
"195 107 CURVE",
"195 125 LINE",
"186 125 LINE",
"226 475 LINE",
"226 573 OFFCURVE",
"248 610 OFFCURVE",
"290 610 CURVE",
"332 610 OFFCURVE",
"361 579 OFFCURVE",
"361 493 CURVE",
"361 332 LINE",
"301 332 LINE"
);
},
{
closed = 1;
nodes = (
"216 332 LINE",
"216 346 LINE",
"340 346 LINE",
"340 332 LINE"
);
}
);
width = 396;
},
{
associatedMasterId = master01;
layerId = "A1BB89DD-0079-43EB-AE03-3830E26AF242";
name = foreground;
paths = (
{
closed = 1;
nodes = (
"110 542 OFFCURVE",
"105 520 OFFCURVE",
"105 485 CURVE",
"105 141 LINE SMOOTH",
"105 69 OFFCURVE",
"123 58 OFFCURVE",
"144 58 CURVE",
"166 58 OFFCURVE",
"171 80 OFFCURVE",
"171 115 CURVE",
"171 459 LINE SMOOTH",
"171 531 OFFCURVE",
"152 542 OFFCURVE",
"132 542 CURVE SMOOTH"
);
},
{
closed = 1;
nodes = (
"69 -10 OFFCURVE",
"35 21 OFFCURVE",
"35 107 CURVE",
"35 475 LINE SMOOTH",
"35 573 OFFCURVE",
"85 610 OFFCURVE",
"144 610 CURVE",
"192 610 OFFCURVE",
"217 580 OFFCURVE",
"217 493 CURVE",
"217 475 LINE",
"226 475 LINE",
"186 125 LINE",
"186 27 OFFCURVE",
"161 -10 OFFCURVE",
"119 -10 CURVE SMOOTH"
);
},
{
closed = 1;
nodes = (
"301 460 LINE",
"301 532 OFFCURVE",
"290 542 OFFCURVE",
"270 542 CURVE",
"246 542 OFFCURVE",
"241 520 OFFCURVE",
"241 485 CURVE",
"241 141 LINE SMOOTH",
"241 69 OFFCURVE",
"267 58 OFFCURVE",
"295 58 CURVE",
"325 58 OFFCURVE",
"338 96 OFFCURVE",
"340 160 CURVE",
"343 277 LINE",
"357 277 LINE",
"360 157 LINE SMOOTH",
"362 62 OFFCURVE",
"330 -10 OFFCURVE",
"263 -10 CURVE",
"218 -10 OFFCURVE",
"195 19 OFFCURVE",
"195 107 CURVE",
"195 125 LINE",
"186 125 LINE",
"226 475 LINE",
"226 573 OFFCURVE",
"248 610 OFFCURVE",
"290 610 CURVE",
"332 610 OFFCURVE",
"361 579 OFFCURVE",
"361 493 CURVE",
"361 332 LINE",
"301 332 LINE"
);
},
{
closed = 1;
nodes = (
"216 332 LINE",
"216 346 LINE",
"340 346 LINE",
"340 332 LINE"
);
}
);
width = 396;
}
);
leftKerningGroup = c;
rightKerningGroup = b;
unicode = 0153;
},
{
glyphname = thorn;
layers = (
{
layerId = master01;
paths = (
{
closed = 1;
nodes = (
"176 490 LINE SMOOTH",
"176 526 OFFCURVE",
"167 542 OFFCURVE",
"150 542 CURVE",
"128 542 OFFCURVE",
"105 474 OFFCURVE",
"105 382 CURVE",
"105 74 LINE",
"118 61 OFFCURVE",
"132 54 OFFCURVE",
"148 54 CURVE",
"167 54 OFFCURVE",
"176 68 OFFCURVE",
"176 154 CURVE"
);
},
{
closed = 1;
nodes = (
"248 160 LINE",
"248 40 OFFCURVE",
"219 -10 OFFCURVE",
"155 -10 CURVE",
"130 -10 OFFCURVE",
"108 3 OFFCURVE",
"86 23 CURVE",
"80 17 LINE",
"105 -9 LINE",
"105 -130 LINE",
"35 -130 LINE",
"35 730 LINE",
"104 730 LINE",
"104 589 LINE",
"81 437 LINE",
"91 435 LINE",
"112 585 OFFCURVE",
"146 610 OFFCURVE",
"184 610 CURVE",
"221 610 OFFCURVE",
"248 579 OFFCURVE",
"248 529 CURVE"
);
}
);
width = 283;
},
{
associatedMasterId = master01;
layerId = "F9985FFB-DFC4-40E2-97CC-9050820813F3";
name = foreground;
paths = (
{
closed = 1;
nodes = (
"176 490 LINE SMOOTH",
"176 526 OFFCURVE",
"167 542 OFFCURVE",
"150 542 CURVE",
"128 542 OFFCURVE",
"105 474 OFFCURVE",
"105 382 CURVE",
"105 74 LINE",
"118 61 OFFCURVE",
"132 54 OFFCURVE",
"148 54 CURVE",
"167 54 OFFCURVE",
"176 68 OFFCURVE",
"176 154 CURVE"
);
},
{
closed = 1;
nodes = (
"248 160 LINE",
"248 40 OFFCURVE",
"219 -10 OFFCURVE",
"155 -10 CURVE",
"130 -10 OFFCURVE",
"108 3 OFFCURVE",
"86 23 CURVE",
"80 17 LINE",
"105 -9 LINE",
"105 -130 LINE",
"35 -130 LINE",
"35 730 LINE",
"104 730 LINE",
"104 589 LINE",
"81 437 LINE",
"91 435 LINE",
"112 585 OFFCURVE",
"146 610 OFFCURVE",
"184 610 CURVE",
"221 610 OFFCURVE",
"248 579 OFFCURVE",
"248 529 CURVE"
);
}
);
width = 283;
}
);
rightKerningGroup = thorn;
unicode = 00FE;
},
{
glyphname = r;
lastChange = "2021-03-23 09:02:50 +0000";
layers = (
{
anchors = (
{
name = top;
position = "{126, 640}";
}
);
layerId = master01;
paths = (
{
closed = 1;
nodes = (
"140 536 OFFCURVE",
"105 483 OFFCURVE",
"105 382 CURVE",
"105 0 LINE",
"35 0 LINE",
"35 600 LINE",
"104 600 LINE",
"104 589 LINE",
"82 437 LINE",
"92 435 LINE",
"113 585 OFFCURVE",
"138 610 OFFCURVE",
"172 610 CURVE",
"202 610 OFFCURVE",
"217 577 OFFCURVE",
"217 511 CURVE",
"217 485 OFFCURVE",
"214 418 OFFCURVE",
"197 329 CURVE",
"121 329 LINE",
"178 449 OFFCURVE",
"199 492 OFFCURVE",
"199 510 CURVE",
"199 528 OFFCURVE",
"190 536 OFFCURVE",
"172 536 CURVE SMOOTH"
);
}
);
width = 227;
},
{
associatedMasterId = master01;
layerId = "7176760C-63F1-4A62-B3A6-4E3DE4996EB6";
name = foreground;
paths = (
{
closed = 1;
nodes = (
"140 536 OFFCURVE",
"105 483 OFFCURVE",
"105 382 CURVE",
"105 0 LINE",
"35 0 LINE",
"35 600 LINE",
"104 600 LINE",
"104 589 LINE",
"82 437 LINE",
"92 435 LINE",
"113 585 OFFCURVE",
"138 610 OFFCURVE",
"172 610 CURVE",
"202 610 OFFCURVE",
"217 577 OFFCURVE",
"217 511 CURVE",
"217 485 OFFCURVE",
"214 418 OFFCURVE",
"197 329 CURVE",
"121 329 LINE",
"178 449 OFFCURVE",
"199 492 OFFCURVE",
"199 510 CURVE",
"199 528 OFFCURVE",
"190 536 OFFCURVE",
"172 536 CURVE SMOOTH"
);
}
);
width = 227;
}
);
leftKerningGroup = m;
rightKerningGroup = r;
unicode = 0072;
},
{
glyphname = s;
layers = (
{
anchors = (
{
name = bottom;
position = "{112, 0}";
},
{
name = top;
position = "{126, 640}";
}
);
layerId = master01;
paths = (
{
closed = 1;
nodes = (
"221 27 OFFCURVE",
"170 -10 OFFCURVE",
"110 -10 CURVE",
"51 -10 OFFCURVE",
"23 21 OFFCURVE",
"23 83 CURVE",
"23 134 OFFCURVE",
"27 191 OFFCURVE",
"34 235 CURVE",
"106 235 LINE",
"55 137 OFFCURVE",
"42 105 OFFCURVE",
"42 84 CURVE",
"42 66 OFFCURVE",
"61 58 OFFCURVE",
"110 58 CURVE",
"143 58 OFFCURVE",
"151 78 OFFCURVE",
"151 104 CURVE",
"151 203 OFFCURVE",
"18 378 OFFCURVE",
"18 486 CURVE",
"18 575 OFFCURVE",
"69 610 OFFCURVE",
"129 610 CURVE",
"181 610 OFFCURVE",
"206 580 OFFCURVE",
"206 518 CURVE",
"206 478 OFFCURVE",
"204 432 OFFCURVE",
"195 379 CURVE",
"129 379 LINE",
"174 468 OFFCURVE",
"187 497 OFFCURVE",
"187 517 CURVE",
"187 535 OFFCURVE",
"171 542 OFFCURVE",
"129 542 CURVE",
"96 542 OFFCURVE",
"88 524 OFFCURVE",
"88 498 CURVE",
"88 413 OFFCURVE",
"221 200 OFFCURVE",
"221 113 CURVE SMOOTH"
);
}
);
width = 238;
},
{
anchors = (
{
name = bottom;
position = "{112, 0}";
},
{
name = top;
position = "{126, 640}";
}
);
associatedMasterId = master01;
layerId = "5D69F3D8-C8BB-4952-8ACC-9AD46B5E25F6";
name = foreground;
paths = (
{
closed = 1;
nodes = (
"221 27 OFFCURVE",
"170 -10 OFFCURVE",
"110 -10 CURVE",
"51 -10 OFFCURVE",
"23 21 OFFCURVE",
"23 83 CURVE",
"23 134 OFFCURVE",
"27 191 OFFCURVE",
"34 235 CURVE",
"106 235 LINE",
"55 137 OFFCURVE",
"42 105 OFFCURVE",
"42 84 CURVE",
"42 66 OFFCURVE",
"61 58 OFFCURVE",
"110 58 CURVE",
"143 58 OFFCURVE",
"151 78 OFFCURVE",
"151 104 CURVE",
"151 203 OFFCURVE",
"18 378 OFFCURVE",
"18 486 CURVE",
"18 575 OFFCURVE",
"69 610 OFFCURVE",
"129 610 CURVE",
"181 610 OFFCURVE",
"206 580 OFFCURVE",
"206 518 CURVE",
"206 478 OFFCURVE",
"204 432 OFFCURVE",
"195 379 CURVE",
"129 379 LINE",
"174 468 OFFCURVE",
"187 497 OFFCURVE",
"187 517 CURVE",
"187 535 OFFCURVE",
"171 542 OFFCURVE",
"129 542 CURVE",
"96 542 OFFCURVE",
"88 524 OFFCURVE",
"88 498 CURVE",
"88 413 OFFCURVE",
"221 200 OFFCURVE",
"221 113 CURVE SMOOTH"
);
}
);
width = 238;
}
);
leftKerningGroup = scaron;
rightKerningGroup = scaron;
unicode = 0073;
},
{
glyphname = germandbls;
layers = (
{
layerId = master01;
paths = (
{
closed = 1;
nodes = (
"345 559 OFFCURVE",
"216 552 OFFCURVE",
"216 478 CURVE",
"216 397 OFFCURVE",
"349 195 OFFCURVE",
"349 113 CURVE",
"349 27 OFFCURVE",
"298 -10 OFFCURVE",
"238 -10 CURVE",
"179 -10 OFFCURVE",
"151 21 OFFCURVE",
"151 83 CURVE",
"151 134 OFFCURVE",
"155 191 OFFCURVE",
"162 235 CURVE",
"234 235 LINE",
"183 137 OFFCURVE",
"170 105 OFFCURVE",
"170 84 CURVE",
"170 66 OFFCURVE",
"189 58 OFFCURVE",
"238 58 CURVE",
"271 58 OFFCURVE",
"279 78 OFFCURVE",
"279 104 CURVE",
"279 198 OFFCURVE",
"146 364 OFFCURVE",
"146 466 CURVE",
"146 594 OFFCURVE",
"305 572 OFFCURVE",
"305 624 CURVE",
"305 659 OFFCURVE",
"261 677 OFFCURVE",
"182 677 CURVE",
"119 677 OFFCURVE",
"100 667 OFFCURVE",
"100 629 CURVE",
"100 0 LINE",
"30 0 LINE",
"30 509 LINE SMOOTH",
"30 627 OFFCURVE",
"122 740 OFFCURVE",
"236 740 CURVE",
"308 740 OFFCURVE",
"345 716 OFFCURVE",
"345 668 CURVE SMOOTH"
);
}
);
width = 354;
},
{
associatedMasterId = master01;
layerId = "2D82BC61-67EF-4D8E-9184-2071BCDC558E";
name = foreground;
paths = (
{
closed = 1;
nodes = (
"345 559 OFFCURVE",
"216 552 OFFCURVE",
"216 478 CURVE",
"216 397 OFFCURVE",
"349 195 OFFCURVE",
"349 113 CURVE",
"349 27 OFFCURVE",
"298 -10 OFFCURVE",
"238 -10 CURVE",
"179 -10 OFFCURVE",
"151 21 OFFCURVE",
"151 83 CURVE",
"151 134 OFFCURVE",
"155 191 OFFCURVE",
"162 235 CURVE",
"234 235 LINE",
"183 137 OFFCURVE",
"170 105 OFFCURVE",
"170 84 CURVE",
"170 66 OFFCURVE",
"189 58 OFFCURVE",
"238 58 CURVE",
"271 58 OFFCURVE",
"279 78 OFFCURVE",
"279 104 CURVE",
"279 198 OFFCURVE",
"146 364 OFFCURVE",
"146 466 CURVE",
"146 594 OFFCURVE",
"305 572 OFFCURVE",
"305 624 CURVE",
"305 659 OFFCURVE",
"261 677 OFFCURVE",
"182 677 CURVE",
"119 677 OFFCURVE",
"100 667 OFFCURVE",
"100 629 CURVE",
"100 0 LINE",
"30 0 LINE",
"30 509 LINE SMOOTH",
"30 627 OFFCURVE",
"122 740 OFFCURVE",
"236 740 CURVE",
"308 740 OFFCURVE",
"345 716 OFFCURVE",
"345 668 CURVE SMOOTH"
);
}
);
width = 354;
}
);
unicode = 00DF;
},
{
glyphname = t;
layers = (
{
layerId = master01;
paths = (
{
closed = 1;
nodes = (
"121 549 LINE",
"121 141 LINE SMOOTH",
"121 69 OFFCURVE",
"139 58 OFFCURVE",
"156 58 CURVE",
"180 58 OFFCURVE",
"188 83 OFFCURVE",
"190 150 CURVE",
"193 278 LINE",
"207 278 LINE",
"210 147 LINE SMOOTH",
"212 58 OFFCURVE",
"185 -10 OFFCURVE",
"128 -10 CURVE",
"77 -10 OFFCURVE",
"51 21 OFFCURVE",
"51 107 CURVE",
"51 549 LINE",
"5 549 LINE",
"5 600 LINE",
"51 600 LINE",
"51 699 LINE",
"74 704 OFFCURVE",
"104 716 OFFCURVE",
"120 740 CURVE",
"131 737 LINE",
"110 608 LINE",
"115 600 LINE",
"208 600 LINE",
"208 549 LINE"
);
}
);
width = 230;
},
{
associatedMasterId = master01;
layerId = "E8BB298C-76B7-45BB-82B4-DF9B36A4BCCC";
name = foreground;
paths = (
{
closed = 1;
nodes = (
"121 549 LINE",
"121 141 LINE SMOOTH",
"121 69 OFFCURVE",
"139 58 OFFCURVE",
"156 58 CURVE",
"180 58 OFFCURVE",
"188 83 OFFCURVE",
"190 150 CURVE",
"193 278 LINE",
"207 278 LINE",
"210 147 LINE SMOOTH",
"212 58 OFFCURVE",
"185 -10 OFFCURVE",
"128 -10 CURVE",
"77 -10 OFFCURVE",
"51 21 OFFCURVE",
"51 107 CURVE",
"51 549 LINE",
"5 549 LINE",
"5 600 LINE",
"51 600 LINE",
"51 699 LINE",
"74 704 OFFCURVE",
"104 716 OFFCURVE",
"120 740 CURVE",
"131 737 LINE",
"110 608 LINE",
"115 600 LINE",
"208 600 LINE",
"208 549 LINE"
);
}
);
width = 230;
}
);
leftKerningGroup = t;
rightKerningGroup = t;
unicode = 0074;
},
{
glyphname = tbar;
lastChange = "2021-03-23 08:45:28 +0000";
layers = (
{
components = (
{
name = t;
}
);
layerId = master01;
paths = (
{
closed = 1;
nodes = (
"5 391 LINE",
"5 411 LINE",
"204 411 LINE",
"204 391 LINE"
);
}
);
width = 230;
}
);
unicode = 0167;
},
{
glyphname = tcaron;
layers = (
{
anchors = (
{
name = _top;
position = "{128, 720}";
}
);
components = (
{
name = t;
}
);
layerId = master01;
paths = (
{
closed = 1;
nodes = (
"211 730 LINE",
"148 730 LINE",
"152 719 LINE SMOOTH",
"164 685 OFFCURVE",
"162 655 OFFCURVE",
"143 626 CURVE",
"148 621 LINE",
"191 657 OFFCURVE",
"211 689 OFFCURVE",
"211 720 CURVE"
);
}
);
width = 231;
},
{
anchors = (
{
name = _top;
position = "{128, 720}";
}
);
associatedMasterId = master01;
components = (
{
name = t;
}
);
layerId = "F36775CB-0BC2-40A9-BD43-C523EB9A33CD";
name = foreground;
paths = (
{
closed = 1;
nodes = (
"211 730 LINE",
"148 730 LINE",
"152 719 LINE SMOOTH",
"164 685 OFFCURVE",
"162 655 OFFCURVE",
"143 626 CURVE",
"148 621 LINE",
"191 657 OFFCURVE",
"211 689 OFFCURVE",
"211 720 CURVE"
);
}
);
width = 231;
}
);
leftKerningGroup = t;
rightKerningGroup = t;
unicode = 0165;
},
{
glyphname = v;
layers = (
{
layerId = master01;
paths = (
{
closed = 1;
nodes = (
"71 600 LINE",
"104 389 LINE",
"126 189 LINE",
"137 189 LINE",
"131 0 LINE",
"110 0 LINE",
"-5 600 LINE"
);
},
{
closed = 1;
nodes = (
"164 600 LINE",
"246 600 LINE",
"131 0 LINE",
"110 0 LINE",
"137 189 LINE"
);
}
);
width = 241;
},
{
associatedMasterId = master01;
layerId = "98713A76-C33A-42BF-95DF-00E58FC6E3D3";
name = foreground;
paths = (
{
closed = 1;
nodes = (
"71 600 LINE",
"104 389 LINE",
"126 189 LINE",
"137 189 LINE",
"131 0 LINE",
"110 0 LINE",
"-5 600 LINE"
);
},
{
closed = 1;
nodes = (
"164 600 LINE",
"246 600 LINE",
"131 0 LINE",
"110 0 LINE",
"137 189 LINE"
);
}
);
width = 241;
}
);
leftKerningGroup = v;
rightKerningGroup = v;
unicode = 0076;
},
{
glyphname = w;
layers = (
{
layerId = master01;
paths = (
{
closed = 1;
nodes = (
"71 600 LINE",
"101 389 LINE",
"111 189 LINE",
"122 189 LINE",
"123 0 LINE",
"95 0 LINE",
"-5 600 LINE"
);
},
{
closed = 1;
nodes = (
"168 600 LINE",
"191 600 LINE",
"123 0 LINE",
"95 0 LINE",
"122 189 LINE"
);
},
{
closed = 1;
nodes = (
"211 600 LINE",
"243 389 LINE",
"266 189 LINE",
"277 189 LINE",
"273 0 LINE",
"245 0 LINE",
"178 385 LINE",
"153 385 LINE",
"180 600 LINE"
);
},
{
closed = 1;
nodes = (
"294 600 LINE",
"376 600 LINE",
"273 0 LINE",
"245 0 LINE",
"277 189 LINE"
);
}
);
width = 371;
},
{
associatedMasterId = master01;
layerId = "32928E7E-F83B-4820-B1B4-B62CF52E9A5F";
name = foreground;
paths = (
{
closed = 1;
nodes = (
"71 600 LINE",
"101 389 LINE",
"111 189 LINE",
"122 189 LINE",
"123 0 LINE",
"95 0 LINE",
"-5 600 LINE"
);
},
{
closed = 1;
nodes = (
"168 600 LINE",
"191 600 LINE",
"123 0 LINE",
"95 0 LINE",
"122 189 LINE"
);
},
{
closed = 1;
nodes = (
"211 600 LINE",
"243 389 LINE",
"266 189 LINE",
"277 189 LINE",
"273 0 LINE",
"245 0 LINE",
"178 385 LINE",
"153 385 LINE",
"180 600 LINE"
);
},
{
closed = 1;
nodes = (
"294 600 LINE",
"376 600 LINE",
"273 0 LINE",
"245 0 LINE",
"277 189 LINE"
);
}
);
width = 371;
}
);
leftKerningGroup = w;
rightKerningGroup = w;
unicode = 0077;
},
{
glyphname = x;
layers = (
{
layerId = master01;
paths = (
{
closed = 1;
nodes = (
"84 0 LINE",
"0 0 LINE",
"116 363 LINE",
"115 270 LINE"
);
},
{
closed = 1;
nodes = (
"124 270 LINE",
"115 270 LINE",
"4 600 LINE",
"83 600 LINE",
"116 477 LINE",
"140 371 LINE",
"151 371 LINE",
"260 0 LINE",
"181 0 LINE",
"148 139 LINE"
);
},
{
closed = 1;
nodes = (
"174 600 LINE",
"258 600 LINE",
"147 277 LINE",
"151 371 LINE"
);
}
);
width = 260;
},
{
associatedMasterId = master01;
layerId = "BCD17FC6-58DE-4626-9B63-70674EB180AA";
name = foreground;
paths = (
{
closed = 1;
nodes = (
"84 0 LINE",
"0 0 LINE",
"116 363 LINE",
"115 270 LINE"
);
},
{
closed = 1;
nodes = (
"124 270 LINE",
"115 270 LINE",
"4 600 LINE",
"83 600 LINE",
"116 477 LINE",
"140 371 LINE",
"151 371 LINE",
"260 0 LINE",
"181 0 LINE",
"148 139 LINE"
);
},
{
closed = 1;
nodes = (
"174 600 LINE",
"258 600 LINE",
"147 277 LINE",
"151 371 LINE"
);
}
);
width = 260;
}
);
leftKerningGroup = x;
rightKerningGroup = x;
unicode = 0078;
},
{
glyphname = y;
lastChange = "2020-09-02 09:53:41 +0000";
layers = (
{
anchors = (
{
name = top;
position = "{118, 640}";
}
);
layerId = master01;
paths = (
{
closed = 1;
nodes = (
"71 600 LINE",
"104 379 LINE",
"126 179 LINE",
"137 179 LINE",
"123 82 LINE",
"94 82 LINE",
"-5 600 LINE"
);
},
{
closed = 1;
nodes = (
"164 600 LINE",
"246 600 LINE",
"106 -130 LINE",
"20 -130 LINE",
"123 82 LINE",
"137 179 LINE"
);
}
);
width = 242;
},
{
anchors = (
{
name = top;
position = "{118, 640}";
}
);
associatedMasterId = master01;
layerId = "495DE8B7-B934-49A8-8A5C-EDE5B31E7316";
name = foreground;
paths = (
{
closed = 1;
nodes = (
"71 600 LINE",
"104 379 LINE",
"126 179 LINE",
"137 179 LINE",
"123 82 LINE",
"94 82 LINE",
"-5 600 LINE"
);
},
{
closed = 1;
nodes = (
"164 600 LINE",
"246 600 LINE",
"106 -130 LINE",
"20 -130 LINE",
"123 82 LINE",
"137 179 LINE"
);
}
);
width = 241;
}
);
leftKerningGroup = yacute;
rightKerningGroup = yacute;
unicode = 0079;
},
{
glyphname = z;
layers = (
{
anchors = (
{
name = top;
position = "{110, 640}";
}
);
layerId = master01;
paths = (
{
closed = 1;
nodes = (
"5 0 LINE",
"89 34 LINE",
"84 41 LINE",
"211 600 LINE",
"127 565 LINE",
"134 557 LINE"
);
},
{
closed = 1;
nodes = (
"5 0 LINE",
"217 0 LINE",
"217 80 LINE",
"89 34 LINE"
);
},
{
closed = 1;
nodes = (
"28 520 LINE",
"127 565 LINE",
"211 600 LINE",
"28 600 LINE"
);
}
);
width = 232;
},
{
anchors = (
{
name = top;
position = "{110, 640}";
}
);
associatedMasterId = master01;
layerId = "A8CF4740-4810-4F0B-82BC-B98AA2F1A0C9";
name = foreground;
paths = (
{
closed = 1;
nodes = (
"5 0 LINE",
"89 34 LINE",
"84 41 LINE",
"211 600 LINE",
"127 565 LINE",
"134 557 LINE"
);
},
{
closed = 1;
nodes = (
"5 0 LINE",
"217 0 LINE",
"217 80 LINE",
"89 34 LINE"
);
},
{
closed = 1;
nodes = (
"28 520 LINE",
"127 565 LINE",
"211 600 LINE",
"28 600 LINE"
);
}
);
width = 232;
}
);
leftKerningGroup = zcaron;
rightKerningGroup = zcaron;
unicode = 007A;
},
{
glyphname = f.2;
layers = (
{
layerId = master01;
paths = (
{
closed = 1;
nodes = (
"51 549 LINE",
"8 549 LINE",
"8 600 LINE",
"121 600 LINE",
"209 600 LINE",
"209 549 LINE",
"121 549 LINE",
"51 452 LINE"
);
},
{
closed = 1;
nodes = (
"121 0 LINE",
"51 0 LINE",
"51 510 LINE SMOOTH",
"51 657 OFFCURVE",
"173 740 OFFCURVE",
"323 740 CURVE",
"357 740 OFFCURVE",
"382 737 OFFCURVE",
"405 732 CURVE",
"405 653 LINE",
"373 667 OFFCURVE",
"326 672 OFFCURVE",
"243 672 CURVE",
"146 672 OFFCURVE",
"121 658 OFFCURVE",
"121 618 CURVE"
);
}
);
width = 199;
},
{
associatedMasterId = master01;
layerId = "35827971-A300-47AD-AF7D-9CED4BAB6F69";
name = foreground;
paths = (
{
closed = 1;
nodes = (
"51 549 LINE",
"8 549 LINE",
"8 600 LINE",
"121 600 LINE",
"209 600 LINE",
"209 549 LINE",
"121 549 LINE",
"51 452 LINE"
);
},
{
closed = 1;
nodes = (
"121 0 LINE",
"51 0 LINE",
"51 510 LINE SMOOTH",
"51 657 OFFCURVE",
"173 740 OFFCURVE",
"323 740 CURVE",
"357 740 OFFCURVE",
"382 737 OFFCURVE",
"405 732 CURVE",
"405 653 LINE",
"373 667 OFFCURVE",
"326 672 OFFCURVE",
"243 672 CURVE",
"146 672 OFFCURVE",
"121 658 OFFCURVE",
"121 618 CURVE"
);
}
);
width = 199;
}
);
leftKerningGroup = f;
},
{
glyphname = j.2;
layers = (
{
layerId = master01;
paths = (
{
closed = 1;
nodes = (
"17 679 LINE",
"123 679 LINE",
"123 730 LINE",
"17 730 LINE"
);
},
{
closed = 1;
nodes = (
"35 600 LINE",
"105 600 LINE",
"105 90 LINE SMOOTH",
"105 -57 OFFCURVE",
"-17 -140 OFFCURVE",
"-167 -140 CURVE",
"-201 -140 OFFCURVE",
"-226 -137 OFFCURVE",
"-249 -132 CURVE",
"-249 -53 LINE",
"-217 -67 OFFCURVE",
"-170 -72 OFFCURVE",
"-87 -72 CURVE",
"10 -72 OFFCURVE",
"35 -58 OFFCURVE",
"35 -18 CURVE"
);
}
);
width = 140;
},
{
associatedMasterId = master01;
layerId = "4A7880F0-52B3-4BA7-8A29-0CA2676DB2BD";
name = foreground;
paths = (
{
closed = 1;
nodes = (
"17 679 LINE",
"123 679 LINE",
"123 730 LINE",
"17 730 LINE"
);
},
{
closed = 1;
nodes = (
"35 600 LINE",
"105 600 LINE",
"105 90 LINE SMOOTH",
"105 -57 OFFCURVE",
"-17 -140 OFFCURVE",
"-167 -140 CURVE",
"-201 -140 OFFCURVE",
"-226 -137 OFFCURVE",
"-249 -132 CURVE",
"-249 -53 LINE",
"-217 -67 OFFCURVE",
"-170 -72 OFFCURVE",
"-87 -72 CURVE",
"10 -72 OFFCURVE",
"35 -58 OFFCURVE",
"35 -18 CURVE"
);
}
);
width = 140;
}
);
},
{
glyphname = m.2;
layers = (
{
layerId = master01;
paths = (
{
closed = 1;
nodes = (
"102 600 LINE",
"102 392 LINE",
"79 392 LINE",
"106 0 LINE",
"35 0 LINE",
"45 600 LINE"
);
},
{
closed = 1;
nodes = (
"107 600 LINE",
"186 173 LINE",
"197 173 LINE",
"190 0 LINE",
"168 0 LINE",
"53 600 LINE"
);
},
{
closed = 1;
nodes = (
"264 600 LINE",
"286 600 LINE",
"190 0 LINE",
"168 0 LINE",
"197 173 LINE"
);
},
{
closed = 1;
nodes = (
"265 600 LINE",
"318 600 LINE",
"328 0 LINE",
"256 0 LINE",
"269 392 LINE",
"243 392 LINE"
);
}
);
width = 363;
},
{
associatedMasterId = master01;
layerId = "BDACAB36-3A59-49F9-A6C8-C4BA343639E1";
name = foreground;
paths = (
{
closed = 1;
nodes = (
"102 600 LINE",
"102 392 LINE",
"79 392 LINE",
"106 0 LINE",
"35 0 LINE",
"45 600 LINE"
);
},
{
closed = 1;
nodes = (
"107 600 LINE",
"186 173 LINE",
"197 173 LINE",
"190 0 LINE",
"168 0 LINE",
"53 600 LINE"
);
},
{
closed = 1;
nodes = (
"264 600 LINE",
"286 600 LINE",
"190 0 LINE",
"168 0 LINE",
"197 173 LINE"
);
},
{
closed = 1;
nodes = (
"265 600 LINE",
"318 600 LINE",
"328 0 LINE",
"256 0 LINE",
"269 392 LINE",
"243 392 LINE"
);
}
);
width = 363;
}
);
leftKerningGroup = m;
rightKerningGroup = h;
},
{
glyphname = m.3;
layers = (
{
layerId = master01;
paths = (
{
closed = 1;
nodes = (
"105 600 LINE",
"100 392 LINE",
"77 392 LINE",
"104 0 LINE",
"25 0 LINE",
"35 600 LINE"
);
},
{
closed = 1;
nodes = (
"411 600 LINE",
"472 600 LINE",
"482 0 LINE",
"405 0 LINE",
"418 392 LINE",
"392 392 LINE"
);
},
{
closed = 1;
nodes = (
"110 600 LINE",
"190 207 LINE",
"201 207 LINE",
"191 0 LINE",
"170 0 LINE",
"51 600 LINE"
);
},
{
closed = 1;
nodes = (
"239 600 LINE",
"280 600 LINE",
"246 415 LINE",
"201 0 LINE",
"170 0 LINE",
"201 207 LINE"
);
},
{
closed = 1;
nodes = (
"280 600 LINE",
"340 207 LINE",
"351 207 LINE",
"343 0 LINE",
"312 0 LINE",
"250 367 LINE",
"237 367 LINE"
);
},
{
closed = 1;
nodes = (
"411 600 LINE",
"435 600 LINE",
"343 0 LINE",
"312 0 LINE",
"351 207 LINE"
);
}
);
width = 507;
},
{
associatedMasterId = master01;
layerId = "4BF7FA89-0DEA-4521-BC6A-1A0BA975AEA6";
name = foreground;
paths = (
{
closed = 1;
nodes = (
"105 600 LINE",
"100 392 LINE",
"77 392 LINE",
"104 0 LINE",
"25 0 LINE",
"35 600 LINE"
);
},
{
closed = 1;
nodes = (
"411 600 LINE",
"472 600 LINE",
"482 0 LINE",
"405 0 LINE",
"418 392 LINE",
"392 392 LINE"
);
},
{
closed = 1;
nodes = (
"110 600 LINE",
"190 207 LINE",
"201 207 LINE",
"191 0 LINE",
"170 0 LINE",
"51 600 LINE"
);
},
{
closed = 1;
nodes = (
"239 600 LINE",
"280 600 LINE",
"246 415 LINE",
"201 0 LINE",
"170 0 LINE",
"201 207 LINE"
);
},
{
closed = 1;
nodes = (
"280 600 LINE",
"340 207 LINE",
"351 207 LINE",
"343 0 LINE",
"312 0 LINE",
"250 367 LINE",
"237 367 LINE"
);
},
{
closed = 1;
nodes = (
"411 600 LINE",
"435 600 LINE",
"343 0 LINE",
"312 0 LINE",
"351 207 LINE"
);
}
);
width = 507;
}
);
leftKerningGroup = m;
rightKerningGroup = h;
},
{
glyphname = m.4;
layers = (
{
layerId = master01;
paths = (
{
closed = 1;
nodes = (
"105 600 LINE",
"100 392 LINE",
"77 392 LINE",
"104 0 LINE",
"25 0 LINE",
"35 600 LINE"
);
},
{
closed = 1;
nodes = (
"110 600 LINE",
"190 207 LINE",
"201 207 LINE",
"191 0 LINE",
"170 0 LINE",
"51 600 LINE"
);
},
{
closed = 1;
nodes = (
"239 600 LINE",
"280 600 LINE",
"246 415 LINE",
"201 0 LINE",
"170 0 LINE",
"201 207 LINE"
);
},
{
closed = 1;
nodes = (
"280 600 LINE",
"340 207 LINE",
"351 207 LINE",
"343 0 LINE",
"312 0 LINE",
"250 367 LINE",
"237 367 LINE"
);
},
{
closed = 1;
nodes = (
"561 600 LINE",
"622 600 LINE",
"632 0 LINE",
"555 0 LINE",
"568 392 LINE",
"542 392 LINE"
);
},
{
closed = 1;
nodes = (
"389 600 LINE",
"430 600 LINE",
"396 415 LINE",
"351 0 LINE",
"320 0 LINE",
"351 207 LINE"
);
},
{
closed = 1;
nodes = (
"430 600 LINE",
"490 207 LINE",
"501 207 LINE",
"493 0 LINE",
"462 0 LINE",
"400 367 LINE",
"387 367 LINE"
);
},
{
closed = 1;
nodes = (
"561 600 LINE",
"585 600 LINE",
"493 0 LINE",
"462 0 LINE",
"501 207 LINE"
);
}
);
width = 657;
},
{
associatedMasterId = master01;
layerId = "86A25D8F-4D37-4533-8B81-2BACA315285A";
name = foreground;
paths = (
{
closed = 1;
nodes = (
"105 600 LINE",
"100 392 LINE",
"77 392 LINE",
"104 0 LINE",
"25 0 LINE",
"35 600 LINE"
);
},
{
closed = 1;
nodes = (
"110 600 LINE",
"190 207 LINE",
"201 207 LINE",
"191 0 LINE",
"170 0 LINE",
"51 600 LINE"
);
},
{
closed = 1;
nodes = (
"239 600 LINE",
"280 600 LINE",
"246 415 LINE",
"201 0 LINE",
"170 0 LINE",
"201 207 LINE"
);
},
{
closed = 1;
nodes = (
"280 600 LINE",
"340 207 LINE",
"351 207 LINE",
"343 0 LINE",
"312 0 LINE",
"250 367 LINE",
"237 367 LINE"
);
},
{
closed = 1;
nodes = (
"561 600 LINE",
"622 600 LINE",
"632 0 LINE",
"555 0 LINE",
"568 392 LINE",
"542 392 LINE"
);
},
{
closed = 1;
nodes = (
"389 600 LINE",
"430 600 LINE",
"396 415 LINE",
"351 0 LINE",
"320 0 LINE",
"351 207 LINE"
);
},
{
closed = 1;
nodes = (
"430 600 LINE",
"490 207 LINE",
"501 207 LINE",
"493 0 LINE",
"462 0 LINE",
"400 367 LINE",
"387 367 LINE"
);
},
{
closed = 1;
nodes = (
"561 600 LINE",
"585 600 LINE",
"493 0 LINE",
"462 0 LINE",
"501 207 LINE"
);
}
);
width = 657;
}
);
leftKerningGroup = m;
rightKerningGroup = h;
},
{
glyphname = n.2;
layers = (
{
layerId = master01;
paths = (
{
closed = 1;
nodes = (
"96 600 LINE",
"212 0 LINE",
"184 0 LINE",
"69 600 LINE"
);
},
{
closed = 1;
nodes = (
"85 600 LINE",
"93 477 LINE",
"76 477 LINE",
"90 246 LINE",
"96 0 LINE",
"25 0 LINE",
"25 600 LINE"
);
},
{
closed = 1;
nodes = (
"195 0 LINE",
"187 123 LINE",
"204 123 LINE",
"190 354 LINE",
"183 600 LINE",
"255 600 LINE",
"255 0 LINE"
);
}
);
width = 280;
},
{
associatedMasterId = master01;
layerId = "B2D2DEE0-9C52-4718-8FB9-45802C614710";
name = foreground;
paths = (
{
closed = 1;
nodes = (
"96 600 LINE",
"212 0 LINE",
"184 0 LINE",
"69 600 LINE"
);
},
{
closed = 1;
nodes = (
"85 600 LINE",
"93 477 LINE",
"76 477 LINE",
"90 246 LINE",
"96 0 LINE",
"25 0 LINE",
"25 600 LINE"
);
},
{
closed = 1;
nodes = (
"195 0 LINE",
"187 123 LINE",
"204 123 LINE",
"190 354 LINE",
"183 600 LINE",
"255 600 LINE",
"255 0 LINE"
);
}
);
width = 280;
}
);
leftKerningGroup = m;
rightKerningGroup = h;
},
{
glyphname = n.3;
layers = (
{
layerId = master01;
paths = (
{
closed = 1;
nodes = (
"96 600 LINE",
"212 0 LINE",
"184 0 LINE",
"69 600 LINE"
);
},
{
closed = 1;
nodes = (
"85 600 LINE",
"93 477 LINE",
"76 477 LINE",
"90 246 LINE",
"96 0 LINE",
"25 0 LINE",
"25 600 LINE"
);
},
{
closed = 1;
nodes = (
"224 600 LINE",
"340 0 LINE",
"312 0 LINE",
"197 600 LINE"
);
},
{
closed = 1;
nodes = (
"323 0 LINE",
"315 123 LINE",
"332 123 LINE",
"318 354 LINE",
"311 600 LINE",
"383 600 LINE",
"383 0 LINE"
);
},
{
closed = 1;
nodes = (
"170 600 LINE",
"213 600 LINE",
"221 477 LINE",
"204 477 LINE",
"237 0 LINE",
"195 0 LINE",
"187 123 LINE",
"204 123 LINE"
);
}
);
width = 408;
},
{
associatedMasterId = master01;
layerId = "0255FEA8-0C53-4B38-BEA9-DA1C386E3A16";
name = foreground;
paths = (
{
closed = 1;
nodes = (
"96 600 LINE",
"212 0 LINE",
"184 0 LINE",
"69 600 LINE"
);
},
{
closed = 1;
nodes = (
"85 600 LINE",
"93 477 LINE",
"76 477 LINE",
"90 246 LINE",
"96 0 LINE",
"25 0 LINE",
"25 600 LINE"
);
},
{
closed = 1;
nodes = (
"224 600 LINE",
"340 0 LINE",
"312 0 LINE",
"197 600 LINE"
);
},
{
closed = 1;
nodes = (
"323 0 LINE",
"315 123 LINE",
"332 123 LINE",
"318 354 LINE",
"311 600 LINE",
"383 600 LINE",
"383 0 LINE"
);
},
{
closed = 1;
nodes = (
"170 600 LINE",
"213 600 LINE",
"221 477 LINE",
"204 477 LINE",
"237 0 LINE",
"195 0 LINE",
"187 123 LINE",
"204 123 LINE"
);
}
);
width = 408;
}
);
leftKerningGroup = m;
rightKerningGroup = h;
},
{
glyphname = n.4;
layers = (
{
layerId = master01;
paths = (
{
closed = 1;
nodes = (
"96 600 LINE",
"212 0 LINE",
"184 0 LINE",
"69 600 LINE"
);
},
{
closed = 1;
nodes = (
"85 600 LINE",
"93 477 LINE",
"76 477 LINE",
"90 246 LINE",
"96 0 LINE",
"25 0 LINE",
"25 600 LINE"
);
},
{
closed = 1;
nodes = (
"224 600 LINE",
"340 0 LINE",
"312 0 LINE",
"197 600 LINE"
);
},
{
closed = 1;
nodes = (
"170 600 LINE",
"213 600 LINE",
"221 477 LINE",
"204 477 LINE",
"237 0 LINE",
"195 0 LINE",
"187 123 LINE",
"204 123 LINE"
);
},
{
closed = 1;
nodes = (
"352 600 LINE",
"468 0 LINE",
"440 0 LINE",
"325 600 LINE"
);
},
{
closed = 1;
nodes = (
"451 0 LINE",
"443 123 LINE",
"460 123 LINE",
"446 354 LINE",
"439 600 LINE",
"511 600 LINE",
"511 0 LINE"
);
},
{
closed = 1;
nodes = (
"298 600 LINE",
"341 600 LINE",
"349 477 LINE",
"332 477 LINE",
"365 0 LINE",
"323 0 LINE",
"315 123 LINE",
"332 123 LINE"
);
}
);
width = 536;
},
{
associatedMasterId = master01;
layerId = "B92654A3-FF37-4116-A969-B122A3084503";
name = foreground;
paths = (
{
closed = 1;
nodes = (
"96 600 LINE",
"212 0 LINE",
"184 0 LINE",
"69 600 LINE"
);
},
{
closed = 1;
nodes = (
"85 600 LINE",
"93 477 LINE",
"76 477 LINE",
"90 246 LINE",
"96 0 LINE",
"25 0 LINE",
"25 600 LINE"
);
},
{
closed = 1;
nodes = (
"224 600 LINE",
"340 0 LINE",
"312 0 LINE",
"197 600 LINE"
);
},
{
closed = 1;
nodes = (
"170 600 LINE",
"213 600 LINE",
"221 477 LINE",
"204 477 LINE",
"237 0 LINE",
"195 0 LINE",
"187 123 LINE",
"204 123 LINE"
);
},
{
closed = 1;
nodes = (
"352 600 LINE",
"468 0 LINE",
"440 0 LINE",
"325 600 LINE"
);
},
{
closed = 1;
nodes = (
"451 0 LINE",
"443 123 LINE",
"460 123 LINE",
"446 354 LINE",
"439 600 LINE",
"511 600 LINE",
"511 0 LINE"
);
},
{
closed = 1;
nodes = (
"298 600 LINE",
"341 600 LINE",
"349 477 LINE",
"332 477 LINE",
"365 0 LINE",
"323 0 LINE",
"315 123 LINE",
"332 123 LINE"
);
}
);
width = 536;
}
);
leftKerningGroup = m;
rightKerningGroup = h;
},
{
glyphname = r.2;
layers = (
{
layerId = master01;
paths = (
{
closed = 1;
nodes = (
"144 526 OFFCURVE",
"105 476 OFFCURVE",
"105 382 CURVE",
"105 0 LINE",
"35 0 LINE",
"35 600 LINE",
"104 600 LINE",
"104 589 LINE",
"83 437 LINE",
"93 435 LINE",
"113 577 OFFCURVE",
"143 600 OFFCURVE",
"206 600 CURVE",
"216 600 LINE",
"216 518 LINE",
"207 523 OFFCURVE",
"197 526 OFFCURVE",
"185 526 CURVE SMOOTH"
);
}
);
width = 222;
},
{
associatedMasterId = master01;
layerId = "27A3C751-0EC4-4893-9D9E-BC8129684DE6";
name = foreground;
paths = (
{
closed = 1;
nodes = (
"144 526 OFFCURVE",
"105 476 OFFCURVE",
"105 382 CURVE",
"105 0 LINE",
"35 0 LINE",
"35 600 LINE",
"104 600 LINE",
"104 589 LINE",
"83 437 LINE",
"93 435 LINE",
"113 577 OFFCURVE",
"143 600 OFFCURVE",
"206 600 CURVE",
"216 600 LINE",
"216 518 LINE",
"207 523 OFFCURVE",
"197 526 OFFCURVE",
"185 526 CURVE SMOOTH"
);
}
);
width = 222;
}
);
leftKerningGroup = m;
rightKerningGroup = r.2;
},
{
glyphname = s.2;
layers = (
{
anchors = (
{
name = bottom;
position = "{111, 0}";
},
{
name = top;
position = "{125, 640}";
}
);
layerId = master01;
paths = (
{
closed = 1;
nodes = (
"8 573 OFFCURVE",
"61 610 OFFCURVE",
"124 610 CURVE",
"186 610 OFFCURVE",
"216 579 OFFCURVE",
"216 517 CURVE",
"216 464 OFFCURVE",
"212 405 OFFCURVE",
"205 360 CURVE",
"133 360 LINE",
"185 461 OFFCURVE",
"197 494 OFFCURVE",
"197 516 CURVE",
"197 534 OFFCURVE",
"177 542 OFFCURVE",
"124 542 CURVE",
"87 542 OFFCURVE",
"78 522 OFFCURVE",
"78 496 CURVE",
"78 397 OFFCURVE",
"213 222 OFFCURVE",
"213 114 CURVE",
"213 25 OFFCURVE",
"164 -10 OFFCURVE",
"107 -10 CURVE",
"58 -10 OFFCURVE",
"35 20 OFFCURVE",
"35 82 CURVE",
"35 117 OFFCURVE",
"37 155 OFFCURVE",
"45 201 CURVE",
"109 201 LINE",
"69 123 OFFCURVE",
"54 100 OFFCURVE",
"54 83 CURVE",
"54 65 OFFCURVE",
"69 58 OFFCURVE",
"107 58 CURVE",
"138 58 OFFCURVE",
"145 76 OFFCURVE",
"145 102 CURVE",
"145 187 OFFCURVE",
"8 400 OFFCURVE",
"8 487 CURVE SMOOTH"
);
}
);
width = 237;
},
{
anchors = (
{
name = bottom;
position = "{111, 0}";
},
{
name = top;
position = "{125, 640}";
}
);
associatedMasterId = master01;
layerId = "C0807BA4-67B4-4469-896F-09298016668D";
name = foreground;
paths = (
{
closed = 1;
nodes = (
"8 573 OFFCURVE",
"61 610 OFFCURVE",
"124 610 CURVE",
"186 610 OFFCURVE",
"216 579 OFFCURVE",
"216 517 CURVE",
"216 464 OFFCURVE",
"212 405 OFFCURVE",
"205 360 CURVE",
"133 360 LINE",
"185 461 OFFCURVE",
"197 494 OFFCURVE",
"197 516 CURVE",
"197 534 OFFCURVE",
"177 542 OFFCURVE",
"124 542 CURVE",
"87 542 OFFCURVE",
"78 522 OFFCURVE",
"78 496 CURVE",
"78 397 OFFCURVE",
"213 222 OFFCURVE",
"213 114 CURVE",
"213 25 OFFCURVE",
"164 -10 OFFCURVE",
"107 -10 CURVE",
"58 -10 OFFCURVE",
"35 20 OFFCURVE",
"35 82 CURVE",
"35 117 OFFCURVE",
"37 155 OFFCURVE",
"45 201 CURVE",
"109 201 LINE",
"69 123 OFFCURVE",
"54 100 OFFCURVE",
"54 83 CURVE",
"54 65 OFFCURVE",
"69 58 OFFCURVE",
"107 58 CURVE",
"138 58 OFFCURVE",
"145 76 OFFCURVE",
"145 102 CURVE",
"145 187 OFFCURVE",
"8 400 OFFCURVE",
"8 487 CURVE SMOOTH"
);
}
);
width = 237;
}
);
leftKerningGroup = s.2;
rightKerningGroup = s.2;
},
{
glyphname = scedilla.2;
layers = (
{
anchors = (
{
name = bottom;
position = "{111, 0}";
},
{
name = top;
position = "{125, 640}";
}
);
components = (
{
name = s.2;
}
);
layerId = master01;
paths = (
{
closed = 1;
nodes = (
"72 -130 OFFCURVE",
"57 -128 OFFCURVE",
"45 -124 CURVE",
"48 -49 LINE",
"64 -61 OFFCURVE",
"97 -72 OFFCURVE",
"108 -72 CURVE",
"116 -72 OFFCURVE",
"121 -69 OFFCURVE",
"121 -61 CURVE",
"121 -46 OFFCURVE",
"111 -23 OFFCURVE",
"96 3 CURVE",
"110 3 LINE",
"131 -27 OFFCURVE",
"145 -52 OFFCURVE",
"145 -76 CURVE",
"145 -110 OFFCURVE",
"117 -130 OFFCURVE",
"88 -130 CURVE SMOOTH"
);
}
);
width = 238;
},
{
anchors = (
{
name = bottom;
position = "{111, 0}";
},
{
name = top;
position = "{125, 640}";
}
);
associatedMasterId = master01;
components = (
{
name = s.2;
}
);
layerId = "5918B7B7-A115-4958-B168-1938C3CAAD58";
name = foreground;
paths = (
{
closed = 1;
nodes = (
"72 -130 OFFCURVE",
"57 -128 OFFCURVE",
"45 -124 CURVE",
"48 -49 LINE",
"64 -61 OFFCURVE",
"97 -72 OFFCURVE",
"108 -72 CURVE",
"116 -72 OFFCURVE",
"121 -69 OFFCURVE",
"121 -61 CURVE",
"121 -46 OFFCURVE",
"111 -23 OFFCURVE",
"96 3 CURVE",
"110 3 LINE",
"131 -27 OFFCURVE",
"145 -52 OFFCURVE",
"145 -76 CURVE",
"145 -110 OFFCURVE",
"117 -130 OFFCURVE",
"88 -130 CURVE SMOOTH"
);
}
);
width = 238;
}
);
leftKerningGroup = s.2;
rightKerningGroup = s.2;
},
{
glyphname = z.2;
layers = (
{
anchors = (
{
name = top;
position = "{110, 640}";
}
);
layerId = master01;
paths = (
{
closed = 1;
nodes = (
"31 600 LINE",
"216 600 LINE",
"132 565 LINE",
"31 520 LINE"
);
},
{
closed = 1;
nodes = (
"89 34 LINE",
"217 80 LINE",
"217 0 LINE",
"5 0 LINE"
);
},
{
closed = 1;
nodes = (
"15 295 LINE",
"139 557 LINE",
"130 568 LINE",
"216 600 LINE",
"106 335 LINE",
"118 320 LINE",
"62 295 LINE"
);
},
{
closed = 1;
nodes = (
"90 326 LINE",
"213 326 LINE",
"183 295 LINE",
"56 295 LINE"
);
},
{
closed = 1;
nodes = (
"2 0 LINE",
"122 287 LINE",
"114 298 LINE",
"213 326 LINE",
"84 41 LINE",
"96 26 LINE",
"49 0 LINE"
);
}
);
width = 227;
},
{
anchors = (
{
name = top;
position = "{110, 640}";
}
);
associatedMasterId = master01;
layerId = "A8C66BF0-44D1-4CB3-8FA1-71456D9E75DF";
name = foreground;
paths = (
{
closed = 1;
nodes = (
"31 600 LINE",
"216 600 LINE",
"132 565 LINE",
"31 520 LINE"
);
},
{
closed = 1;
nodes = (
"89 34 LINE",
"217 80 LINE",
"217 0 LINE",
"5 0 LINE"
);
},
{
closed = 1;
nodes = (
"15 295 LINE",
"139 557 LINE",
"130 568 LINE",
"216 600 LINE",
"106 335 LINE",
"118 320 LINE",
"62 295 LINE"
);
},
{
closed = 1;
nodes = (
"90 326 LINE",
"213 326 LINE",
"183 295 LINE",
"56 295 LINE"
);
},
{
closed = 1;
nodes = (
"2 0 LINE",
"122 287 LINE",
"114 298 LINE",
"213 326 LINE",
"84 41 LINE",
"96 26 LINE",
"49 0 LINE"
);
}
);
width = 227;
}
);
leftKerningGroup = zcaron;
rightKerningGroup = zcaron;
},
{
glyphname = fi;
layers = (
{
layerId = master01;
paths = (
{
closed = 1;
nodes = (
"121 0 LINE",
"51 0 LINE",
"51 489 LINE SMOOTH",
"51 639 OFFCURVE",
"150 730 OFFCURVE",
"260 730 CURVE",
"275 730 LINE",
"275 639 LINE",
"252 650 OFFCURVE",
"226 657 OFFCURVE",
"193 657 CURVE",
"148 657 OFFCURVE",
"121 643 OFFCURVE",
"121 609 CURVE"
);
},
{
closed = 1;
nodes = (
"274 600 LINE",
"274 0 LINE",
"204 0 LINE",
"204 600 LINE"
);
},
{
closed = 1;
nodes = (
"179 549 LINE",
"8 549 LINE",
"8 600 LINE",
"179 600 LINE"
);
}
);
width = 319;
},
{
associatedMasterId = master01;
layerId = "30E7020D-B88C-47DF-B337-1B32D0D0A6B7";
name = foreground;
paths = (
{
closed = 1;
nodes = (
"121 0 LINE",
"51 0 LINE",
"51 489 LINE SMOOTH",
"51 639 OFFCURVE",
"150 730 OFFCURVE",
"260 730 CURVE",
"275 730 LINE",
"275 639 LINE",
"252 650 OFFCURVE",
"226 657 OFFCURVE",
"193 657 CURVE",
"148 657 OFFCURVE",
"121 643 OFFCURVE",
"121 609 CURVE"
);
},
{
closed = 1;
nodes = (
"274 600 LINE",
"274 0 LINE",
"204 0 LINE",
"204 600 LINE"
);
},
{
closed = 1;
nodes = (
"179 549 LINE",
"8 549 LINE",
"8 600 LINE",
"179 600 LINE"
);
}
);
width = 319;
}
);
leftKerningGroup = f;
unicode = FB01;
},
{
glyphname = fl;
layers = (
{
components = (
{
name = l;
transform = "{1, 0, 0, 1, 169, 0}";
}
);
layerId = master01;
paths = (
{
closed = 1;
nodes = (
"121 0 LINE",
"51 0 LINE",
"51 509 LINE SMOOTH",
"51 622 OFFCURVE",
"128 730 OFFCURVE",
"203 730 CURVE",
"216 730 LINE",
"216 660 LINE",
"205 665 OFFCURVE",
"189 667 OFFCURVE",
"169 667 CURVE",
"140 667 OFFCURVE",
"121 659 OFFCURVE",
"121 629 CURVE"
);
},
{
closed = 1;
nodes = (
"179 549 LINE",
"8 549 LINE",
"8 600 LINE",
"179 600 LINE"
);
}
);
width = 309;
},
{
associatedMasterId = master01;
components = (
{
name = l;
transform = "{1, 0, 0, 1, 169, 0}";
}
);
layerId = "662D5328-009E-48B2-9B10-BB97685BCA11";
name = foreground;
paths = (
{
closed = 1;
nodes = (
"121 0 LINE",
"51 0 LINE",
"51 509 LINE SMOOTH",
"51 622 OFFCURVE",
"128 730 OFFCURVE",
"203 730 CURVE",
"216 730 LINE",
"216 660 LINE",
"205 665 OFFCURVE",
"189 667 OFFCURVE",
"169 667 CURVE",
"140 667 OFFCURVE",
"121 659 OFFCURVE",
"121 629 CURVE"
);
},
{
closed = 1;
nodes = (
"179 549 LINE",
"8 549 LINE",
"8 600 LINE",
"179 600 LINE"
);
}
);
width = 309;
}
);
leftKerningGroup = f;
unicode = FB02;
},
{
glyphname = ordfeminine;
layers = (
{
anchors = (
{
name = bottom_right;
position = "{238, 0}";
},
{
name = top;
position = "{136, 640}";
}
);
layerId = master01;
paths = (
{
closed = 1;
nodes = (
"20 294 LINE",
"20 314 LINE",
"225 314 LINE",
"225 294 LINE"
);
},
{
closed = 1;
nodes = (
"156 741 OFFCURVE",
"179 716 OFFCURVE",
"179 675 CURVE",
"179 456 LINE SMOOTH",
"179 414 OFFCURVE",
"187 409 OFFCURVE",
"196 409 CURVE",
"203 409 OFFCURVE",
"208 414 OFFCURVE",
"209 440 CURVE",
"212 541 LINE",
"223 541 LINE",
"225 443 LINE SMOOTH",
"226 392 OFFCURVE",
"218 354 OFFCURVE",
"181 354 CURVE",
"148 354 OFFCURVE",
"133 377 OFFCURVE",
"143 491 CURVE",
"135 492 LINE",
"123 373 OFFCURVE",
"103 354 OFFCURVE",
"73 354 CURVE",
"42 354 OFFCURVE",
"26 372 OFFCURVE",
"26 411 CURVE",
"26 417 LINE SMOOTH",
"26 482 OFFCURVE",
"60 507 OFFCURVE",
"123 567 CURVE",
"123 655 LINE SMOOTH",
"123 680 OFFCURVE",
"117 687 OFFCURVE",
"90 687 CURVE",
"60 687 OFFCURVE",
"52 673 OFFCURVE",
"52 651 CURVE",
"52 555 LINE",
"42 555 LINE",
"34 642 LINE SMOOTH",
"30 688 OFFCURVE",
"67 741 OFFCURVE",
"109 741 CURVE SMOOTH"
);
},
{
closed = 1;
nodes = (
"114 412 OFFCURVE",
"124 461 OFFCURVE",
"124 535 CURVE",
"124 549 LINE",
"89 516 OFFCURVE",
"83 496 OFFCURVE",
"83 463 CURVE",
"83 432 LINE SMOOTH",
"83 417 OFFCURVE",
"89 412 OFFCURVE",
"97 412 CURVE SMOOTH"
);
}
);
width = 248;
},
{
anchors = (
{
name = bottom_right;
position = "{238, 0}";
},
{
name = top;
position = "{136, 640}";
}
);
associatedMasterId = master01;
layerId = "38799A1E-5235-434F-BDB9-D249798CB2E1";
name = foreground;
paths = (
{
closed = 1;
nodes = (
"20 294 LINE",
"20 314 LINE",
"225 314 LINE",
"225 294 LINE"
);
},
{
closed = 1;
nodes = (
"156 741 OFFCURVE",
"179 716 OFFCURVE",
"179 675 CURVE",
"179 456 LINE SMOOTH",
"179 414 OFFCURVE",
"187 409 OFFCURVE",
"196 409 CURVE",
"203 409 OFFCURVE",
"208 414 OFFCURVE",
"209 440 CURVE",
"212 541 LINE",
"223 541 LINE",
"225 443 LINE SMOOTH",
"226 392 OFFCURVE",
"218 354 OFFCURVE",
"181 354 CURVE",
"148 354 OFFCURVE",
"133 377 OFFCURVE",
"143 491 CURVE",
"135 492 LINE",
"123 373 OFFCURVE",
"103 354 OFFCURVE",
"73 354 CURVE",
"42 354 OFFCURVE",
"26 372 OFFCURVE",
"26 411 CURVE",
"26 417 LINE SMOOTH",
"26 482 OFFCURVE",
"60 507 OFFCURVE",
"123 567 CURVE",
"123 655 LINE SMOOTH",
"123 680 OFFCURVE",
"117 687 OFFCURVE",
"90 687 CURVE",
"60 687 OFFCURVE",
"52 673 OFFCURVE",
"52 651 CURVE",
"52 555 LINE",
"42 555 LINE",
"34 642 LINE SMOOTH",
"30 688 OFFCURVE",
"67 741 OFFCURVE",
"109 741 CURVE SMOOTH"
);
},
{
closed = 1;
nodes = (
"114 412 OFFCURVE",
"124 461 OFFCURVE",
"124 535 CURVE",
"124 549 LINE",
"89 516 OFFCURVE",
"83 496 OFFCURVE",
"83 463 CURVE",
"83 432 LINE SMOOTH",
"83 417 OFFCURVE",
"89 412 OFFCURVE",
"97 412 CURVE SMOOTH"
);
}
);
width = 248;
}
);
unicode = 00AA;
},
{
glyphname = ordmasculine;
layers = (
{
anchors = (
{
name = top;
position = "{129, 640}";
}
);
layerId = master01;
paths = (
{
closed = 1;
nodes = (
"80 686 OFFCURVE",
"76 668 OFFCURVE",
"76 640 CURVE",
"76 475 LINE SMOOTH",
"76 417 OFFCURVE",
"90 408 OFFCURVE",
"107 408 CURVE",
"124 408 OFFCURVE",
"128 426 OFFCURVE",
"128 454 CURVE",
"128 619 LINE SMOOTH",
"128 677 OFFCURVE",
"113 686 OFFCURVE",
"97 686 CURVE SMOOTH"
);
},
{
closed = 1;
nodes = (
"47 354 OFFCURVE",
"20 379 OFFCURVE",
"20 448 CURVE",
"20 632 LINE SMOOTH",
"20 710 OFFCURVE",
"60 740 OFFCURVE",
"107 740 CURVE",
"158 740 OFFCURVE",
"184 715 OFFCURVE",
"184 646 CURVE",
"184 462 LINE SMOOTH",
"184 384 OFFCURVE",
"144 354 OFFCURVE",
"97 354 CURVE SMOOTH"
);
},
{
closed = 1;
nodes = (
"20 294 LINE",
"20 314 LINE",
"184 314 LINE",
"184 294 LINE"
);
}
);
width = 204;
},
{
anchors = (
{
name = top;
position = "{129, 640}";
}
);
associatedMasterId = master01;
layerId = "B96F9E43-B03E-4D3D-9EB8-D674DA953F27";
name = foreground;
paths = (
{
closed = 1;
nodes = (
"80 686 OFFCURVE",
"76 668 OFFCURVE",
"76 640 CURVE",
"76 475 LINE SMOOTH",
"76 417 OFFCURVE",
"90 408 OFFCURVE",
"107 408 CURVE",
"124 408 OFFCURVE",
"128 426 OFFCURVE",
"128 454 CURVE",
"128 619 LINE SMOOTH",
"128 677 OFFCURVE",
"113 686 OFFCURVE",
"97 686 CURVE SMOOTH"
);
},
{
closed = 1;
nodes = (
"47 354 OFFCURVE",
"20 379 OFFCURVE",
"20 448 CURVE",
"20 632 LINE SMOOTH",
"20 710 OFFCURVE",
"60 740 OFFCURVE",
"107 740 CURVE",
"158 740 OFFCURVE",
"184 715 OFFCURVE",
"184 646 CURVE",
"184 462 LINE SMOOTH",
"184 384 OFFCURVE",
"144 354 OFFCURVE",
"97 354 CURVE SMOOTH"
);
},
{
closed = 1;
nodes = (
"20 294 LINE",
"20 314 LINE",
"184 314 LINE",
"184 294 LINE"
);
}
);
width = 204;
}
);
unicode = 00BA;
},
{
glyphname = uni0411;
layers = (
{
layerId = master01;
paths = (
{
closed = 1;
nodes = (
"105 730 LINE",
"105 0 LINE",
"30 0 LINE",
"30 730 LINE"
);
},
{
closed = 1;
nodes = (
"41 665 LINE",
"41 730 LINE",
"233 730 LINE",
"233 665 LINE"
);
},
{
closed = 1;
nodes = (
"62 372 LINE",
"62 440 LINE",
"62 440 OFFCURVE",
"107 440 OFFCURVE",
"107 440 CURVE",
"188 440 OFFCURVE",
"256 403 OFFCURVE",
"256 305 CURVE",
"256 126 LINE SMOOTH",
"256 35 OFFCURVE",
"206 0 OFFCURVE",
"120 0 CURVE",
"71 0 LINE",
"71 68 LINE",
"71 68 OFFCURVE",
"113 68 OFFCURVE",
"113 68 CURVE",
"163 68 OFFCURVE",
"181 86 OFFCURVE",
"181 151 CURVE",
"181 315 LINE SMOOTH",
"181 350 OFFCURVE",
"169 372 OFFCURVE",
"120 372 CURVE"
);
}
);
width = 279;
},
{
associatedMasterId = master01;
layerId = "08C423EC-C9F9-491D-963A-01C2124B929D";
name = foreground;
paths = (
{
closed = 1;
nodes = (
"105 730 LINE",
"105 0 LINE",
"30 0 LINE",
"30 730 LINE"
);
},
{
closed = 1;
nodes = (
"41 665 LINE",
"41 730 LINE",
"233 730 LINE",
"233 665 LINE"
);
},
{
closed = 1;
nodes = (
"62 372 LINE",
"62 440 LINE",
"62 440 OFFCURVE",
"107 440 OFFCURVE",
"107 440 CURVE",
"188 440 OFFCURVE",
"256 403 OFFCURVE",
"256 305 CURVE",
"256 126 LINE SMOOTH",
"256 35 OFFCURVE",
"206 0 OFFCURVE",
"120 0 CURVE",
"71 0 LINE",
"71 68 LINE",
"71 68 OFFCURVE",
"113 68 OFFCURVE",
"113 68 CURVE",
"163 68 OFFCURVE",
"181 86 OFFCURVE",
"181 151 CURVE",
"181 315 LINE SMOOTH",
"181 350 OFFCURVE",
"169 372 OFFCURVE",
"120 372 CURVE"
);
}
);
width = 279;
}
);
leftKerningGroup = H;
unicode = 0411;
},
{
glyphname = uni0490;
layers = (
{
components = (
{
name = uni0413;
}
);
layerId = master01;
paths = (
{
closed = 1;
nodes = (
"153 723 LINE",
"213 723 LINE",
"213 850 LINE",
"193 850 LINE"
);
}
);
width = 223;
},
{
associatedMasterId = master01;
components = (
{
name = uni0413;
}
);
layerId = "0C1C2341-8059-41EC-A961-D639284320E8";
name = foreground;
paths = (
{
closed = 1;
nodes = (
"153 723 LINE",
"213 723 LINE",
"213 850 LINE",
"193 850 LINE"
);
}
);
width = 223;
}
);
leftKerningGroup = H;
rightKerningGroup = Ge;
unicode = 0490;
},
{
glyphname = uni0414;
layers = (
{
layerId = master01;
paths = (
{
closed = 1;
nodes = (
"239 -107 LINE",
"259 -107 LINE",
"259 65 LINE",
"179 65 LINE"
);
},
{
closed = 1;
nodes = (
"25 -107 LINE",
"85 65 LINE",
"5 65 LINE",
"5 -107 LINE"
);
},
{
closed = 1;
nodes = (
"227 0 LINE",
"209 65 LINE",
"5 65 LINE",
"5 0 LINE"
);
},
{
closed = 1;
nodes = (
"56 730 LINE",
"56 206 OFFCURVE",
"56 109 OFFCURVE",
"25 65 CURVE",
"25 0 LINE",
"69 0 LINE",
"84 119 OFFCURVE",
"83 270 OFFCURVE",
"83 730 CURVE"
);
},
{
closed = 1;
nodes = (
"229 730 LINE",
"154 730 LINE",
"154 0 LINE",
"229 0 LINE"
);
},
{
closed = 1;
nodes = (
"229 665 LINE",
"229 730 LINE",
"56 730 LINE",
"56 665 LINE"
);
}
);
width = 264;
},
{
associatedMasterId = master01;
layerId = "4E61571C-D4AE-44EA-9A56-2F911BCAE544";
name = foreground;
paths = (
{
closed = 1;
nodes = (
"239 -107 LINE",
"259 -107 LINE",
"259 65 LINE",
"179 65 LINE"
);
},
{
closed = 1;
nodes = (
"25 -107 LINE",
"85 65 LINE",
"5 65 LINE",
"5 -107 LINE"
);
},
{
closed = 1;
nodes = (
"227 0 LINE",
"209 65 LINE",
"5 65 LINE",
"5 0 LINE"
);
},
{
closed = 1;
nodes = (
"56 730 LINE",
"56 206 OFFCURVE",
"56 109 OFFCURVE",
"25 65 CURVE",
"25 0 LINE",
"69 0 LINE",
"84 119 OFFCURVE",
"83 270 OFFCURVE",
"83 730 CURVE"
);
},
{
closed = 1;
nodes = (
"229 730 LINE",
"154 730 LINE",
"154 0 LINE",
"229 0 LINE"
);
},
{
closed = 1;
nodes = (
"229 665 LINE",
"229 730 LINE",
"56 730 LINE",
"56 665 LINE"
);
}
);
width = 264;
}
);
leftKerningGroup = De;
rightKerningGroup = De;
unicode = 0414;
},
{
glyphname = uni0416;
layers = (
{
layerId = master01;
paths = (
{
closed = 1;
nodes = (
"153 0 LINE",
"228 0 LINE",
"228 332 LINE SMOOTH",
"228 380 OFFCURVE",
"240 418 OFFCURVE",
"255 481 CURVE",
"279 580 OFFCURVE",
"315 644 OFFCURVE",
"364 658 CURVE",
"381 663 LINE",
"381 730 LINE",
"291 730 LINE",
"214 411 LINE",
"204 413 LINE",
"228 649 LINE",
"228 730 LINE",
"153 730 LINE",
"153 649 LINE",
"177 413 LINE",
"167 411 LINE",
"90 730 LINE",
"0 730 LINE",
"0 663 LINE",
"17 658 LINE SMOOTH",
"66 644 OFFCURVE",
"97 580 OFFCURVE",
"126 481 CURVE",
"144 418 OFFCURVE",
"153 380 OFFCURVE",
"153 332 CURVE"
);
},
{
closed = 1;
nodes = (
"5 0 LINE",
"86 0 LINE",
"108 283 LINE SMOOTH",
"114 361 OFFCURVE",
"123 377 OFFCURVE",
"153 372 CURVE",
"150 404 LINE",
"138 393 LINE",
"56 401 LINE"
);
},
{
closed = 1;
nodes = (
"295 0 LINE",
"376 0 LINE",
"325 401 LINE",
"243 393 LINE",
"231 404 LINE",
"228 372 LINE",
"258 377 OFFCURVE",
"267 361 OFFCURVE",
"273 283 CURVE"
);
}
);
width = 381;
},
{
associatedMasterId = master01;
layerId = "8EB1339E-C586-42EC-BD66-0ACBE0550810";
name = foreground;
paths = (
{
closed = 1;
nodes = (
"153 0 LINE",
"228 0 LINE",
"228 332 LINE SMOOTH",
"228 380 OFFCURVE",
"240 418 OFFCURVE",
"255 481 CURVE",
"279 580 OFFCURVE",
"315 644 OFFCURVE",
"364 658 CURVE",
"381 663 LINE",
"381 730 LINE",
"291 730 LINE",
"214 411 LINE",
"204 413 LINE",
"228 649 LINE",
"228 730 LINE",
"153 730 LINE",
"153 649 LINE",
"177 413 LINE",
"167 411 LINE",
"90 730 LINE",
"0 730 LINE",
"0 663 LINE",
"17 658 LINE SMOOTH",
"66 644 OFFCURVE",
"97 580 OFFCURVE",
"126 481 CURVE",
"144 418 OFFCURVE",
"153 380 OFFCURVE",
"153 332 CURVE"
);
},
{
closed = 1;
nodes = (
"5 0 LINE",
"86 0 LINE",
"108 283 LINE SMOOTH",
"114 361 OFFCURVE",
"123 377 OFFCURVE",
"153 372 CURVE",
"150 404 LINE",
"138 393 LINE",
"56 401 LINE"
);
},
{
closed = 1;
nodes = (
"295 0 LINE",
"376 0 LINE",
"325 401 LINE",
"243 393 LINE",
"231 404 LINE",
"228 372 LINE",
"258 377 OFFCURVE",
"267 361 OFFCURVE",
"273 283 CURVE"
);
}
);
width = 381;
}
);
leftKerningGroup = X;
rightKerningGroup = K;
unicode = 0416;
},
{
glyphname = uni0417;
layers = (
{
layerId = master01;
paths = (
{
closed = 1;
nodes = (
"112 368 LINE",
"111 376 LINE",
"161 385 OFFCURVE",
"196 422 OFFCURVE",
"196 515 CURVE",
"196 605 LINE SMOOTH",
"196 703 OFFCURVE",
"157 740 OFFCURVE",
"99 740 CURVE",
"47 740 OFFCURVE",
"22 709 OFFCURVE",
"22 647 CURVE",
"22 596 OFFCURVE",
"24 546 OFFCURVE",
"32 455 CURVE",
"103 455 LINE",
"47 595 OFFCURVE",
"41 614 OFFCURVE",
"41 642 CURVE",
"41 664 OFFCURVE",
"52 672 OFFCURVE",
"72 672 CURVE",
"120 672 OFFCURVE",
"121 650 OFFCURVE",
"121 615 CURVE",
"121 455 LINE SMOOTH",
"121 406 OFFCURVE",
"102 380 OFFCURVE",
"69 380 CURVE",
"47 380 LINE",
"47 360 LINE",
"69 360 LINE SMOOTH",
"107 360 OFFCURVE",
"125 336 OFFCURVE",
"125 275 CURVE",
"125 141 LINE SMOOTH",
"125 69 OFFCURVE",
"104 58 OFFCURVE",
"84 58 CURVE",
"58 58 OFFCURVE",
"48 96 OFFCURVE",
"46 160 CURVE",
"43 278 LINE",
"29 278 LINE",
"26 157 LINE SMOOTH",
"24 62 OFFCURVE",
"53 -10 OFFCURVE",
"113 -10 CURVE",
"170 -10 OFFCURVE",
"200 21 OFFCURVE",
"200 107 CURVE",
"200 225 LINE SMOOTH",
"200 292 OFFCURVE",
"194 354 OFFCURVE",
"166 374 CURVE"
);
}
);
width = 230;
},
{
associatedMasterId = master01;
layerId = "48719F34-FDF3-4448-B644-52AD3427F7B3";
name = foreground;
paths = (
{
closed = 1;
nodes = (
"112 368 LINE",
"111 376 LINE",
"161 385 OFFCURVE",
"196 422 OFFCURVE",
"196 515 CURVE",
"196 605 LINE SMOOTH",
"196 703 OFFCURVE",
"157 740 OFFCURVE",
"99 740 CURVE",
"47 740 OFFCURVE",
"22 709 OFFCURVE",
"22 647 CURVE",
"22 596 OFFCURVE",
"24 546 OFFCURVE",
"32 455 CURVE",
"103 455 LINE",
"47 595 OFFCURVE",
"41 614 OFFCURVE",
"41 642 CURVE",
"41 664 OFFCURVE",
"52 672 OFFCURVE",
"72 672 CURVE",
"120 672 OFFCURVE",
"121 650 OFFCURVE",
"121 615 CURVE",
"121 455 LINE SMOOTH",
"121 406 OFFCURVE",
"102 380 OFFCURVE",
"69 380 CURVE",
"47 380 LINE",
"47 360 LINE",
"69 360 LINE SMOOTH",
"107 360 OFFCURVE",
"125 336 OFFCURVE",
"125 275 CURVE",
"125 141 LINE SMOOTH",
"125 69 OFFCURVE",
"104 58 OFFCURVE",
"84 58 CURVE",
"58 58 OFFCURVE",
"48 96 OFFCURVE",
"46 160 CURVE",
"43 278 LINE",
"29 278 LINE",
"26 157 LINE SMOOTH",
"24 62 OFFCURVE",
"53 -10 OFFCURVE",
"113 -10 CURVE",
"170 -10 OFFCURVE",
"200 21 OFFCURVE",
"200 107 CURVE",
"200 225 LINE SMOOTH",
"200 292 OFFCURVE",
"194 354 OFFCURVE",
"166 374 CURVE"
);
}
);
width = 230;
}
);
leftKerningGroup = O;
rightKerningGroup = Eth;
unicode = 0417;
},
{
glyphname = uni0419;
layers = (
{
anchors = (
{
name = _top;
position = "{139, 760}";
},
{
name = top;
position = "{139, 760}";
}
);
components = (
{
name = uni0418;
}
);
layerId = master01;
paths = (
{
closed = 1;
nodes = (
"169 850 LINE",
"171 840 LINE SMOOTH",
"181 792 OFFCURVE",
"174 770 OFFCURVE",
"139 770 CURVE",
"104 770 OFFCURVE",
"97 792 OFFCURVE",
"107 840 CURVE",
"109 850 LINE",
"39 850 LINE",
"39 840 LINE SMOOTH",
"39 784 OFFCURVE",
"71 757 OFFCURVE",
"139 756 CURVE",
"207 757 OFFCURVE",
"239 784 OFFCURVE",
"239 840 CURVE",
"239 850 LINE"
);
}
);
width = 280;
},
{
anchors = (
{
name = _top;
position = "{139, 760}";
},
{
name = top;
position = "{139, 760}";
}
);
associatedMasterId = master01;
components = (
{
name = uni0418;
}
);
layerId = "3EA7F80B-E09B-49A6-8049-0FE93CC2458B";
name = foreground;
paths = (
{
closed = 1;
nodes = (
"169 850 LINE",
"171 840 LINE SMOOTH",
"181 792 OFFCURVE",
"174 770 OFFCURVE",
"139 770 CURVE",
"104 770 OFFCURVE",
"97 792 OFFCURVE",
"107 840 CURVE",
"109 850 LINE",
"39 850 LINE",
"39 840 LINE SMOOTH",
"39 784 OFFCURVE",
"71 757 OFFCURVE",
"139 756 CURVE",
"207 757 OFFCURVE",
"239 784 OFFCURVE",
"239 840 CURVE",
"239 850 LINE"
);
}
);
width = 280;
}
);
leftKerningGroup = H;
rightKerningGroup = H;
unicode = 0419;
},
{
glyphname = uni041B;
layers = (
{
layerId = master01;
paths = (
{
closed = 1;
nodes = (
"5 0 LINE",
"79 0 LINE",
"95 122 OFFCURVE",
"93 278 OFFCURVE",
"93 730 CURVE",
"66 730 LINE",
"66 266 OFFCURVE",
"63 117 OFFCURVE",
"5 77 CURVE"
);
},
{
closed = 1;
nodes = (
"174 0 LINE",
"249 0 LINE",
"249 730 LINE",
"174 730 LINE"
);
},
{
closed = 1;
nodes = (
"76 665 LINE",
"190 665 LINE",
"190 730 LINE",
"76 730 LINE"
);
}
);
width = 279;
},
{
associatedMasterId = master01;
layerId = "0476B1D5-CD12-4702-B90F-F0103E183E74";
name = foreground;
paths = (
{
closed = 1;
nodes = (
"5 0 LINE",
"79 0 LINE",
"95 122 OFFCURVE",
"93 278 OFFCURVE",
"93 730 CURVE",
"66 730 LINE",
"66 266 OFFCURVE",
"63 117 OFFCURVE",
"5 77 CURVE"
);
},
{
closed = 1;
nodes = (
"174 0 LINE",
"249 0 LINE",
"249 730 LINE",
"174 730 LINE"
);
},
{
closed = 1;
nodes = (
"76 665 LINE",
"190 665 LINE",
"190 730 LINE",
"76 730 LINE"
);
}
);
width = 279;
}
);
rightKerningGroup = H;
unicode = 041B;
},
{
glyphname = uni041F;
layers = (
{
layerId = master01;
paths = (
{
closed = 1;
nodes = (
"185 0 LINE",
"260 0 LINE",
"260 730 LINE",
"185 730 LINE"
);
},
{
closed = 1;
nodes = (
"30 0 LINE",
"105 0 LINE",
"105 730 LINE",
"30 730 LINE"
);
},
{
closed = 1;
nodes = (
"82 665 LINE",
"206 665 LINE",
"206 730 LINE",
"82 730 LINE"
);
}
);
width = 290;
},
{
associatedMasterId = master01;
layerId = "DEDFFC6C-C300-4227-950B-FB140949586B";
name = foreground;
paths = (
{
closed = 1;
nodes = (
"185 0 LINE",
"260 0 LINE",
"260 730 LINE",
"185 730 LINE"
);
},
{
closed = 1;
nodes = (
"30 0 LINE",
"105 0 LINE",
"105 730 LINE",
"30 730 LINE"
);
},
{
closed = 1;
nodes = (
"82 665 LINE",
"206 665 LINE",
"206 730 LINE",
"82 730 LINE"
);
}
);
width = 290;
}
);
leftKerningGroup = H;
rightKerningGroup = H;
unicode = 041F;
},
{
glyphname = uni0423;
layers = (
{
layerId = master01;
paths = (
{
closed = 1;
nodes = (
"81 730 LINE",
"115 509 LINE",
"137 309 LINE",
"148 309 LINE",
"138 212 LINE",
"108 212 LINE",
"0 730 LINE"
);
},
{
closed = 1;
nodes = (
"189 730 LINE",
"276 730 LINE",
"121 0 LINE",
"27 0 LINE",
"138 212 LINE",
"148 309 LINE"
);
}
);
width = 276;
},
{
associatedMasterId = master01;
layerId = "1DDC8B6E-EF0C-4BAB-9130-A07306151133";
name = foreground;
paths = (
{
closed = 1;
nodes = (
"81 730 LINE",
"115 509 LINE",
"137 309 LINE",
"148 309 LINE",
"138 212 LINE",
"108 212 LINE",
"0 730 LINE"
);
},
{
closed = 1;
nodes = (
"189 730 LINE",
"276 730 LINE",
"121 0 LINE",
"27 0 LINE",
"138 212 LINE",
"148 309 LINE"
);
}
);
width = 276;
}
);
unicode = 0423;
},
{
glyphname = uni0424;
layers = (
{
anchors = (
{
name = bottom_right;
position = "{240, 0}";
},
{
name = top;
position = "{202, 760}";
}
);
layerId = master01;
paths = (
{
closed = 1;
nodes = (
"191 600 LINE SMOOTH",
"112 600 OFFCURVE",
"103 575 OFFCURVE",
"103 520 CURVE",
"103 216 LINE SMOOTH",
"103 135 OFFCURVE",
"125 120 OFFCURVE",
"198 120 CURVE",
"218 120 LINE SMOOTH",
"294 120 OFFCURVE",
"302 145 OFFCURVE",
"302 200 CURVE",
"302 504 LINE SMOOTH",
"302 586 OFFCURVE",
"281 600 OFFCURVE",
"211 600 CURVE"
);
},
{
closed = 1;
nodes = (
"186 60 LINE SMOOTH",
"68 60 OFFCURVE",
"30 91 OFFCURVE",
"30 197 CURVE",
"30 505 LINE SMOOTH",
"30 623 OFFCURVE",
"84 660 OFFCURVE",
"198 660 CURVE",
"218 660 LINE SMOOTH",
"338 660 OFFCURVE",
"375 629 OFFCURVE",
"375 523 CURVE",
"375 215 LINE SMOOTH",
"375 97 OFFCURVE",
"321 60 OFFCURVE",
"206 60 CURVE"
);
},
{
closed = 1;
nodes = (
"239 730 LINE",
"239 0 LINE",
"166 0 LINE",
"166 730 LINE"
);
}
);
width = 405;
},
{
anchors = (
{
name = bottom_right;
position = "{240, 0}";
},
{
name = top;
position = "{202, 760}";
}
);
associatedMasterId = master01;
layerId = "E888CABC-611C-4EBA-9C8D-39C0863E4DC4";
name = foreground;
paths = (
{
closed = 1;
nodes = (
"191 600 LINE SMOOTH",
"112 600 OFFCURVE",
"103 575 OFFCURVE",
"103 520 CURVE",
"103 216 LINE SMOOTH",
"103 135 OFFCURVE",
"125 120 OFFCURVE",
"198 120 CURVE",
"218 120 LINE SMOOTH",
"294 120 OFFCURVE",
"302 145 OFFCURVE",
"302 200 CURVE",
"302 504 LINE SMOOTH",
"302 586 OFFCURVE",
"281 600 OFFCURVE",
"211 600 CURVE"
);
},
{
closed = 1;
nodes = (
"186 60 LINE SMOOTH",
"68 60 OFFCURVE",
"30 91 OFFCURVE",
"30 197 CURVE",
"30 505 LINE SMOOTH",
"30 623 OFFCURVE",
"84 660 OFFCURVE",
"198 660 CURVE",
"218 660 LINE SMOOTH",
"338 660 OFFCURVE",
"375 629 OFFCURVE",
"375 523 CURVE",
"375 215 LINE SMOOTH",
"375 97 OFFCURVE",
"321 60 OFFCURVE",
"206 60 CURVE"
);
},
{
closed = 1;
nodes = (
"239 730 LINE",
"239 0 LINE",
"166 0 LINE",
"166 730 LINE"
);
}
);
width = 405;
}
);
unicode = 0424;
},
{
glyphname = uni0427;
layers = (
{
layerId = master01;
paths = (
{
closed = 1;
nodes = (
"175 0 LINE",
"175 284 LINE",
"158 276 OFFCURVE",
"134 270 OFFCURVE",
"110 270 CURVE",
"59 270 OFFCURVE",
"25 303 OFFCURVE",
"25 353 CURVE",
"25 732 LINE",
"100 732 LINE",
"100 352 LINE SMOOTH",
"100 316 OFFCURVE",
"107 298 OFFCURVE",
"135 298 CURVE",
"149 298 OFFCURVE",
"165 301 OFFCURVE",
"175 305 CURVE",
"175 730 LINE",
"250 730 LINE",
"250 0 LINE"
);
}
);
width = 280;
},
{
associatedMasterId = master01;
layerId = "BA64F4D1-7B64-4569-BB2E-F29D22379CFE";
name = foreground;
paths = (
{
closed = 1;
nodes = (
"175 0 LINE",
"175 284 LINE",
"158 276 OFFCURVE",
"134 270 OFFCURVE",
"110 270 CURVE",
"59 270 OFFCURVE",
"25 303 OFFCURVE",
"25 353 CURVE",
"25 732 LINE",
"100 732 LINE",
"100 352 LINE SMOOTH",
"100 316 OFFCURVE",
"107 298 OFFCURVE",
"135 298 CURVE",
"149 298 OFFCURVE",
"165 301 OFFCURVE",
"175 305 CURVE",
"175 730 LINE",
"250 730 LINE",
"250 0 LINE"
);
}
);
width = 280;
}
);
rightKerningGroup = H;
unicode = 0427;
},
{
glyphname = uni0426;
layers = (
{
components = (
{
name = uni041F;
transform = "{1, 0, 0, -1, 0, 730}";
}
);
layerId = master01;
paths = (
{
closed = 1;
nodes = (
"270 -107 LINE",
"290 -107 LINE",
"290 65 LINE",
"210 65 LINE"
);
}
);
width = 295;
},
{
associatedMasterId = master01;
components = (
{
name = uni041F;
transform = "{1, 0, 0, -1, 0, 730}";
}
);
layerId = "A9EB287F-9564-4532-B904-2BFFDE803F65";
name = foreground;
paths = (
{
closed = 1;
nodes = (
"270 -107 LINE",
"290 -107 LINE",
"290 65 LINE",
"210 65 LINE"
);
}
);
width = 295;
}
);
leftKerningGroup = H;
rightKerningGroup = De;
unicode = 0426;
},
{
glyphname = uni0428;
layers = (
{
layerId = master01;
paths = (
{
closed = 1;
nodes = (
"30 0 LINE",
"365 0 LINE",
"365 730 LINE",
"290 730 LINE",
"290 65 LINE",
"235 65 LINE",
"235 730 LINE",
"160 730 LINE",
"160 65 LINE",
"105 65 LINE",
"105 730 LINE",
"30 730 LINE"
);
}
);
width = 395;
},
{
associatedMasterId = master01;
layerId = "4E4D4D3B-1A5D-4407-8427-6069166E85CC";
name = foreground;
paths = (
{
closed = 1;
nodes = (
"30 0 LINE",
"365 0 LINE",
"365 730 LINE",
"290 730 LINE",
"290 65 LINE",
"235 65 LINE",
"235 730 LINE",
"160 730 LINE",
"160 65 LINE",
"105 65 LINE",
"105 730 LINE",
"30 730 LINE"
);
}
);
width = 395;
}
);
leftKerningGroup = H;
rightKerningGroup = H;
unicode = 0428;
},
{
glyphname = uni0429;
layers = (
{
components = (
{
name = uni0428;
}
);
layerId = master01;
paths = (
{
closed = 1;
nodes = (
"375 -107 LINE",
"395 -107 LINE",
"395 65 LINE",
"315 65 LINE"
);
}
);
width = 400;
},
{
associatedMasterId = master01;
components = (
{
name = uni0428;
}
);
layerId = "E1C7D877-2123-41FD-B6B5-6103661E9509";
name = foreground;
paths = (
{
closed = 1;
nodes = (
"375 -107 LINE",
"395 -107 LINE",
"395 65 LINE",
"315 65 LINE"
);
}
);
width = 400;
}
);
leftKerningGroup = H;
rightKerningGroup = De;
unicode = 0429;
},
{
glyphname = uni042C;
layers = (
{
layerId = master01;
paths = (
{
closed = 1;
nodes = (
"105 0 LINE",
"30 0 LINE",
"30 730 LINE",
"105 730 LINE"
);
},
{
closed = 1;
nodes = (
"62 402 LINE",
"62 470 LINE",
"62 470 OFFCURVE",
"107 470 OFFCURVE",
"107 470 CURVE",
"188 470 OFFCURVE",
"256 433 OFFCURVE",
"256 335 CURVE",
"256 126 LINE SMOOTH",
"256 35 OFFCURVE",
"206 0 OFFCURVE",
"120 0 CURVE",
"71 0 LINE",
"71 68 LINE",
"71 68 OFFCURVE",
"113 68 OFFCURVE",
"113 68 CURVE",
"163 68 OFFCURVE",
"181 86 OFFCURVE",
"181 151 CURVE",
"181 345 LINE SMOOTH",
"181 380 OFFCURVE",
"169 402 OFFCURVE",
"120 402 CURVE"
);
}
);
width = 286;
},
{
associatedMasterId = master01;
layerId = "F1ED2E7F-85DE-48C9-AB93-D82A5AE13076";
name = foreground;
paths = (
{
closed = 1;
nodes = (
"105 0 LINE",
"30 0 LINE",
"30 730 LINE",
"105 730 LINE"
);
},
{
closed = 1;
nodes = (
"62 402 LINE",
"62 470 LINE",
"62 470 OFFCURVE",
"107 470 OFFCURVE",
"107 470 CURVE",
"188 470 OFFCURVE",
"256 433 OFFCURVE",
"256 335 CURVE",
"256 126 LINE SMOOTH",
"256 35 OFFCURVE",
"206 0 OFFCURVE",
"120 0 CURVE",
"71 0 LINE",
"71 68 LINE",
"71 68 OFFCURVE",
"113 68 OFFCURVE",
"113 68 CURVE",
"163 68 OFFCURVE",
"181 86 OFFCURVE",
"181 151 CURVE",
"181 345 LINE SMOOTH",
"181 380 OFFCURVE",
"169 402 OFFCURVE",
"120 402 CURVE"
);
}
);
width = 286;
}
);
leftKerningGroup = H;
rightKerningGroup = Soft;
unicode = 042C;
},
{
glyphname = uni042A;
layers = (
{
components = (
{
name = uni042C;
transform = "{1, 0, 0, 1, 30, 0}";
}
);
layerId = master01;
paths = (
{
closed = 1;
nodes = (
"-5 730 LINE",
"123 730 LINE",
"123 665 LINE",
"-5 665 LINE"
);
}
);
width = 316;
},
{
associatedMasterId = master01;
components = (
{
name = uni042C;
transform = "{1, 0, 0, 1, 30, 0}";
}
);
layerId = "22B5E788-982E-43A5-875D-E9107475AB62";
name = foreground;
paths = (
{
closed = 1;
nodes = (
"-5 730 LINE",
"123 730 LINE",
"123 665 LINE",
"-5 665 LINE"
);
}
);
width = 316;
}
);
rightKerningGroup = Soft;
unicode = 042A;
},
{
glyphname = uni0404;
layers = (
{
anchors = (
{
name = bottom;
position = "{118, 0}";
}
);
layerId = master01;
paths = (
{
closed = 1;
nodes = (
"177 -10 OFFCURVE",
"206 62 OFFCURVE",
"204 157 CURVE",
"201 278 LINE",
"187 278 LINE",
"184 160 LINE SMOOTH",
"182 96 OFFCURVE",
"172 58 OFFCURVE",
"146 58 CURVE",
"126 58 OFFCURVE",
"105 69 OFFCURVE",
"105 141 CURVE",
"105 615 LINE SMOOTH",
"105 650 OFFCURVE",
"111 672 OFFCURVE",
"143 672 CURVE",
"177 672 OFFCURVE",
"195 664 OFFCURVE",
"195 642 CURVE",
"195 614 OFFCURVE",
"188 605 OFFCURVE",
"118 455 CURVE",
"194 455 LINE",
"212 556 OFFCURVE",
"214 596 OFFCURVE",
"214 647 CURVE",
"214 709 OFFCURVE",
"189 740 OFFCURVE",
"137 740 CURVE",
"79 740 OFFCURVE",
"30 703 OFFCURVE",
"30 605 CURVE",
"30 107 LINE SMOOTH",
"30 21 OFFCURVE",
"60 -10 OFFCURVE",
"117 -10 CURVE SMOOTH"
);
},
{
closed = 1;
nodes = (
"86 360 LINE",
"186 360 LINE",
"186 380 LINE",
"86 380 LINE"
);
}
);
width = 236;
},
{
anchors = (
{
name = bottom;
position = "{118, 0}";
}
);
associatedMasterId = master01;
layerId = "B05244DE-A1B8-47E0-A37C-C2E52465633F";
name = foreground;
paths = (
{
closed = 1;
nodes = (
"177 -10 OFFCURVE",
"206 62 OFFCURVE",
"204 157 CURVE",
"201 278 LINE",
"187 278 LINE",
"184 160 LINE SMOOTH",
"182 96 OFFCURVE",
"172 58 OFFCURVE",
"146 58 CURVE",
"126 58 OFFCURVE",
"105 69 OFFCURVE",
"105 141 CURVE",
"105 615 LINE SMOOTH",
"105 650 OFFCURVE",
"111 672 OFFCURVE",
"143 672 CURVE",
"177 672 OFFCURVE",
"195 664 OFFCURVE",
"195 642 CURVE",
"195 614 OFFCURVE",
"188 605 OFFCURVE",
"118 455 CURVE",
"194 455 LINE",
"212 556 OFFCURVE",
"214 596 OFFCURVE",
"214 647 CURVE",
"214 709 OFFCURVE",
"189 740 OFFCURVE",
"137 740 CURVE",
"79 740 OFFCURVE",
"30 703 OFFCURVE",
"30 605 CURVE",
"30 107 LINE SMOOTH",
"30 21 OFFCURVE",
"60 -10 OFFCURVE",
"117 -10 CURVE SMOOTH"
);
},
{
closed = 1;
nodes = (
"86 360 LINE",
"186 360 LINE",
"186 380 LINE",
"86 380 LINE"
);
}
);
width = 236;
}
);
leftKerningGroup = O;
rightKerningGroup = Eth;
unicode = 0404;
},
{
glyphname = uni042D;
layers = (
{
anchors = (
{
name = bottom;
position = "{118, 0}";
}
);
layerId = master01;
paths = (
{
closed = 1;
nodes = (
"176 -10 OFFCURVE",
"206 21 OFFCURVE",
"206 107 CURVE",
"206 605 LINE SMOOTH",
"206 703 OFFCURVE",
"157 740 OFFCURVE",
"99 740 CURVE",
"47 740 OFFCURVE",
"22 709 OFFCURVE",
"22 647 CURVE",
"22 596 OFFCURVE",
"24 556 OFFCURVE",
"42 455 CURVE",
"118 455 LINE",
"48 605 OFFCURVE",
"41 614 OFFCURVE",
"41 642 CURVE",
"41 664 OFFCURVE",
"52 672 OFFCURVE",
"72 672 CURVE",
"120 672 OFFCURVE",
"131 650 OFFCURVE",
"131 615 CURVE",
"131 141 LINE SMOOTH",
"131 69 OFFCURVE",
"110 58 OFFCURVE",
"90 58 CURVE",
"64 58 OFFCURVE",
"54 96 OFFCURVE",
"52 160 CURVE",
"49 278 LINE",
"35 278 LINE",
"32 157 LINE SMOOTH",
"30 62 OFFCURVE",
"59 -10 OFFCURVE",
"119 -10 CURVE SMOOTH"
);
},
{
closed = 1;
nodes = (
"150 360 LINE",
"150 380 LINE",
"50 380 LINE",
"50 360 LINE"
);
}
);
width = 236;
},
{
anchors = (
{
name = bottom;
position = "{118, 0}";
}
);
associatedMasterId = master01;
layerId = "35D1453B-E50B-4A34-8FB1-57874C9A085C";
name = foreground;
paths = (
{
closed = 1;
nodes = (
"176 -10 OFFCURVE",
"206 21 OFFCURVE",
"206 107 CURVE",
"206 605 LINE SMOOTH",
"206 703 OFFCURVE",
"157 740 OFFCURVE",
"99 740 CURVE",
"47 740 OFFCURVE",
"22 709 OFFCURVE",
"22 647 CURVE",
"22 596 OFFCURVE",
"24 556 OFFCURVE",
"42 455 CURVE",
"118 455 LINE",
"48 605 OFFCURVE",
"41 614 OFFCURVE",
"41 642 CURVE",
"41 664 OFFCURVE",
"52 672 OFFCURVE",
"72 672 CURVE",
"120 672 OFFCURVE",
"131 650 OFFCURVE",
"131 615 CURVE",
"131 141 LINE SMOOTH",
"131 69 OFFCURVE",
"110 58 OFFCURVE",
"90 58 CURVE",
"64 58 OFFCURVE",
"54 96 OFFCURVE",
"52 160 CURVE",
"49 278 LINE",
"35 278 LINE",
"32 157 LINE SMOOTH",
"30 62 OFFCURVE",
"59 -10 OFFCURVE",
"119 -10 CURVE SMOOTH"
);
},
{
closed = 1;
nodes = (
"150 360 LINE",
"150 380 LINE",
"50 380 LINE",
"50 360 LINE"
);
}
);
width = 236;
}
);
leftKerningGroup = O;
rightKerningGroup = Eth;
unicode = 042D;
},
{
glyphname = uni042E;
layers = (
{
anchors = (
{
name = bottom_right;
position = "{105, 0}";
},
{
name = top;
position = "{277, 760}";
}
);
components = (
{
name = I;
},
{
name = O;
transform = "{1, 0, 0, 1, 130, 0}";
}
);
layerId = master01;
paths = (
{
closed = 1;
nodes = (
"50 364 LINE",
"50 384 LINE",
"218 384 LINE",
"218 364 LINE"
);
}
);
width = 416;
},
{
anchors = (
{
name = bottom_right;
position = "{105, 0}";
},
{
name = top;
position = "{277, 760}";
}
);
associatedMasterId = master01;
components = (
{
name = I;
},
{
name = O;
transform = "{1, 0, 0, 1, 130, 0}";
}
);
layerId = "90BD477C-9046-4ED8-B12F-A97811E51259";
name = foreground;
paths = (
{
closed = 1;
nodes = (
"50 364 LINE",
"50 384 LINE",
"218 384 LINE",
"218 364 LINE"
);
}
);
width = 416;
}
);
leftKerningGroup = H;
rightKerningGroup = Eth;
unicode = 042E;
},
{
glyphname = uni042F;
layers = (
{
layerId = master01;
paths = (
{
closed = 1;
nodes = (
"181 730 LINE",
"256 730 LINE",
"256 0 LINE",
"181 0 LINE"
);
},
{
closed = 1;
nodes = (
"215 299 LINE",
"214 281 LINE",
"158 281 LINE SMOOTH",
"86 281 OFFCURVE",
"30 315 OFFCURVE",
"30 405 CURVE",
"30 604 LINE SMOOTH",
"30 695 OFFCURVE",
"80 730 OFFCURVE",
"166 730 CURVE",
"215 730 LINE",
"215 662 LINE",
"215 662 OFFCURVE",
"173 662 OFFCURVE",
"173 662 CURVE",
"123 662 OFFCURVE",
"105 644 OFFCURVE",
"105 579 CURVE",
"105 375 LINE SMOOTH",
"105 330 OFFCURVE",
"114 299 OFFCURVE",
"162 299 CURVE"
);
},
{
closed = 1;
nodes = (
"133 288 LINE",
"184 284 LINE",
"184 270 LINE",
"144 271 OFFCURVE",
"129 257 OFFCURVE",
"124 226 CURVE",
"91 0 LINE",
"15 0 LINE",
"66 272 LINE",
"132 272 LINE"
);
}
);
width = 286;
},
{
associatedMasterId = master01;
layerId = "85594ABC-CED9-4A5F-A15C-1EF957460C70";
name = foreground;
paths = (
{
closed = 1;
nodes = (
"181 730 LINE",
"256 730 LINE",
"256 0 LINE",
"181 0 LINE"
);
},
{
closed = 1;
nodes = (
"215 299 LINE",
"214 281 LINE",
"158 281 LINE SMOOTH",
"86 281 OFFCURVE",
"30 315 OFFCURVE",
"30 405 CURVE",
"30 604 LINE SMOOTH",
"30 695 OFFCURVE",
"80 730 OFFCURVE",
"166 730 CURVE",
"215 730 LINE",
"215 662 LINE",
"215 662 OFFCURVE",
"173 662 OFFCURVE",
"173 662 CURVE",
"123 662 OFFCURVE",
"105 644 OFFCURVE",
"105 579 CURVE",
"105 375 LINE SMOOTH",
"105 330 OFFCURVE",
"114 299 OFFCURVE",
"162 299 CURVE"
);
},
{
closed = 1;
nodes = (
"133 288 LINE",
"184 284 LINE",
"184 270 LINE",
"144 271 OFFCURVE",
"129 257 OFFCURVE",
"124 226 CURVE",
"91 0 LINE",
"15 0 LINE",
"66 272 LINE",
"132 272 LINE"
);
}
);
width = 286;
}
);
rightKerningGroup = H;
unicode = 042F;
},
{
glyphname = uni0416.2;
layers = (
{
layerId = master01;
paths = (
{
closed = 1;
nodes = (
"160 0 LINE",
"235 0 LINE",
"235 214 LINE SMOOTH",
"235 247 OFFCURVE",
"248 325 OFFCURVE",
"268 412 CURVE",
"302 563 OFFCURVE",
"330 648 OFFCURVE",
"382 660 CURVE",
"395 663 LINE",
"395 730 LINE",
"305 730 LINE",
"221 295 LINE",
"211 297 LINE",
"235 649 LINE",
"235 730 LINE",
"160 730 LINE",
"160 649 LINE",
"184 297 LINE",
"174 295 LINE",
"90 730 LINE",
"0 730 LINE",
"0 663 LINE",
"13 660 LINE SMOOTH",
"65 648 OFFCURVE",
"93 563 OFFCURVE",
"127 412 CURVE",
"146 326 OFFCURVE",
"160 247 OFFCURVE",
"160 214 CURVE"
);
},
{
closed = 1;
nodes = (
"12 0 LINE",
"93 0 LINE",
"103 174 LINE",
"107 248 OFFCURVE",
"120 265 OFFCURVE",
"162 258 CURVE",
"159 290 LINE",
"147 279 LINE",
"49 292 LINE"
);
},
{
closed = 1;
nodes = (
"302 0 LINE",
"383 0 LINE",
"346 292 LINE",
"248 279 LINE",
"236 290 LINE",
"233 258 LINE",
"275 265 OFFCURVE",
"288 248 OFFCURVE",
"292 174 CURVE"
);
}
);
width = 395;
},
{
associatedMasterId = master01;
layerId = "F427887B-8922-473F-9102-729FCD9E44FA";
name = foreground;
paths = (
{
closed = 1;
nodes = (
"160 0 LINE",
"235 0 LINE",
"235 214 LINE SMOOTH",
"235 247 OFFCURVE",
"248 325 OFFCURVE",
"268 412 CURVE",
"302 563 OFFCURVE",
"330 648 OFFCURVE",
"382 660 CURVE",
"395 663 LINE",
"395 730 LINE",
"305 730 LINE",
"221 295 LINE",
"211 297 LINE",
"235 649 LINE",
"235 730 LINE",
"160 730 LINE",
"160 649 LINE",
"184 297 LINE",
"174 295 LINE",
"90 730 LINE",
"0 730 LINE",
"0 663 LINE",
"13 660 LINE SMOOTH",
"65 648 OFFCURVE",
"93 563 OFFCURVE",
"127 412 CURVE",
"146 326 OFFCURVE",
"160 247 OFFCURVE",
"160 214 CURVE"
);
},
{
closed = 1;
nodes = (
"12 0 LINE",
"93 0 LINE",
"103 174 LINE",
"107 248 OFFCURVE",
"120 265 OFFCURVE",
"162 258 CURVE",
"159 290 LINE",
"147 279 LINE",
"49 292 LINE"
);
},
{
closed = 1;
nodes = (
"302 0 LINE",
"383 0 LINE",
"346 292 LINE",
"248 279 LINE",
"236 290 LINE",
"233 258 LINE",
"275 265 OFFCURVE",
"288 248 OFFCURVE",
"292 174 CURVE"
);
}
);
width = 395;
}
);
leftKerningGroup = X;
rightKerningGroup = K.2;
},
{
glyphname = uni0416.3;
layers = (
{
layerId = master01;
paths = (
{
closed = 1;
nodes = (
"183 0 LINE",
"258 0 LINE",
"258 214 LINE SMOOTH",
"258 278 OFFCURVE",
"273 327 OFFCURVE",
"294 415 CURVE",
"330 564 OFFCURVE",
"344 647 OFFCURVE",
"396 657 CURVE",
"428 663 LINE",
"428 730 LINE",
"328 730 LINE",
"244 295 LINE",
"234 297 LINE",
"258 649 LINE",
"258 730 LINE",
"183 730 LINE",
"183 649 LINE",
"207 297 LINE",
"197 295 LINE",
"113 730 LINE",
"13 730 LINE",
"13 663 LINE",
"45 657 LINE SMOOTH",
"97 647 OFFCURVE",
"111 564 OFFCURVE",
"147 415 CURVE",
"168 327 OFFCURVE",
"183 278 OFFCURVE",
"183 214 CURVE"
);
},
{
closed = 1;
nodes = (
"10 0 LINE",
"91 0 LINE",
"111 174 LINE SMOOTH",
"120 248 OFFCURVE",
"140 265 OFFCURVE",
"185 258 CURVE",
"182 290 LINE",
"170 279 LINE",
"57 292 LINE"
);
},
{
closed = 1;
nodes = (
"350 0 LINE",
"431 0 LINE",
"384 292 LINE",
"271 279 LINE",
"259 290 LINE",
"256 258 LINE",
"301 265 OFFCURVE",
"321 248 OFFCURVE",
"330 174 CURVE"
);
},
{
closed = 1;
nodes = (
"188 276 LINE",
"184 293 LINE",
"166 287 LINE",
"95 506 LINE",
"13 506 LINE",
"13 454 LINE",
"35 448 LINE SMOOTH",
"81 435 OFFCURVE",
"94 417 OFFCURVE",
"119 357 CURVE",
"133 323 OFFCURVE",
"140 304 OFFCURVE",
"144 287 CURVE",
"130 279 LINE"
);
},
{
closed = 1;
nodes = (
"253 276 LINE",
"311 279 LINE",
"297 287 LINE",
"301 304 OFFCURVE",
"308 323 OFFCURVE",
"322 357 CURVE",
"347 417 OFFCURVE",
"360 435 OFFCURVE",
"406 448 CURVE",
"428 454 LINE",
"428 506 LINE",
"346 506 LINE",
"275 287 LINE",
"257 293 LINE"
);
}
);
width = 441;
},
{
associatedMasterId = master01;
layerId = "595CA7F2-FCA2-4E45-B35C-B6C3F7FAD83E";
name = foreground;
paths = (
{
closed = 1;
nodes = (
"183 0 LINE",
"258 0 LINE",
"258 214 LINE SMOOTH",
"258 278 OFFCURVE",
"273 327 OFFCURVE",
"294 415 CURVE",
"330 564 OFFCURVE",
"344 647 OFFCURVE",
"396 657 CURVE",
"428 663 LINE",
"428 730 LINE",
"328 730 LINE",
"244 295 LINE",
"234 297 LINE",
"258 649 LINE",
"258 730 LINE",
"183 730 LINE",
"183 649 LINE",
"207 297 LINE",
"197 295 LINE",
"113 730 LINE",
"13 730 LINE",
"13 663 LINE",
"45 657 LINE SMOOTH",
"97 647 OFFCURVE",
"111 564 OFFCURVE",
"147 415 CURVE",
"168 327 OFFCURVE",
"183 278 OFFCURVE",
"183 214 CURVE"
);
},
{
closed = 1;
nodes = (
"10 0 LINE",
"91 0 LINE",
"111 174 LINE SMOOTH",
"120 248 OFFCURVE",
"140 265 OFFCURVE",
"185 258 CURVE",
"182 290 LINE",
"170 279 LINE",
"57 292 LINE"
);
},
{
closed = 1;
nodes = (
"350 0 LINE",
"431 0 LINE",
"384 292 LINE",
"271 279 LINE",
"259 290 LINE",
"256 258 LINE",
"301 265 OFFCURVE",
"321 248 OFFCURVE",
"330 174 CURVE"
);
},
{
closed = 1;
nodes = (
"188 276 LINE",
"184 293 LINE",
"166 287 LINE",
"95 506 LINE",
"13 506 LINE",
"13 454 LINE",
"35 448 LINE SMOOTH",
"81 435 OFFCURVE",
"94 417 OFFCURVE",
"119 357 CURVE",
"133 323 OFFCURVE",
"140 304 OFFCURVE",
"144 287 CURVE",
"130 279 LINE"
);
},
{
closed = 1;
nodes = (
"253 276 LINE",
"311 279 LINE",
"297 287 LINE",
"301 304 OFFCURVE",
"308 323 OFFCURVE",
"322 357 CURVE",
"347 417 OFFCURVE",
"360 435 OFFCURVE",
"406 448 CURVE",
"428 454 LINE",
"428 506 LINE",
"346 506 LINE",
"275 287 LINE",
"257 293 LINE"
);
}
);
width = 441;
}
);
rightKerningGroup = Kk;
},
{
glyphname = uni0418.2;
layers = (
{
anchors = (
{
name = top;
position = "{206, 760}";
}
);
layerId = master01;
paths = (
{
closed = 1;
nodes = (
"303 730 LINE",
"330 730 LINE",
"215 0 LINE",
"187 0 LINE"
);
},
{
closed = 1;
nodes = (
"314 730 LINE",
"374 730 LINE",
"374 0 LINE",
"303 0 LINE",
"309 376 LINE",
"323 607 LINE",
"306 607 LINE"
);
},
{
closed = 1;
nodes = (
"238 730 LINE",
"195 123 LINE",
"212 123 LINE",
"204 0 LINE",
"162 0 LINE",
"204 607 LINE",
"187 607 LINE",
"195 730 LINE"
);
},
{
closed = 1;
nodes = (
"184 730 LINE",
"211 730 LINE",
"96 0 LINE",
"68 0 LINE"
);
},
{
closed = 1;
nodes = (
"85 0 LINE",
"25 0 LINE",
"25 730 LINE",
"97 730 LINE",
"80 354 LINE",
"76 123 LINE",
"93 123 LINE"
);
}
);
width = 399;
},
{
anchors = (
{
name = top;
position = "{206, 760}";
}
);
associatedMasterId = master01;
layerId = "D023F5A2-411B-467B-8147-F0F55610BB11";
name = foreground;
paths = (
{
closed = 1;
nodes = (
"303 730 LINE",
"330 730 LINE",
"215 0 LINE",
"187 0 LINE"
);
},
{
closed = 1;
nodes = (
"314 730 LINE",
"374 730 LINE",
"374 0 LINE",
"303 0 LINE",
"309 376 LINE",
"323 607 LINE",
"306 607 LINE"
);
},
{
closed = 1;
nodes = (
"238 730 LINE",
"195 123 LINE",
"212 123 LINE",
"204 0 LINE",
"162 0 LINE",
"204 607 LINE",
"187 607 LINE",
"195 730 LINE"
);
},
{
closed = 1;
nodes = (
"184 730 LINE",
"211 730 LINE",
"96 0 LINE",
"68 0 LINE"
);
},
{
closed = 1;
nodes = (
"85 0 LINE",
"25 0 LINE",
"25 730 LINE",
"97 730 LINE",
"80 354 LINE",
"76 123 LINE",
"93 123 LINE"
);
}
);
width = 399;
}
);
leftKerningGroup = H;
rightKerningGroup = H;
},
{
glyphname = uni0418.3;
layers = (
{
anchors = (
{
name = top;
position = "{273, 730}";
}
);
layerId = master01;
paths = (
{
closed = 1;
nodes = (
"422 730 LINE",
"449 730 LINE",
"334 0 LINE",
"306 0 LINE"
);
},
{
closed = 1;
nodes = (
"433 730 LINE",
"493 730 LINE",
"493 0 LINE",
"422 0 LINE",
"428 376 LINE",
"442 607 LINE",
"425 607 LINE"
);
},
{
closed = 1;
nodes = (
"357 730 LINE",
"314 123 LINE",
"331 123 LINE",
"323 0 LINE",
"281 0 LINE",
"323 607 LINE",
"306 607 LINE",
"314 730 LINE"
);
},
{
closed = 1;
nodes = (
"303 730 LINE",
"330 730 LINE",
"215 0 LINE",
"187 0 LINE"
);
},
{
closed = 1;
nodes = (
"238 730 LINE",
"195 123 LINE",
"212 123 LINE",
"204 0 LINE",
"162 0 LINE",
"204 607 LINE",
"187 607 LINE",
"195 730 LINE"
);
},
{
closed = 1;
nodes = (
"184 730 LINE",
"211 730 LINE",
"96 0 LINE",
"68 0 LINE"
);
},
{
closed = 1;
nodes = (
"85 0 LINE",
"25 0 LINE",
"25 730 LINE",
"97 730 LINE",
"80 354 LINE",
"76 123 LINE",
"93 123 LINE"
);
}
);
width = 518;
},
{
anchors = (
{
name = top;
position = "{273, 730}";
}
);
associatedMasterId = master01;
layerId = "4BE3635C-3A65-4E06-8722-56BC514D5DA0";
name = foreground;
paths = (
{
closed = 1;
nodes = (
"422 730 LINE",
"449 730 LINE",
"334 0 LINE",
"306 0 LINE"
);
},
{
closed = 1;
nodes = (
"433 730 LINE",
"493 730 LINE",
"493 0 LINE",
"422 0 LINE",
"428 376 LINE",
"442 607 LINE",
"425 607 LINE"
);
},
{
closed = 1;
nodes = (
"357 730 LINE",
"314 123 LINE",
"331 123 LINE",
"323 0 LINE",
"281 0 LINE",
"323 607 LINE",
"306 607 LINE",
"314 730 LINE"
);
},
{
closed = 1;
nodes = (
"303 730 LINE",
"330 730 LINE",
"215 0 LINE",
"187 0 LINE"
);
},
{
closed = 1;
nodes = (
"238 730 LINE",
"195 123 LINE",
"212 123 LINE",
"204 0 LINE",
"162 0 LINE",
"204 607 LINE",
"187 607 LINE",
"195 730 LINE"
);
},
{
closed = 1;
nodes = (
"184 730 LINE",
"211 730 LINE",
"96 0 LINE",
"68 0 LINE"
);
},
{
closed = 1;
nodes = (
"85 0 LINE",
"25 0 LINE",
"25 730 LINE",
"97 730 LINE",
"80 354 LINE",
"76 123 LINE",
"93 123 LINE"
);
}
);
width = 518;
}
);
leftKerningGroup = H;
rightKerningGroup = H;
},
{
glyphname = uni0419.2;
layers = (
{
anchors = (
{
name = top;
position = "{206, 760}";
}
);
layerId = master01;
paths = (
{
closed = 1;
nodes = (
"303 730 LINE",
"330 730 LINE",
"215 0 LINE",
"187 0 LINE"
);
},
{
closed = 1;
nodes = (
"314 730 LINE",
"374 730 LINE",
"374 0 LINE",
"303 0 LINE",
"309 376 LINE",
"323 607 LINE",
"306 607 LINE"
);
},
{
closed = 1;
nodes = (
"238 730 LINE",
"195 123 LINE",
"212 123 LINE",
"204 0 LINE",
"162 0 LINE",
"204 607 LINE",
"187 607 LINE",
"195 730 LINE"
);
},
{
closed = 1;
nodes = (
"184 730 LINE",
"211 730 LINE",
"96 0 LINE",
"68 0 LINE"
);
},
{
closed = 1;
nodes = (
"85 0 LINE",
"25 0 LINE",
"25 730 LINE",
"97 730 LINE",
"80 354 LINE",
"76 123 LINE",
"93 123 LINE"
);
},
{
closed = 1;
nodes = (
"255 850 LINE",
"257 840 LINE SMOOTH",
"266 796 OFFCURVE",
"250 773 OFFCURVE",
"207 773 CURVE",
"164 773 OFFCURVE",
"148 796 OFFCURVE",
"157 840 CURVE",
"159 850 LINE",
"87 850 LINE",
"87 840 LINE SMOOTH",
"87 791 OFFCURVE",
"135 757 OFFCURVE",
"207 756 CURVE",
"279 755 OFFCURVE",
"327 789 OFFCURVE",
"327 840 CURVE",
"327 850 LINE"
);
}
);
width = 399;
},
{
anchors = (
{
name = top;
position = "{206, 760}";
}
);
associatedMasterId = master01;
layerId = "3F4A0C5E-A30A-41D5-A2A6-A18C97F86BBA";
name = foreground;
paths = (
{
closed = 1;
nodes = (
"303 730 LINE",
"330 730 LINE",
"215 0 LINE",
"187 0 LINE"
);
},
{
closed = 1;
nodes = (
"314 730 LINE",
"374 730 LINE",
"374 0 LINE",
"303 0 LINE",
"309 376 LINE",
"323 607 LINE",
"306 607 LINE"
);
},
{
closed = 1;
nodes = (
"238 730 LINE",
"195 123 LINE",
"212 123 LINE",
"204 0 LINE",
"162 0 LINE",
"204 607 LINE",
"187 607 LINE",
"195 730 LINE"
);
},
{
closed = 1;
nodes = (
"184 730 LINE",
"211 730 LINE",
"96 0 LINE",
"68 0 LINE"
);
},
{
closed = 1;
nodes = (
"85 0 LINE",
"25 0 LINE",
"25 730 LINE",
"97 730 LINE",
"80 354 LINE",
"76 123 LINE",
"93 123 LINE"
);
},
{
closed = 1;
nodes = (
"255 850 LINE",
"257 840 LINE SMOOTH",
"266 796 OFFCURVE",
"250 773 OFFCURVE",
"207 773 CURVE",
"164 773 OFFCURVE",
"148 796 OFFCURVE",
"157 840 CURVE",
"159 850 LINE",
"87 850 LINE",
"87 840 LINE SMOOTH",
"87 791 OFFCURVE",
"135 757 OFFCURVE",
"207 756 CURVE",
"279 755 OFFCURVE",
"327 789 OFFCURVE",
"327 840 CURVE",
"327 850 LINE"
);
}
);
width = 399;
}
);
leftKerningGroup = H;
rightKerningGroup = H;
},
{
glyphname = uni0419.3;
layers = (
{
layerId = master01;
paths = (
{
closed = 1;
nodes = (
"422 730 LINE",
"449 730 LINE",
"334 0 LINE",
"306 0 LINE"
);
},
{
closed = 1;
nodes = (
"433 730 LINE",
"493 730 LINE",
"493 0 LINE",
"422 0 LINE",
"428 376 LINE",
"442 607 LINE",
"425 607 LINE"
);
},
{
closed = 1;
nodes = (
"357 730 LINE",
"314 123 LINE",
"331 123 LINE",
"323 0 LINE",
"281 0 LINE",
"323 607 LINE",
"306 607 LINE",
"314 730 LINE"
);
},
{
closed = 1;
nodes = (
"303 730 LINE",
"330 730 LINE",
"215 0 LINE",
"187 0 LINE"
);
},
{
closed = 1;
nodes = (
"238 730 LINE",
"195 123 LINE",
"212 123 LINE",
"204 0 LINE",
"162 0 LINE",
"204 607 LINE",
"187 607 LINE",
"195 730 LINE"
);
},
{
closed = 1;
nodes = (
"184 730 LINE",
"211 730 LINE",
"96 0 LINE",
"68 0 LINE"
);
},
{
closed = 1;
nodes = (
"85 0 LINE",
"25 0 LINE",
"25 730 LINE",
"97 730 LINE",
"80 354 LINE",
"76 123 LINE",
"93 123 LINE"
);
},
{
closed = 1;
nodes = (
"324 850 LINE",
"326 840 LINE SMOOTH",
"333 805 OFFCURVE",
"323 775 OFFCURVE",
"259 774 CURVE",
"195 773 OFFCURVE",
"185 805 OFFCURVE",
"192 840 CURVE",
"194 850 LINE",
"119 850 LINE",
"119 840 LINE SMOOTH",
"119 784 OFFCURVE",
"150 757 OFFCURVE",
"259 756 CURVE",
"368 755 OFFCURVE",
"399 784 OFFCURVE",
"399 840 CURVE",
"399 850 LINE"
);
}
);
width = 518;
},
{
associatedMasterId = master01;
layerId = "BDE38ECD-8D39-4427-ADD5-200ABE285EF9";
name = foreground;
paths = (
{
closed = 1;
nodes = (
"422 730 LINE",
"449 730 LINE",
"334 0 LINE",
"306 0 LINE"
);
},
{
closed = 1;
nodes = (
"433 730 LINE",
"493 730 LINE",
"493 0 LINE",
"422 0 LINE",
"428 376 LINE",
"442 607 LINE",
"425 607 LINE"
);
},
{
closed = 1;
nodes = (
"357 730 LINE",
"314 123 LINE",
"331 123 LINE",
"323 0 LINE",
"281 0 LINE",
"323 607 LINE",
"306 607 LINE",
"314 730 LINE"
);
},
{
closed = 1;
nodes = (
"303 730 LINE",
"330 730 LINE",
"215 0 LINE",
"187 0 LINE"
);
},
{
closed = 1;
nodes = (
"238 730 LINE",
"195 123 LINE",
"212 123 LINE",
"204 0 LINE",
"162 0 LINE",
"204 607 LINE",
"187 607 LINE",
"195 730 LINE"
);
},
{
closed = 1;
nodes = (
"184 730 LINE",
"211 730 LINE",
"96 0 LINE",
"68 0 LINE"
);
},
{
closed = 1;
nodes = (
"85 0 LINE",
"25 0 LINE",
"25 730 LINE",
"97 730 LINE",
"80 354 LINE",
"76 123 LINE",
"93 123 LINE"
);
},
{
closed = 1;
nodes = (
"324 850 LINE",
"326 840 LINE SMOOTH",
"333 805 OFFCURVE",
"323 775 OFFCURVE",
"259 774 CURVE",
"195 773 OFFCURVE",
"185 805 OFFCURVE",
"192 840 CURVE",
"194 850 LINE",
"119 850 LINE",
"119 840 LINE SMOOTH",
"119 784 OFFCURVE",
"150 757 OFFCURVE",
"259 756 CURVE",
"368 755 OFFCURVE",
"399 784 OFFCURVE",
"399 840 CURVE",
"399 850 LINE"
);
}
);
width = 518;
}
);
leftKerningGroup = H;
rightKerningGroup = H;
},
{
glyphname = uni041A.2;
layers = (
{
layerId = master01;
paths = (
{
closed = 1;
nodes = (
"106 290 LINE",
"118 279 LINE",
"226 292 LINE",
"273 0 LINE",
"192 0 LINE",
"172 174 LINE SMOOTH",
"163 248 OFFCURVE",
"145 265 OFFCURVE",
"103 258 CURVE"
);
},
{
closed = 1;
nodes = (
"105 730 LINE",
"105 649 LINE",
"81 297 LINE",
"91 295 LINE",
"185 730 LINE",
"275 730 LINE",
"275 663 LINE",
"253 657 LINE SMOOTH",
"197 642 OFFCURVE",
"178 563 OFFCURVE",
"141 412 CURVE",
"120 325 OFFCURVE",
"105 277 OFFCURVE",
"105 214 CURVE",
"105 0 LINE",
"30 0 LINE",
"30 730 LINE"
);
}
);
width = 280;
},
{
associatedMasterId = master01;
layerId = "89B344FF-A6BB-40ED-B7E4-83E492C094AA";
name = foreground;
paths = (
{
closed = 1;
nodes = (
"106 290 LINE",
"118 279 LINE",
"226 292 LINE",
"273 0 LINE",
"192 0 LINE",
"172 174 LINE SMOOTH",
"163 248 OFFCURVE",
"145 265 OFFCURVE",
"103 258 CURVE"
);
},
{
closed = 1;
nodes = (
"105 730 LINE",
"105 649 LINE",
"81 297 LINE",
"91 295 LINE",
"185 730 LINE",
"275 730 LINE",
"275 663 LINE",
"253 657 LINE SMOOTH",
"197 642 OFFCURVE",
"178 563 OFFCURVE",
"141 412 CURVE",
"120 325 OFFCURVE",
"105 277 OFFCURVE",
"105 214 CURVE",
"105 0 LINE",
"30 0 LINE",
"30 730 LINE"
);
}
);
width = 280;
}
);
leftKerningGroup = H;
rightKerningGroup = K;
},
{
glyphname = uni041A.3;
layers = (
{
layerId = master01;
paths = (
{
closed = 1;
nodes = (
"106 290 LINE",
"118 279 LINE",
"231 292 LINE",
"278 0 LINE",
"197 0 LINE",
"177 174 LINE SMOOTH",
"168 248 OFFCURVE",
"148 265 OFFCURVE",
"103 258 CURVE"
);
},
{
closed = 1;
nodes = (
"105 730 LINE",
"105 649 LINE",
"81 297 LINE",
"91 295 LINE",
"175 730 LINE",
"275 730 LINE",
"275 663 LINE",
"243 657 LINE SMOOTH",
"191 647 OFFCURVE",
"177 564 OFFCURVE",
"141 415 CURVE",
"120 327 OFFCURVE",
"105 278 OFFCURVE",
"105 214 CURVE",
"105 0 LINE",
"30 0 LINE",
"30 730 LINE"
);
},
{
closed = 1;
nodes = (
"104 293 LINE",
"122 287 LINE",
"193 506 LINE",
"275 506 LINE",
"275 454 LINE",
"253 448 LINE SMOOTH",
"207 435 OFFCURVE",
"194 417 OFFCURVE",
"169 357 CURVE",
"155 323 OFFCURVE",
"148 304 OFFCURVE",
"144 287 CURVE",
"158 279 LINE",
"100 276 LINE"
);
}
);
width = 288;
},
{
associatedMasterId = master01;
layerId = "D64E520C-51D6-4164-ABE6-3F3CC4BE28FF";
name = foreground;
paths = (
{
closed = 1;
nodes = (
"106 290 LINE",
"118 279 LINE",
"231 292 LINE",
"278 0 LINE",
"197 0 LINE",
"177 174 LINE SMOOTH",
"168 248 OFFCURVE",
"148 265 OFFCURVE",
"103 258 CURVE"
);
},
{
closed = 1;
nodes = (
"105 730 LINE",
"105 649 LINE",
"81 297 LINE",
"91 295 LINE",
"175 730 LINE",
"275 730 LINE",
"275 663 LINE",
"243 657 LINE SMOOTH",
"191 647 OFFCURVE",
"177 564 OFFCURVE",
"141 415 CURVE",
"120 327 OFFCURVE",
"105 278 OFFCURVE",
"105 214 CURVE",
"105 0 LINE",
"30 0 LINE",
"30 730 LINE"
);
},
{
closed = 1;
nodes = (
"104 293 LINE",
"122 287 LINE",
"193 506 LINE",
"275 506 LINE",
"275 454 LINE",
"253 448 LINE SMOOTH",
"207 435 OFFCURVE",
"194 417 OFFCURVE",
"169 357 CURVE",
"155 323 OFFCURVE",
"148 304 OFFCURVE",
"144 287 CURVE",
"158 279 LINE",
"100 276 LINE"
);
}
);
width = 288;
}
);
leftKerningGroup = H;
rightKerningGroup = Kk;
},
{
glyphname = uni041C.2;
layers = (
{
layerId = master01;
paths = (
{
closed = 1;
nodes = (
"105 730 LINE",
"100 522 LINE",
"77 522 LINE",
"104 0 LINE",
"25 0 LINE",
"35 730 LINE"
);
},
{
closed = 1;
nodes = (
"411 730 LINE",
"472 730 LINE",
"482 0 LINE",
"405 0 LINE",
"418 522 LINE",
"392 522 LINE"
);
},
{
closed = 1;
nodes = (
"110 730 LINE",
"190 257 LINE",
"201 257 LINE",
"191 50 LINE",
"170 50 LINE",
"51 730 LINE"
);
},
{
closed = 1;
nodes = (
"239 730 LINE",
"280 730 LINE",
"246 545 LINE",
"201 50 LINE",
"170 50 LINE",
"201 257 LINE"
);
},
{
closed = 1;
nodes = (
"280 730 LINE",
"340 257 LINE",
"351 257 LINE",
"343 50 LINE",
"312 50 LINE",
"250 497 LINE",
"237 497 LINE"
);
},
{
closed = 1;
nodes = (
"411 730 LINE",
"435 730 LINE",
"343 50 LINE",
"312 50 LINE",
"351 257 LINE"
);
}
);
width = 507;
},
{
associatedMasterId = master01;
layerId = "A171622D-345D-4F2D-AB12-2333949D7FE7";
name = foreground;
paths = (
{
closed = 1;
nodes = (
"105 730 LINE",
"100 522 LINE",
"77 522 LINE",
"104 0 LINE",
"25 0 LINE",
"35 730 LINE"
);
},
{
closed = 1;
nodes = (
"411 730 LINE",
"472 730 LINE",
"482 0 LINE",
"405 0 LINE",
"418 522 LINE",
"392 522 LINE"
);
},
{
closed = 1;
nodes = (
"110 730 LINE",
"190 257 LINE",
"201 257 LINE",
"191 50 LINE",
"170 50 LINE",
"51 730 LINE"
);
},
{
closed = 1;
nodes = (
"239 730 LINE",
"280 730 LINE",
"246 545 LINE",
"201 50 LINE",
"170 50 LINE",
"201 257 LINE"
);
},
{
closed = 1;
nodes = (
"280 730 LINE",
"340 257 LINE",
"351 257 LINE",
"343 50 LINE",
"312 50 LINE",
"250 497 LINE",
"237 497 LINE"
);
},
{
closed = 1;
nodes = (
"411 730 LINE",
"435 730 LINE",
"343 50 LINE",
"312 50 LINE",
"351 257 LINE"
);
}
);
width = 507;
}
);
leftKerningGroup = H;
rightKerningGroup = H;
},
{
glyphname = uni041C.3;
layers = (
{
layerId = master01;
paths = (
{
closed = 1;
nodes = (
"110 730 LINE",
"190 257 LINE",
"201 257 LINE",
"191 50 LINE",
"170 50 LINE",
"51 730 LINE"
);
},
{
closed = 1;
nodes = (
"239 730 LINE",
"280 730 LINE",
"246 545 LINE",
"201 50 LINE",
"170 50 LINE",
"201 257 LINE"
);
},
{
closed = 1;
nodes = (
"280 730 LINE",
"340 257 LINE",
"351 257 LINE",
"343 50 LINE",
"312 50 LINE",
"250 497 LINE",
"237 497 LINE"
);
},
{
closed = 1;
nodes = (
"389 730 LINE",
"430 730 LINE",
"396 545 LINE",
"351 50 LINE",
"320 50 LINE",
"351 257 LINE"
);
},
{
closed = 1;
nodes = (
"430 730 LINE",
"490 257 LINE",
"501 257 LINE",
"493 50 LINE",
"462 50 LINE",
"400 497 LINE",
"387 497 LINE"
);
},
{
closed = 1;
nodes = (
"561 730 LINE",
"585 730 LINE",
"493 50 LINE",
"462 50 LINE",
"501 257 LINE"
);
},
{
closed = 1;
nodes = (
"105 730 LINE",
"100 522 LINE",
"77 522 LINE",
"104 0 LINE",
"25 0 LINE",
"35 730 LINE"
);
},
{
closed = 1;
nodes = (
"561 730 LINE",
"622 730 LINE",
"632 0 LINE",
"555 0 LINE",
"568 522 LINE",
"542 522 LINE"
);
}
);
width = 657;
},
{
associatedMasterId = master01;
layerId = "F6D65D15-C1AC-4DA7-BF0E-E9E7173DE055";
name = foreground;
paths = (
{
closed = 1;
nodes = (
"110 730 LINE",
"190 257 LINE",
"201 257 LINE",
"191 50 LINE",
"170 50 LINE",
"51 730 LINE"
);
},
{
closed = 1;
nodes = (
"239 730 LINE",
"280 730 LINE",
"246 545 LINE",
"201 50 LINE",
"170 50 LINE",
"201 257 LINE"
);
},
{
closed = 1;
nodes = (
"280 730 LINE",
"340 257 LINE",
"351 257 LINE",
"343 50 LINE",
"312 50 LINE",
"250 497 LINE",
"237 497 LINE"
);
},
{
closed = 1;
nodes = (
"389 730 LINE",
"430 730 LINE",
"396 545 LINE",
"351 50 LINE",
"320 50 LINE",
"351 257 LINE"
);
},
{
closed = 1;
nodes = (
"430 730 LINE",
"490 257 LINE",
"501 257 LINE",
"493 50 LINE",
"462 50 LINE",
"400 497 LINE",
"387 497 LINE"
);
},
{
closed = 1;
nodes = (
"561 730 LINE",
"585 730 LINE",
"493 50 LINE",
"462 50 LINE",
"501 257 LINE"
);
},
{
closed = 1;
nodes = (
"105 730 LINE",
"100 522 LINE",
"77 522 LINE",
"104 0 LINE",
"25 0 LINE",
"35 730 LINE"
);
},
{
closed = 1;
nodes = (
"561 730 LINE",
"622 730 LINE",
"632 0 LINE",
"555 0 LINE",
"568 522 LINE",
"542 522 LINE"
);
}
);
width = 657;
}
);
leftKerningGroup = H;
rightKerningGroup = H;
},
{
glyphname = uni041C.4;
layers = (
{
layerId = master01;
paths = (
{
closed = 1;
nodes = (
"110 730 LINE",
"190 257 LINE",
"201 257 LINE",
"191 50 LINE",
"170 50 LINE",
"51 730 LINE"
);
},
{
closed = 1;
nodes = (
"239 730 LINE",
"280 730 LINE",
"246 545 LINE",
"201 50 LINE",
"170 50 LINE",
"201 257 LINE"
);
},
{
closed = 1;
nodes = (
"280 730 LINE",
"340 257 LINE",
"351 257 LINE",
"343 50 LINE",
"312 50 LINE",
"250 497 LINE",
"237 497 LINE"
);
},
{
closed = 1;
nodes = (
"389 730 LINE",
"430 730 LINE",
"396 545 LINE",
"351 50 LINE",
"320 50 LINE",
"351 257 LINE"
);
},
{
closed = 1;
nodes = (
"430 730 LINE",
"490 257 LINE",
"501 257 LINE",
"493 50 LINE",
"462 50 LINE",
"400 497 LINE",
"387 497 LINE"
);
},
{
closed = 1;
nodes = (
"539 730 LINE",
"580 730 LINE",
"546 545 LINE",
"501 50 LINE",
"470 50 LINE",
"501 257 LINE"
);
},
{
closed = 1;
nodes = (
"580 730 LINE",
"640 257 LINE",
"651 257 LINE",
"643 50 LINE",
"612 50 LINE",
"550 497 LINE",
"537 497 LINE"
);
},
{
closed = 1;
nodes = (
"689 730 LINE",
"730 730 LINE",
"696 545 LINE",
"651 50 LINE",
"620 50 LINE",
"651 257 LINE"
);
},
{
closed = 1;
nodes = (
"730 730 LINE",
"790 257 LINE",
"801 257 LINE",
"793 50 LINE",
"762 50 LINE",
"700 497 LINE",
"687 497 LINE"
);
},
{
closed = 1;
nodes = (
"861 730 LINE",
"885 730 LINE",
"793 50 LINE",
"762 50 LINE",
"801 257 LINE"
);
},
{
closed = 1;
nodes = (
"105 730 LINE",
"100 522 LINE",
"77 522 LINE",
"104 0 LINE",
"25 0 LINE",
"35 730 LINE"
);
},
{
closed = 1;
nodes = (
"861 730 LINE",
"922 730 LINE",
"932 0 LINE",
"855 0 LINE",
"868 522 LINE",
"842 522 LINE"
);
}
);
width = 957;
},
{
associatedMasterId = master01;
layerId = "0355C15A-5038-475D-9F8D-10950A3561AA";
name = foreground;
paths = (
{
closed = 1;
nodes = (
"110 730 LINE",
"190 257 LINE",
"201 257 LINE",
"191 50 LINE",
"170 50 LINE",
"51 730 LINE"
);
},
{
closed = 1;
nodes = (
"239 730 LINE",
"280 730 LINE",
"246 545 LINE",
"201 50 LINE",
"170 50 LINE",
"201 257 LINE"
);
},
{
closed = 1;
nodes = (
"280 730 LINE",
"340 257 LINE",
"351 257 LINE",
"343 50 LINE",
"312 50 LINE",
"250 497 LINE",
"237 497 LINE"
);
},
{
closed = 1;
nodes = (
"389 730 LINE",
"430 730 LINE",
"396 545 LINE",
"351 50 LINE",
"320 50 LINE",
"351 257 LINE"
);
},
{
closed = 1;
nodes = (
"430 730 LINE",
"490 257 LINE",
"501 257 LINE",
"493 50 LINE",
"462 50 LINE",
"400 497 LINE",
"387 497 LINE"
);
},
{
closed = 1;
nodes = (
"539 730 LINE",
"580 730 LINE",
"546 545 LINE",
"501 50 LINE",
"470 50 LINE",
"501 257 LINE"
);
},
{
closed = 1;
nodes = (
"580 730 LINE",
"640 257 LINE",
"651 257 LINE",
"643 50 LINE",
"612 50 LINE",
"550 497 LINE",
"537 497 LINE"
);
},
{
closed = 1;
nodes = (
"689 730 LINE",
"730 730 LINE",
"696 545 LINE",
"651 50 LINE",
"620 50 LINE",
"651 257 LINE"
);
},
{
closed = 1;
nodes = (
"730 730 LINE",
"790 257 LINE",
"801 257 LINE",
"793 50 LINE",
"762 50 LINE",
"700 497 LINE",
"687 497 LINE"
);
},
{
closed = 1;
nodes = (
"861 730 LINE",
"885 730 LINE",
"793 50 LINE",
"762 50 LINE",
"801 257 LINE"
);
},
{
closed = 1;
nodes = (
"105 730 LINE",
"100 522 LINE",
"77 522 LINE",
"104 0 LINE",
"25 0 LINE",
"35 730 LINE"
);
},
{
closed = 1;
nodes = (
"861 730 LINE",
"922 730 LINE",
"932 0 LINE",
"855 0 LINE",
"868 522 LINE",
"842 522 LINE"
);
}
);
width = 957;
}
);
leftKerningGroup = H;
rightKerningGroup = H;
},
